<svg width="183" height="106" viewBox="0 0 183 106" fill="none" xmlns="http://www.w3.org/2000/svg">
<path d="M182.088 0.502197H0.153564V105.104H182.088V0.502197Z" fill="white"/>
<path d="M62.8608 76.4459H49.4263V28.8636H76.2151V39.2163L62.8608 38.4052V49.4472H73.8199V59.5162L62.8608 58.7037V76.4459ZM92.8657 60.6123V76.4459H79.3897V28.8636H84.7474C86.0467 28.8636 87.9807 28.8105 90.5521 28.7016C93.1221 28.5669 95.2466 28.4982 96.9242 28.4982C102.769 28.4982 107.125 29.7849 109.993 32.3555C112.889 34.9262 114.337 38.8652 114.337 44.1698C114.337 47.3093 113.646 50.0977 112.267 52.5336C110.913 54.9696 109.114 56.904 106.869 58.3383C108.087 58.6364 109.128 59.327 109.993 60.4089C110.887 61.4921 111.576 62.7775 112.063 64.2662C112.551 65.7278 112.97 67.2166 113.323 68.7326C113.701 70.2214 114.121 71.6958 114.58 73.1574C115.068 74.6189 115.595 75.7151 116.163 76.4459H101.186C100.888 76.0676 100.659 75.0115 100.496 73.2792C100.334 71.5196 100.103 69.4218 99.8065 66.9859C99.5357 64.5227 99.1432 62.4665 98.6289 60.8158C98.5745 60.8158 98.5071 60.8158 98.4255 60.8158C97.9112 60.8158 97.3568 60.8158 96.7623 60.8158C96.1936 60.7886 95.6922 60.7614 95.2595 60.7341C94.8269 60.7069 94.367 60.6797 93.88 60.6525C93.4201 60.6252 93.082 60.6123 92.8657 60.6123ZM92.8657 53.0609H94.1636C94.8398 53.0609 95.4085 53.0337 95.8684 52.9793C96.3282 52.9263 96.8296 52.8303 97.3711 52.6956C97.9384 52.5337 98.3983 52.29 98.7507 51.9648C99.1289 51.6395 99.4813 51.2211 99.8065 50.7067C100.13 50.1923 100.374 49.5288 100.537 48.7164C100.699 47.9054 100.781 46.9582 100.781 45.875V42.6681C100.781 40.3124 100.157 38.6761 98.9125 37.7547C97.6949 36.8076 95.9357 36.3347 93.6364 36.3347H92.8657V53.0609ZM118.874 76.4459V28.8636H132.715V76.4459H118.874Z" fill="#FFA800"/>
<mask id="mask0_142_62" style="mask-type:luminance" maskUnits="userSpaceOnUse" x="41" y="20" width="100" height="64">
<path d="M140.544 20.5627H41.6978V83.6104H140.544V20.5627Z" fill="white"/>
<path d="M62.861 76.4459H49.4265V28.8636H76.2153V39.2163L62.861 38.4052V49.4472H73.8201V59.5162L62.861 58.7037V76.4459ZM92.866 60.6123V76.4459H79.3899V28.8636H84.7477C86.047 28.8636 87.9809 28.8105 90.5524 28.7016C93.1224 28.5669 95.2469 28.4982 96.9244 28.4982C102.769 28.4982 107.126 29.7849 109.994 32.3555C112.889 34.9262 114.337 38.8652 114.337 44.1698C114.337 47.3093 113.647 50.0977 112.267 52.5336C110.913 54.9696 109.114 56.904 106.869 58.3383C108.087 58.6364 109.128 59.327 109.994 60.4089C110.888 61.4921 111.577 62.7775 112.064 64.2662C112.551 65.7278 112.97 67.2166 113.323 68.7326C113.701 70.2214 114.121 71.6958 114.581 73.1574C115.068 74.6189 115.595 75.7151 116.164 76.4459H101.186C100.888 76.0676 100.659 75.0115 100.496 73.2792C100.334 71.5196 100.103 69.4218 99.8067 66.9859C99.536 64.5227 99.1434 62.4665 98.6291 60.8158C98.5747 60.8158 98.5074 60.8158 98.4257 60.8158C97.9114 60.8158 97.357 60.8158 96.7625 60.8158C96.1938 60.7886 95.6924 60.7614 95.2598 60.7341C94.8272 60.7069 94.3673 60.6797 93.8802 60.6525C93.4204 60.6252 93.0823 60.6123 92.866 60.6123ZM92.866 53.0609H94.1639C94.84 53.0609 95.4088 53.0337 95.8686 52.9793C96.3285 52.9263 96.8299 52.8303 97.3714 52.6956C97.9387 52.5337 98.3985 52.29 98.7509 51.9648C99.1291 51.6395 99.4815 51.2211 99.8067 50.7067C100.13 50.1923 100.374 49.5288 100.537 48.7164C100.699 47.9054 100.781 46.9582 100.781 45.875V42.6681C100.781 40.3124 100.158 38.6761 98.9128 37.7547C97.6951 36.8076 95.9359 36.3347 93.6367 36.3347H92.866V53.0609ZM118.874 76.4459V28.8636H132.715V76.4459H118.874Z" fill="black"/>
</mask>
<g mask="url(#mask0_142_62)">
<path d="M62.861 76.4458V83.6103H70.0238V76.4458H62.861ZM49.4265 76.4458H42.2637V83.6103H49.4265V76.4458ZM49.4265 28.8635V21.699H42.2637V28.8635H49.4265ZM76.2153 28.8635H83.3781V21.699H76.2153V28.8635ZM76.2153 39.2162L75.7812 46.3678L83.3781 46.8307V39.2162H76.2153ZM62.861 38.4052L63.2965 31.2536L55.6982 30.7908V38.4052H62.861ZM62.861 49.4471H55.6982V56.6116H62.861V49.4471ZM73.8201 49.4471H80.9829V42.2826H73.8201V49.4471ZM73.8201 59.5161L73.2914 66.6606L80.9829 67.2309V59.5161H73.8201ZM62.861 58.7037L63.391 51.5592L55.6982 50.9889V58.7037H62.861ZM62.861 69.2813H49.4265V83.6103H62.861V69.2813ZM56.5893 76.4458V28.8635H42.2637V76.4458H56.5893ZM49.4265 36.028H76.2153V21.699H49.4265V36.028ZM69.0525 28.8635V39.2162H83.3781V28.8635H69.0525ZM76.6494 32.0661L63.2965 31.2536L62.4269 45.5554L75.7812 46.3678L76.6494 32.0661ZM55.6982 38.4052V49.4471H70.0238V38.4052H55.6982ZM62.861 56.6116H73.8201V42.2826H62.861V56.6116ZM66.6573 49.4471V59.5161H80.9829V49.4471H66.6573ZM74.3501 52.3717L63.391 51.5592L62.3324 65.8495L73.2914 66.6606L74.3501 52.3717ZM55.6982 58.7037V76.4458H70.0238V58.7037H55.6982ZM92.8659 60.6123V53.4478H85.7031V60.6123H92.8659ZM92.8659 76.4458V83.6103H100.029V76.4458H92.8659ZM79.3899 76.4458H72.2271V83.6103H79.3899V76.4458ZM79.3899 28.8635V21.699H72.2271V28.8635H79.3899ZM90.5523 28.7016L90.8532 35.8604L90.8904 35.8575L90.9277 35.8561L90.5523 28.7016ZM109.994 32.3555L105.213 37.6902L105.226 37.7016L105.239 37.7131L109.994 32.3555ZM112.267 52.5336L106.035 49.0015L106.02 49.0273L106.005 49.0531L112.267 52.5336ZM106.869 58.3383L103.014 52.3L88.8934 61.3187L105.167 65.2979L106.869 58.3383ZM109.994 60.4088L104.401 64.8852L104.434 64.9268L104.468 64.9683L109.994 60.4088ZM112.064 64.2662L105.256 66.4943L105.262 66.513L105.269 66.5316L112.064 64.2662ZM113.323 68.7325L106.345 70.3517L106.362 70.4262L106.381 70.4993L113.323 68.7325ZM114.581 73.1573L107.749 75.3081L107.766 75.3654L107.785 75.4227L114.581 73.1573ZM116.164 76.4458V83.6103H130.809L121.818 72.0468L116.164 76.4458ZM101.186 76.4458L95.5534 80.8721L97.7051 83.6103H101.186V76.4458ZM100.496 73.2791L93.363 73.9383L93.3644 73.9483L100.496 73.2791ZM99.8067 66.9858L92.6854 67.7682L92.6911 67.8126L92.6954 67.8556L99.8067 66.9858ZM98.6291 60.8158L105.468 58.685L103.899 53.6513H98.6291V60.8158ZM96.7625 60.8158L96.4215 67.9717L96.592 67.9803H96.7625V60.8158ZM93.8802 60.6524L93.459 67.8055H93.4705L93.4834 67.8069L93.8802 60.6524ZM92.8659 53.0609H85.7031V60.2254H92.8659V53.0609ZM97.3713 52.6955L99.1076 59.6465L99.2236 59.6179L99.3382 59.5849L97.3713 52.6955ZM98.7509 51.9647L94.0893 46.5255L93.989 46.6114L93.8916 46.7003L98.7509 51.9647ZM98.9127 37.7547L94.5162 43.4103L94.585 43.4648L94.6552 43.5164L98.9127 37.7547ZM92.8659 36.3347V29.1702H85.7031V36.3347H92.8659ZM85.7031 60.6123V76.4458H100.029V60.6123H85.7031ZM92.8659 69.2813H79.3899V83.6103H92.8659V69.2813ZM86.5526 76.4458V28.8635H72.2271V76.4458H86.5526ZM79.3899 36.028H84.7476V21.699H79.3899V36.028ZM84.7476 36.028C86.2017 36.028 88.2588 35.9693 90.8532 35.8604L90.2501 21.5428C87.703 21.6503 85.8908 21.699 84.7476 21.699V36.028ZM90.9277 35.8561C93.4318 35.7243 95.4202 35.6626 96.9243 35.6626V21.3336C95.0735 21.3336 92.8129 21.4081 90.1756 21.5471L90.9277 35.8561ZM96.9243 35.6626C101.888 35.6626 104.195 36.7774 105.213 37.6902L114.774 27.0208C110.057 22.7909 103.65 21.3336 96.9243 21.3336V35.6626ZM105.239 37.7131C106.097 38.4768 107.174 40.1233 107.174 44.1698H121.5C121.5 37.6071 119.681 31.3768 114.75 26.9979L105.239 37.7131ZM107.174 44.1698C107.174 46.2245 106.733 47.7678 106.035 49.0015L118.499 56.0657C120.56 52.4261 121.5 48.394 121.5 44.1698H107.174ZM106.005 49.0531C105.203 50.4989 104.212 51.5349 103.014 52.3L110.724 64.3765C114.018 62.273 116.625 59.4388 118.529 56.0127L106.005 49.0531ZM105.167 65.2979C104.977 65.252 104.778 65.166 104.607 65.0528C104.444 64.9439 104.382 64.8623 104.401 64.8852L115.588 55.9339C113.844 53.7544 111.486 52.0923 108.57 51.3787L105.167 65.2979ZM104.468 64.9683C104.73 65.285 105.015 65.7578 105.256 66.4943L118.871 62.038C118.138 59.797 117.043 57.6978 115.519 55.8493L104.468 64.9683ZM105.269 66.5316C105.684 67.7797 106.043 69.0521 106.345 70.3517L120.299 67.1119C119.898 65.381 119.417 63.6758 118.86 62.0008L105.269 66.5316ZM106.381 70.4993C106.792 72.1171 107.249 73.7205 107.749 75.3081L121.413 71.0065C120.993 69.6711 120.61 68.3242 120.264 66.9643L106.381 70.4993ZM107.785 75.4227C108.382 77.2139 109.22 79.187 110.509 80.8449L121.818 72.0468C121.924 72.1844 121.904 72.1916 121.795 71.968C121.692 71.7531 121.547 71.4063 121.375 70.8919L107.785 75.4227ZM116.164 69.2813H101.186V83.6103H116.164V69.2813ZM106.818 72.0196C107.131 72.418 107.332 72.7705 107.452 73.0054C107.575 73.2462 107.654 73.441 107.697 73.5614C107.782 73.7878 107.802 73.9068 107.789 73.8437C107.779 73.7979 107.755 73.6746 107.723 73.4525C107.693 73.2361 107.66 72.9582 107.627 72.61L93.3644 73.9483C93.459 74.9513 93.5894 75.9687 93.7913 76.8958C93.9188 77.4818 94.3071 79.2859 95.5534 80.8721L106.818 72.0196ZM107.628 72.62C107.458 70.7701 107.219 68.5979 106.916 66.1175L92.6954 67.8556C92.9877 70.2457 93.2097 72.2704 93.363 73.9383L107.628 72.62ZM106.926 66.2035C106.624 63.4623 106.163 60.9189 105.468 58.685L91.7901 62.9465C92.1224 64.014 92.4462 65.5845 92.6854 67.7682L106.926 66.2035ZM98.6291 53.6513C98.6277 53.6513 98.6262 53.6513 98.6262 53.6513C98.6248 53.6513 98.6234 53.6513 98.6234 53.6513H98.6219H98.6191C98.6176 53.6513 98.6162 53.6513 98.6162 53.6513C98.6162 53.6513 98.6148 53.6513 98.6133 53.6513H98.6105C98.609 53.6513 98.6076 53.6513 98.6076 53.6513H98.6047C98.6047 53.6513 98.6033 53.6513 98.6019 53.6513C98.6004 53.6513 98.6004 53.6513 98.6004 53.6513H98.5976C98.5976 53.6513 98.5961 53.6513 98.5947 53.6513C98.5947 53.6513 98.5933 53.6513 98.5918 53.6513C98.5904 53.6513 98.589 53.6513 98.589 53.6513C98.5876 53.6513 98.5861 53.6513 98.5861 53.6513C98.5847 53.6513 98.5833 53.6513 98.5833 53.6513C98.5818 53.6513 98.5818 53.6513 98.5818 53.6513C98.5804 53.6513 98.579 53.6513 98.579 53.6513C98.579 53.6513 98.5775 53.6513 98.5761 53.6513C98.5761 53.6513 98.5747 53.6513 98.5732 53.6513H98.5704C98.5689 53.6513 98.5675 53.6513 98.5675 53.6513C98.5661 53.6513 98.5646 53.6513 98.5646 53.6513H98.5618H98.5603C98.5589 53.6513 98.5575 53.6513 98.5575 53.6513H98.5546C98.5532 53.6513 98.5517 53.6513 98.5517 53.6513H98.5489C98.5489 53.6513 98.5474 53.6513 98.546 53.6513C98.5446 53.6513 98.5431 53.6513 98.5431 53.6513C98.5431 53.6513 98.5431 53.6513 98.5417 53.6513C98.5403 53.6513 98.5388 53.6513 98.5388 53.6513C98.5374 53.6513 98.536 53.6513 98.536 53.6513H98.5331C98.5331 53.6513 98.5317 53.6513 98.5302 53.6513C98.5302 53.6513 98.5288 53.6513 98.5274 53.6513C98.5274 53.6513 98.526 53.6513 98.5245 53.6513C98.5245 53.6513 98.5231 53.6513 98.5217 53.6513H98.5202H98.5174C98.5159 53.6513 98.5145 53.6513 98.5145 53.6513C98.5131 53.6513 98.5116 53.6513 98.5116 53.6513C98.5102 53.6513 98.5088 53.6513 98.5088 53.6513C98.5088 53.6513 98.5073 53.6513 98.5059 53.6513C98.5059 53.6513 98.5045 53.6513 98.503 53.6513C98.5016 53.6513 98.5016 53.6513 98.5016 53.6513C98.5016 53.6513 98.5002 53.6513 98.4987 53.6513H98.4959C98.4944 53.6513 98.493 53.6513 98.493 53.6513C98.493 53.6513 98.4916 53.6513 98.4901 53.6513H98.4873C98.4858 53.6513 98.4844 53.6513 98.4844 53.6513C98.4844 53.6513 98.483 53.6513 98.4815 53.6513C98.4801 53.6513 98.4801 53.6513 98.4801 53.6513H98.4772C98.4758 53.6513 98.4744 53.6513 98.4744 53.6513H98.4715C98.4715 53.6513 98.4701 53.6513 98.4687 53.6513H98.4658C98.4658 53.6513 98.4644 53.6513 98.4629 53.6513C98.4629 53.6513 98.4629 53.6513 98.4615 53.6513C98.46 53.6513 98.4586 53.6513 98.4586 53.6513H98.4558C98.4558 53.6513 98.4543 53.6513 98.4529 53.6513C98.4515 53.6513 98.45 53.6513 98.45 53.6513C98.4486 53.6513 98.4472 53.6513 98.4472 53.6513H98.4443H98.4429C98.4429 53.6513 98.4414 53.6513 98.44 53.6513C98.44 53.6513 98.4386 53.6513 98.4371 53.6513C98.4371 53.6513 98.4357 53.6513 98.4343 53.6513C98.4328 53.6513 98.4314 53.6513 98.4314 53.6513C98.43 53.6513 98.4285 53.6513 98.4285 53.6513C98.4271 53.6513 98.4257 53.6513 98.4257 53.6513V67.9803C98.4257 67.9803 98.4257 67.9803 98.4271 67.9803C98.4271 67.9803 98.4285 67.9803 98.43 67.9803C98.43 67.9803 98.4314 67.9803 98.4328 67.9803C98.4343 67.9803 98.4357 67.9803 98.4357 67.9803C98.4371 67.9803 98.4386 67.9803 98.4386 67.9803C98.44 67.9803 98.4414 67.9803 98.4414 67.9803H98.4443H98.4457C98.4457 67.9803 98.4472 67.9803 98.4486 67.9803C98.4486 67.9803 98.45 67.9803 98.4515 67.9803C98.4529 67.9803 98.4543 67.9803 98.4543 67.9803H98.4572C98.4572 67.9803 98.4586 67.9803 98.4601 67.9803C98.4615 67.9803 98.4629 67.9803 98.4629 67.9803C98.4644 67.9803 98.4644 67.9803 98.4644 67.9803H98.4672C98.4687 67.9803 98.4701 67.9803 98.4701 67.9803H98.473C98.473 67.9803 98.4744 67.9803 98.4758 67.9803H98.4787C98.4787 67.9803 98.4801 67.9803 98.4815 67.9803C98.483 67.9803 98.483 67.9803 98.483 67.9803C98.483 67.9803 98.4844 67.9803 98.4859 67.9803H98.4887C98.4901 67.9803 98.4916 67.9803 98.4916 67.9803C98.4916 67.9803 98.493 67.9803 98.4944 67.9803H98.4973C98.4987 67.9803 98.5002 67.9803 98.5002 67.9803C98.5002 67.9803 98.5016 67.9803 98.503 67.9803C98.5045 67.9803 98.5045 67.9803 98.5045 67.9803C98.5059 67.9803 98.5073 67.9803 98.5073 67.9803C98.5073 67.9803 98.5088 67.9803 98.5102 67.9803C98.5102 67.9803 98.5116 67.9803 98.5131 67.9803C98.5131 67.9803 98.5145 67.9803 98.5159 67.9803H98.5188H98.5217C98.5231 67.9803 98.5231 67.9803 98.5231 67.9803C98.5245 67.9803 98.526 67.9803 98.526 67.9803C98.5274 67.9803 98.5288 67.9803 98.5288 67.9803C98.5303 67.9803 98.5317 67.9803 98.5317 67.9803H98.5346C98.5346 67.9803 98.536 67.9803 98.5374 67.9803C98.5374 67.9803 98.5388 67.9803 98.5403 67.9803C98.5417 67.9803 98.5431 67.9803 98.5431 67.9803C98.5431 67.9803 98.5432 67.9803 98.5446 67.9803C98.546 67.9803 98.5475 67.9803 98.5475 67.9803H98.5503C98.5503 67.9803 98.5517 67.9803 98.5532 67.9803H98.556C98.556 67.9803 98.5575 67.9803 98.5589 67.9803H98.5618H98.5632C98.5632 67.9803 98.5646 67.9803 98.5661 67.9803C98.5661 67.9803 98.5675 67.9803 98.5689 67.9803H98.5718C98.5732 67.9803 98.5747 67.9803 98.5747 67.9803C98.5761 67.9803 98.5775 67.9803 98.5775 67.9803C98.5775 67.9803 98.579 67.9803 98.5804 67.9803C98.5804 67.9803 98.5818 67.9803 98.5833 67.9803C98.5833 67.9803 98.5833 67.9803 98.5847 67.9803C98.5847 67.9803 98.5861 67.9803 98.5876 67.9803C98.5876 67.9803 98.589 67.9803 98.5904 67.9803C98.5919 67.9803 98.5933 67.9803 98.5933 67.9803C98.5947 67.9803 98.5962 67.9803 98.5962 67.9803H98.599C98.599 67.9803 98.6004 67.9803 98.6019 67.9803C98.6033 67.9803 98.6033 67.9803 98.6033 67.9803H98.6062C98.6062 67.9803 98.6076 67.9803 98.6091 67.9803H98.6119C98.6133 67.9803 98.6148 67.9803 98.6148 67.9803C98.6148 67.9803 98.6162 67.9803 98.6176 67.9803H98.6205H98.6234C98.6234 67.9803 98.6234 67.9803 98.6248 67.9803C98.6248 67.9803 98.6262 67.9803 98.6277 67.9803L98.6291 53.6513ZM98.4257 53.6513C98.4257 53.6513 98.4242 53.6513 98.4228 53.6513C98.4214 53.6513 98.4214 53.6513 98.4199 53.6513C98.4185 53.6513 98.4185 53.6513 98.4171 53.6513C98.4157 53.6513 98.4157 53.6513 98.4142 53.6513C98.4128 53.6513 98.4114 53.6513 98.4114 53.6513C98.4099 53.6513 98.4085 53.6513 98.4085 53.6513C98.4071 53.6513 98.4056 53.6513 98.4042 53.6513C98.4042 53.6513 98.4028 53.6513 98.4013 53.6513C98.4013 53.6513 98.3999 53.6513 98.3985 53.6513C98.3985 53.6513 98.397 53.6513 98.3956 53.6513C98.3942 53.6513 98.3942 53.6513 98.3927 53.6513C98.3913 53.6513 98.3913 53.6513 98.3899 53.6513C98.3884 53.6513 98.3884 53.6513 98.387 53.6513C98.3856 53.6513 98.3841 53.6513 98.3841 53.6513C98.3827 53.6513 98.3813 53.6513 98.3813 53.6513C98.3798 53.6513 98.3784 53.6513 98.377 53.6513C98.377 53.6513 98.3755 53.6513 98.3741 53.6513C98.3741 53.6513 98.3727 53.6513 98.3712 53.6513C98.3712 53.6513 98.3698 53.6513 98.3684 53.6513C98.3669 53.6513 98.367 53.6513 98.3655 53.6513C98.3641 53.6513 98.3641 53.6513 98.3626 53.6513C98.3612 53.6513 98.3612 53.6513 98.3598 53.6513C98.3583 53.6513 98.3569 53.6513 98.3569 53.6513C98.3555 53.6513 98.354 53.6513 98.354 53.6513C98.3526 53.6513 98.3512 53.6513 98.3498 53.6513C98.3498 53.6513 98.3483 53.6513 98.3469 53.6513C98.3469 53.6513 98.3455 53.6513 98.344 53.6513C98.344 53.6513 98.3426 53.6513 98.3411 53.6513C98.3397 53.6513 98.3397 53.6513 98.3383 53.6513C98.3368 53.6513 98.3369 53.6513 98.3354 53.6513C98.334 53.6513 98.3326 53.6513 98.3326 53.6513C98.3311 53.6513 98.3297 53.6513 98.3297 53.6513C98.3283 53.6513 98.3268 53.6513 98.3254 53.6513C98.3254 53.6513 98.324 53.6513 98.3225 53.6513C98.3225 53.6513 98.3211 53.6513 98.3197 53.6513C98.3197 53.6513 98.3182 53.6513 98.3168 53.6513C98.3154 53.6513 98.3154 53.6513 98.3139 53.6513C98.3125 53.6513 98.3125 53.6513 98.3111 53.6513C98.3096 53.6513 98.3082 53.6513 98.3082 53.6513C98.3068 53.6513 98.3053 53.6513 98.3053 53.6513C98.3039 53.6513 98.3025 53.6513 98.301 53.6513C98.301 53.6513 98.2996 53.6513 98.2982 53.6513C98.2982 53.6513 98.2967 53.6513 98.2953 53.6513C98.2939 53.6513 98.2939 53.6513 98.2924 53.6513C98.291 53.6513 98.291 53.6513 98.2896 53.6513C98.2881 53.6513 98.2881 53.6513 98.2867 53.6513C98.2853 53.6513 98.2839 53.6513 98.2839 53.6513C98.2824 53.6513 98.281 53.6513 98.281 53.6513C98.2796 53.6513 98.2781 53.6513 98.2767 53.6513C98.2767 53.6513 98.2753 53.6513 98.2738 53.6513C98.2738 53.6513 98.2724 53.6513 98.271 53.6513C98.2695 53.6513 98.2695 53.6513 98.2681 53.6513C98.2667 53.6513 98.2667 53.6513 98.2652 53.6513C98.2638 53.6513 98.2624 53.6513 98.2624 53.6513C98.2609 53.6513 98.2595 53.6513 98.2595 53.6513C98.2581 53.6513 98.2566 53.6513 98.2552 53.6513C98.2552 53.6513 98.2538 53.6513 98.2523 53.6513C98.2523 53.6513 98.2509 53.6513 98.2495 53.6513C98.248 53.6513 98.248 53.6513 98.2466 53.6513C98.2452 53.6513 98.2452 53.6513 98.2437 53.6513C98.2423 53.6513 98.2409 53.6513 98.2409 53.6513C98.2394 53.6513 98.238 53.6513 98.238 53.6513C98.2366 53.6513 98.2351 53.6513 98.2337 53.6513C98.2337 53.6513 98.2323 53.6513 98.2308 53.6513C98.2308 53.6513 98.2294 53.6513 98.228 53.6513C98.2265 53.6513 98.2266 53.6513 98.2251 53.6513C98.2237 53.6513 98.2237 53.6513 98.2223 53.6513C98.2208 53.6513 98.2194 53.6513 98.2194 53.6513C98.218 53.6513 98.2165 53.6513 98.2165 53.6513C98.2151 53.6513 98.2137 53.6513 98.2122 53.6513C98.2122 53.6513 98.2108 53.6513 98.2094 53.6513C98.2094 53.6513 98.2079 53.6513 98.2065 53.6513C98.2051 53.6513 98.2051 53.6513 98.2036 53.6513C98.2022 53.6513 98.2022 53.6513 98.2008 53.6513C98.1993 53.6513 98.1979 53.6513 98.1979 53.6513C98.1965 53.6513 98.195 53.6513 98.195 53.6513C98.1936 53.6513 98.1922 53.6513 98.1907 53.6513C98.1907 53.6513 98.1893 53.6513 98.1879 53.6513C98.1879 53.6513 98.1864 53.6513 98.185 53.6513C98.1836 53.6513 98.1836 53.6513 98.1821 53.6513C98.1807 53.6513 98.1793 53.6513 98.1793 53.6513C98.1778 53.6513 98.1764 53.6513 98.1764 53.6513C98.175 53.6513 98.1735 53.6513 98.1721 53.6513C98.1721 53.6513 98.1707 53.6513 98.1692 53.6513C98.1692 53.6513 98.1678 53.6513 98.1664 53.6513C98.1649 53.6513 98.165 53.6513 98.1635 53.6513C98.1621 53.6513 98.1621 53.6513 98.1607 53.6513C98.1592 53.6513 98.1578 53.6513 98.1578 53.6513C98.1564 53.6513 98.1549 53.6513 98.1549 53.6513C98.1535 53.6513 98.1521 53.6513 98.1506 53.6513C98.1506 53.6513 98.1492 53.6513 98.1478 53.6513C98.1463 53.6513 98.1463 53.6513 98.1449 53.6513C98.1435 53.6513 98.1435 53.6513 98.142 53.6513C98.1406 53.6513 98.1392 53.6513 98.1392 53.6513C98.1377 53.6513 98.1363 53.6513 98.1363 53.6513C98.1349 53.6513 98.1334 53.6513 98.132 53.6513C98.132 53.6513 98.1306 53.6513 98.1291 53.6513C98.1277 53.6513 98.1277 53.6513 98.1263 53.6513C98.1248 53.6513 98.1248 53.6513 98.1234 53.6513C98.122 53.6513 98.1205 53.6513 98.1205 53.6513C98.1191 53.6513 98.1177 53.6513 98.1177 53.6513C98.1162 53.6513 98.1148 53.6513 98.1134 53.6513C98.1134 53.6513 98.1119 53.6513 98.1105 53.6513C98.1091 53.6513 98.1091 53.6513 98.1076 53.6513C98.1062 53.6513 98.1062 53.6513 98.1048 53.6513C98.1034 53.6513 98.1019 53.6513 98.1019 53.6513C98.1005 53.6513 98.0991 53.6513 98.0991 53.6513C98.0976 53.6513 98.0962 53.6513 98.0948 53.6513C98.0948 53.6513 98.0933 53.6513 98.0919 53.6513C98.0905 53.6513 98.0905 53.6513 98.089 53.6513C98.0876 53.6513 98.0876 53.6513 98.0862 53.6513C98.0847 53.6513 98.0833 53.6513 98.0833 53.6513C98.0819 53.6513 98.0804 53.6513 98.079 53.6513C98.079 53.6513 98.0776 53.6513 98.0761 53.6513C98.0761 53.6513 98.0747 53.6513 98.0733 53.6513C98.0718 53.6513 98.0718 53.6513 98.0704 53.6513C98.069 53.6513 98.0675 53.6513 98.0675 53.6513C98.0661 53.6513 98.0647 53.6513 98.0647 53.6513C98.0632 53.6513 98.0618 53.6513 98.0604 53.6513C98.0604 53.6513 98.0589 53.6513 98.0575 53.6513C98.0561 53.6513 98.0561 53.6513 98.0546 53.6513C98.0532 53.6513 98.0532 53.6513 98.0518 53.6513C98.0503 53.6513 98.0489 53.6513 98.0489 53.6513C98.0475 53.6513 98.046 53.6513 98.0446 53.6513C98.0446 53.6513 98.0432 53.6513 98.0417 53.6513C98.0417 53.6513 98.0403 53.6513 98.0389 53.6513C98.0374 53.6513 98.0374 53.6513 98.036 53.6513C98.0346 53.6513 98.0332 53.6513 98.0332 53.6513C98.0317 53.6513 98.0303 53.6513 98.0303 53.6513C98.0289 53.6513 98.0274 53.6513 98.026 53.6513C98.026 53.6513 98.0246 53.6513 98.0231 53.6513C98.0217 53.6513 98.0217 53.6513 98.0203 53.6513C98.0188 53.6513 98.0188 53.6513 98.0174 53.6513C98.016 53.6513 98.0145 53.6513 98.0145 53.6513C98.0131 53.6513 98.0117 53.6513 98.0102 53.6513C98.0102 53.6513 98.0088 53.6513 98.0074 53.6513C98.0074 53.6513 98.0059 53.6513 98.0045 53.6513C98.0031 53.6513 98.0031 53.6513 98.0016 53.6513C98.0002 53.6513 97.9988 53.6513 97.9988 53.6513C97.9973 53.6513 97.9959 53.6513 97.9945 53.6513C97.9945 53.6513 97.9931 53.6513 97.9916 53.6513C97.9916 53.6513 97.9902 53.6513 97.9888 53.6513C97.9873 53.6513 97.9873 53.6513 97.9859 53.6513C97.9845 53.6513 97.983 53.6513 97.983 53.6513C97.9816 53.6513 97.9802 53.6513 97.9787 53.6513C97.9787 53.6513 97.9773 53.6513 97.9759 53.6513C97.9759 53.6513 97.9744 53.6513 97.973 53.6513C97.9716 53.6513 97.9716 53.6513 97.9701 53.6513C97.9687 53.6513 97.9673 53.6513 97.9673 53.6513C97.9658 53.6513 97.9644 53.6513 97.9644 53.6513C97.9629 53.6513 97.9615 53.6513 97.9601 53.6513C97.9601 53.6513 97.9587 53.6513 97.9572 53.6513C97.9558 53.6513 97.9558 53.6513 97.9544 53.6513C97.9529 53.6513 97.9515 53.6513 97.9515 53.6513C97.9501 53.6513 97.9486 53.6513 97.9472 53.6513C97.9472 53.6513 97.9458 53.6513 97.9443 53.6513C97.9443 53.6513 97.9429 53.6513 97.9415 53.6513C97.94 53.6513 97.94 53.6513 97.9386 53.6513C97.9372 53.6513 97.9357 53.6513 97.9357 53.6513C97.9343 53.6513 97.9329 53.6513 97.9314 53.6513C97.9314 53.6513 97.93 53.6513 97.9286 53.6513C97.9286 53.6513 97.9271 53.6513 97.9257 53.6513C97.9243 53.6513 97.9243 53.6513 97.9229 53.6513C97.9214 53.6513 97.92 53.6513 97.92 53.6513C97.9186 53.6513 97.9171 53.6513 97.9157 53.6513C97.9157 53.6513 97.9142 53.6513 97.9128 53.6513C97.9114 53.6513 97.9114 53.6513 97.91 53.6513C97.9085 53.6513 97.9085 53.6513 97.9071 53.6513C97.9057 53.6513 97.9042 53.6513 97.9042 53.6513C97.9028 53.6513 97.9014 53.6513 97.8999 53.6513C97.8999 53.6513 97.8985 53.6513 97.8971 53.6513C97.8956 53.6513 97.8956 53.6513 97.8942 53.6513C97.8928 53.6513 97.8913 53.6513 97.8913 53.6513C97.8899 53.6513 97.8885 53.6513 97.8885 53.6513C97.887 53.6513 97.8856 53.6513 97.8842 53.6513C97.8842 53.6513 97.8827 53.6513 97.8813 53.6513C97.8799 53.6513 97.8799 53.6513 97.8784 53.6513C97.877 53.6513 97.8756 53.6513 97.8756 53.6513C97.8741 53.6513 97.8727 53.6513 97.8713 53.6513C97.8713 53.6513 97.8699 53.6513 97.8684 53.6513C97.867 53.6513 97.867 53.6513 97.8655 53.6513C97.8641 53.6513 97.8641 53.6513 97.8627 53.6513C97.8612 53.6513 97.8598 53.6513 97.8598 53.6513C97.8584 53.6513 97.857 53.6513 97.8555 53.6513C97.8555 53.6513 97.8541 53.6513 97.8527 53.6513C97.8512 53.6513 97.8512 53.6513 97.8498 53.6513C97.8484 53.6513 97.8469 53.6513 97.8469 53.6513C97.8455 53.6513 97.8441 53.6513 97.8426 53.6513C97.8426 53.6513 97.8412 53.6513 97.8398 53.6513C97.8383 53.6513 97.8383 53.6513 97.8369 53.6513C97.8355 53.6513 97.834 53.6513 97.834 53.6513C97.8326 53.6513 97.8312 53.6513 97.8312 53.6513C97.8297 53.6513 97.8283 53.6513 97.8269 53.6513C97.8269 53.6513 97.8254 53.6513 97.824 53.6513C97.8226 53.6513 97.8226 53.6513 97.8211 53.6513C97.8197 53.6513 97.8183 53.6513 97.8183 53.6513C97.8168 53.6513 97.8154 53.6513 97.814 53.6513C97.814 53.6513 97.8125 53.6513 97.8111 53.6513C97.8097 53.6513 97.8097 53.6513 97.8082 53.6513C97.8068 53.6513 97.8054 53.6513 97.8054 53.6513C97.8039 53.6513 97.8025 53.6513 97.8011 53.6513C97.8011 53.6513 97.7996 53.6513 97.7982 53.6513C97.7968 53.6513 97.7968 53.6513 97.7953 53.6513C97.7939 53.6513 97.7925 53.6513 97.7925 53.6513C97.7911 53.6513 97.7896 53.6513 97.7896 53.6513C97.7882 53.6513 97.7867 53.6513 97.7853 53.6513C97.7853 53.6513 97.7839 53.6513 97.7824 53.6513C97.781 53.6513 97.781 53.6513 97.7796 53.6513C97.7782 53.6513 97.7767 53.6513 97.7767 53.6513C97.7753 53.6513 97.7739 53.6513 97.7724 53.6513C97.7724 53.6513 97.771 53.6513 97.7696 53.6513C97.7681 53.6513 97.7681 53.6513 97.7667 53.6513C97.7653 53.6513 97.7638 53.6513 97.7638 53.6513C97.7624 53.6513 97.761 53.6513 97.7595 53.6513C97.7595 53.6513 97.7581 53.6513 97.7567 53.6513C97.7552 53.6513 97.7552 53.6513 97.7538 53.6513C97.7524 53.6513 97.751 53.6513 97.751 53.6513C97.7495 53.6513 97.7481 53.6513 97.7466 53.6513C97.7466 53.6513 97.7452 53.6513 97.7438 53.6513C97.7423 53.6513 97.7423 53.6513 97.7409 53.6513C97.7395 53.6513 97.7381 53.6513 97.7381 53.6513C97.7366 53.6513 97.7352 53.6513 97.7337 53.6513C97.7337 53.6513 97.7323 53.6513 97.7309 53.6513C97.7295 53.6513 97.7295 53.6513 97.728 53.6513C97.7266 53.6513 97.7252 53.6513 97.7252 53.6513C97.7237 53.6513 97.7223 53.6513 97.7209 53.6513C97.7209 53.6513 97.7194 53.6513 97.718 53.6513C97.7166 53.6513 97.7166 53.6513 97.7151 53.6513C97.7137 53.6513 97.7123 53.6513 97.7123 53.6513C97.7108 53.6513 97.7094 53.6513 97.708 53.6513C97.708 53.6513 97.7065 53.6513 97.7051 53.6513C97.7037 53.6513 97.7037 53.6513 97.7022 53.6513C97.7008 53.6513 97.6994 53.6513 97.6994 53.6513C97.6979 53.6513 97.6965 53.6513 97.6951 53.6513C97.6951 53.6513 97.6936 53.6513 97.6922 53.6513C97.6908 53.6513 97.6908 53.6513 97.6894 53.6513C97.6879 53.6513 97.6865 53.6513 97.6865 53.6513C97.685 53.6513 97.6836 53.6513 97.6822 53.6513C97.6822 53.6513 97.6808 53.6513 97.6793 53.6513C97.6779 53.6513 97.6779 53.6513 97.6765 53.6513C97.675 53.6513 97.6736 53.6513 97.6736 53.6513C97.6722 53.6513 97.6707 53.6513 97.6693 53.6513C97.6693 53.6513 97.6679 53.6513 97.6664 53.6513C97.665 53.6513 97.665 53.6513 97.6636 53.6513C97.6621 53.6513 97.6607 53.6513 97.6607 53.6513C97.6593 53.6513 97.6578 53.6513 97.6564 53.6513C97.6564 53.6513 97.655 53.6513 97.6535 53.6513C97.6521 53.6513 97.6521 53.6513 97.6507 53.6513C97.6492 53.6513 97.6478 53.6513 97.6478 53.6513C97.6464 53.6513 97.6449 53.6513 97.6435 53.6513C97.6421 53.6513 97.6421 53.6513 97.6406 53.6513C97.6392 53.6513 97.6378 53.6513 97.6378 53.6513C97.6363 53.6513 97.6349 53.6513 97.6335 53.6513C97.6335 53.6513 97.632 53.6513 97.6306 53.6513C97.6292 53.6513 97.6292 53.6513 97.6278 53.6513C97.6263 53.6513 97.6249 53.6513 97.6249 53.6513C97.6234 53.6513 97.622 53.6513 97.6206 53.6513C97.6206 53.6513 97.6192 53.6513 97.6177 53.6513C97.6163 53.6513 97.6163 53.6513 97.6149 53.6513C97.6134 53.6513 97.612 53.6513 97.612 53.6513C97.6106 53.6513 97.6091 53.6513 97.6077 53.6513C97.6077 53.6513 97.6063 53.6513 97.6048 53.6513C97.6034 53.6513 97.6034 53.6513 97.602 53.6513C97.6005 53.6513 97.5991 53.6513 97.5977 53.6513C97.5977 53.6513 97.5962 53.6513 97.5948 53.6513C97.5934 53.6513 97.5934 53.6513 97.5919 53.6513C97.5905 53.6513 97.5891 53.6513 97.5891 53.6513C97.5876 53.6513 97.5862 53.6513 97.5848 53.6513C97.5848 53.6513 97.5833 53.6513 97.5819 53.6513C97.5805 53.6513 97.5805 53.6513 97.579 53.6513C97.5776 53.6513 97.5762 53.6513 97.5762 53.6513C97.5747 53.6513 97.5733 53.6513 97.5719 53.6513C97.5704 53.6513 97.5704 53.6513 97.569 53.6513C97.5676 53.6513 97.5661 53.6513 97.5661 53.6513C97.5647 53.6513 97.5633 53.6513 97.5618 53.6513C97.5618 53.6513 97.5604 53.6513 97.559 53.6513C97.5576 53.6513 97.5576 53.6513 97.5561 53.6513C97.5547 53.6513 97.5533 53.6513 97.5533 53.6513C97.5518 53.6513 97.5504 53.6513 97.549 53.6513C97.549 53.6513 97.5475 53.6513 97.5461 53.6513C97.5447 53.6513 97.5432 53.6513 97.5432 53.6513C97.5418 53.6513 97.5403 53.6513 97.5389 53.6513C97.5389 53.6513 97.5375 53.6513 97.5361 53.6513C97.5346 53.6513 97.5346 53.6513 97.5332 53.6513C97.5318 53.6513 97.5303 53.6513 97.5303 53.6513C97.5289 53.6513 97.5275 53.6513 97.526 53.6513C97.526 53.6513 97.5246 53.6513 97.5232 53.6513C97.5217 53.6513 97.5203 53.6513 97.5203 53.6513C97.5189 53.6513 97.5174 53.6513 97.516 53.6513C97.516 53.6513 97.5146 53.6513 97.5131 53.6513C97.5117 53.6513 97.5117 53.6513 97.5103 53.6513C97.5088 53.6513 97.5074 53.6513 97.5074 53.6513C97.506 53.6513 97.5045 53.6513 97.5031 53.6513C97.5017 53.6513 97.5017 53.6513 97.5002 53.6513C97.4988 53.6513 97.4974 53.6513 97.4974 53.6513C97.496 53.6513 97.4945 53.6513 97.4931 53.6513C97.4931 53.6513 97.4916 53.6513 97.4902 53.6513C97.4888 53.6513 97.4888 53.6513 97.4874 53.6513C97.4859 53.6513 97.4845 53.6513 97.483 53.6513C97.483 53.6513 97.4816 53.6513 97.4802 53.6513C97.4787 53.6513 97.4788 53.6513 97.4773 53.6513C97.4759 53.6513 97.4745 53.6513 97.4745 53.6513C97.473 53.6513 97.4716 53.6513 97.4702 53.6513C97.4702 53.6513 97.4687 53.6513 97.4673 53.6513C97.4659 53.6513 97.4644 53.6513 97.4644 53.6513C97.463 53.6513 97.4616 53.6513 97.4601 53.6513C97.4601 53.6513 97.4587 53.6513 97.4573 53.6513C97.4558 53.6513 97.4558 53.6513 97.4544 53.6513C97.453 53.6513 97.4515 53.6513 97.4501 53.6513C97.4501 53.6513 97.4487 53.6513 97.4472 53.6513C97.4458 53.6513 97.4458 53.6513 97.4444 53.6513C97.4429 53.6513 97.4415 53.6513 97.4415 53.6513C97.4401 53.6513 97.4386 53.6513 97.4372 53.6513C97.4358 53.6513 97.4358 53.6513 97.4343 53.6513C97.4329 53.6513 97.4315 53.6513 97.4315 53.6513C97.43 53.6513 97.4286 53.6513 97.4272 53.6513C97.4272 53.6513 97.4257 53.6513 97.4243 53.6513C97.4229 53.6513 97.4214 53.6513 97.4214 53.6513C97.42 53.6513 97.4186 53.6513 97.4172 53.6513C97.4172 53.6513 97.4157 53.6513 97.4143 53.6513C97.4129 53.6513 97.4129 53.6513 97.4114 53.6513C97.41 53.6513 97.4086 53.6513 97.4071 53.6513C97.4071 53.6513 97.4057 53.6513 97.4043 53.6513C97.4028 53.6513 97.4028 53.6513 97.4014 53.6513C97.4 53.6513 97.3985 53.6513 97.3985 53.6513C97.3971 53.6513 97.3957 53.6513 97.3942 53.6513C97.3928 53.6513 97.3928 53.6513 97.3914 53.6513C97.3899 53.6513 97.3885 53.6513 97.3885 53.6513C97.3871 53.6513 97.3856 53.6513 97.3842 53.6513C97.3842 53.6513 97.3828 53.6513 97.3813 53.6513C97.3799 53.6513 97.3785 53.6513 97.3785 53.6513C97.377 53.6513 97.3756 53.6513 97.3742 53.6513C97.3742 53.6513 97.3728 53.6513 97.3713 53.6513C97.3699 53.6513 97.3684 53.6513 97.3684 53.6513C97.367 53.6513 97.3656 53.6513 97.3642 53.6513C97.3642 53.6513 97.3627 53.6513 97.3613 53.6513C97.3599 53.6513 97.3599 53.6513 97.3584 53.6513C97.357 53.6513 97.3556 53.6513 97.3541 53.6513C97.3541 53.6513 97.3527 53.6513 97.3513 53.6513C97.3498 53.6513 97.3498 53.6513 97.3484 53.6513C97.347 53.6513 97.3455 53.6513 97.3441 53.6513C97.3441 53.6513 97.3427 53.6513 97.3412 53.6513C97.3398 53.6513 97.3398 53.6513 97.3384 53.6513C97.3369 53.6513 97.3355 53.6513 97.3341 53.6513C97.3341 53.6513 97.3326 53.6513 97.3312 53.6513C97.3298 53.6513 97.3298 53.6513 97.3283 53.6513C97.3269 53.6513 97.3255 53.6513 97.324 53.6513C97.324 53.6513 97.3226 53.6513 97.3212 53.6513C97.3197 53.6513 97.3197 53.6513 97.3183 53.6513C97.3169 53.6513 97.3155 53.6513 97.3155 53.6513C97.314 53.6513 97.3126 53.6513 97.3111 53.6513C97.3097 53.6513 97.3097 53.6513 97.3083 53.6513C97.3068 53.6513 97.3054 53.6513 97.3054 53.6513C97.304 53.6513 97.3025 53.6513 97.3011 53.6513C97.2997 53.6513 97.2997 53.6513 97.2982 53.6513C97.2968 53.6513 97.2954 53.6513 97.2954 53.6513C97.294 53.6513 97.2925 53.6513 97.2911 53.6513C97.2897 53.6513 97.2896 53.6513 97.2882 53.6513C97.2868 53.6513 97.2854 53.6513 97.2854 53.6513C97.2839 53.6513 97.2825 53.6513 97.2811 53.6513C97.2796 53.6513 97.2796 53.6513 97.2782 53.6513C97.2768 53.6513 97.2753 53.6513 97.2739 53.6513C97.2739 53.6513 97.2725 53.6513 97.271 53.6513C97.2696 53.6513 97.2696 53.6513 97.2682 53.6513C97.2667 53.6513 97.2653 53.6513 97.2639 53.6513C97.2639 53.6513 97.2624 53.6513 97.261 53.6513C97.2596 53.6513 97.2596 53.6513 97.2581 53.6513C97.2567 53.6513 97.2553 53.6513 97.2539 53.6513C97.2539 53.6513 97.2524 53.6513 97.251 53.6513C97.2496 53.6513 97.2495 53.6513 97.2481 53.6513C97.2467 53.6513 97.2453 53.6513 97.2438 53.6513C97.2438 53.6513 97.2424 53.6513 97.241 53.6513C97.2395 53.6513 97.2395 53.6513 97.2381 53.6513C97.2367 53.6513 97.2352 53.6513 97.2338 53.6513C97.2338 53.6513 97.2324 53.6513 97.2309 53.6513C97.2295 53.6513 97.2281 53.6513 97.2281 53.6513C97.2266 53.6513 97.2252 53.6513 97.2238 53.6513C97.2238 53.6513 97.2223 53.6513 97.2209 53.6513C97.2195 53.6513 97.218 53.6513 97.218 53.6513C97.2166 53.6513 97.2152 53.6513 97.2137 53.6513C97.2137 53.6513 97.2123 53.6513 97.2109 53.6513C97.2094 53.6513 97.208 53.6513 97.208 53.6513C97.2066 53.6513 97.2051 53.6513 97.2037 53.6513C97.2023 53.6513 97.2023 53.6513 97.2008 53.6513C97.1994 53.6513 97.198 53.6513 97.198 53.6513C97.1965 53.6513 97.1951 53.6513 97.1937 53.6513C97.1922 53.6513 97.1922 53.6513 97.1908 53.6513C97.1894 53.6513 97.1879 53.6513 97.1879 53.6513C97.1865 53.6513 97.1851 53.6513 97.1836 53.6513C97.1822 53.6513 97.1822 53.6513 97.1808 53.6513C97.1793 53.6513 97.1779 53.6513 97.1765 53.6513C97.1765 53.6513 97.1751 53.6513 97.1736 53.6513C97.1722 53.6513 97.1722 53.6513 97.1708 53.6513C97.1693 53.6513 97.1679 53.6513 97.1665 53.6513C97.1665 53.6513 97.165 53.6513 97.1636 53.6513C97.1622 53.6513 97.1607 53.6513 97.1607 53.6513C97.1593 53.6513 97.1579 53.6513 97.1564 53.6513C97.155 53.6513 97.155 53.6513 97.1536 53.6513C97.1521 53.6513 97.1507 53.6513 97.1507 53.6513C97.1493 53.6513 97.1478 53.6513 97.1464 53.6513C97.145 53.6513 97.145 53.6513 97.1435 53.6513C97.1421 53.6513 97.1407 53.6513 97.1392 53.6513C97.1392 53.6513 97.1378 53.6513 97.1364 53.6513C97.1349 53.6513 97.135 53.6513 97.1335 53.6513C97.1321 53.6513 97.1306 53.6513 97.1292 53.6513C97.1292 53.6513 97.1278 53.6513 97.1263 53.6513C97.1249 53.6513 97.1235 53.6513 97.1235 53.6513C97.1221 53.6513 97.1206 53.6513 97.1192 53.6513C97.1177 53.6513 97.1177 53.6513 97.1163 53.6513C97.1149 53.6513 97.1135 53.6513 97.1135 53.6513C97.112 53.6513 97.1106 53.6513 97.1091 53.6513C97.1077 53.6513 97.1077 53.6513 97.1063 53.6513C97.1048 53.6513 97.1034 53.6513 97.102 53.6513C97.102 53.6513 97.1006 53.6513 97.0991 53.6513C97.0977 53.6513 97.0963 53.6513 97.0963 53.6513C97.0948 53.6513 97.0934 53.6513 97.092 53.6513C97.092 53.6513 97.0905 53.6513 97.0891 53.6513C97.0877 53.6513 97.0862 53.6513 97.0862 53.6513C97.0848 53.6513 97.0834 53.6513 97.0819 53.6513C97.0805 53.6513 97.0805 53.6513 97.0791 53.6513C97.0776 53.6513 97.0762 53.6513 97.0748 53.6513C97.0748 53.6513 97.0734 53.6513 97.0719 53.6513C97.0705 53.6513 97.069 53.6513 97.069 53.6513C97.0676 53.6513 97.0662 53.6513 97.0647 53.6513C97.0647 53.6513 97.0633 53.6513 97.0619 53.6513C97.0605 53.6513 97.059 53.6513 97.059 53.6513C97.0576 53.6513 97.0561 53.6513 97.0547 53.6513C97.0533 53.6513 97.0533 53.6513 97.0519 53.6513C97.0504 53.6513 97.049 53.6513 97.0475 53.6513C97.0475 53.6513 97.0461 53.6513 97.0447 53.6513C97.0433 53.6513 97.0418 53.6513 97.0418 53.6513C97.0404 53.6513 97.039 53.6513 97.0375 53.6513C97.0361 53.6513 97.0361 53.6513 97.0347 53.6513C97.0332 53.6513 97.0318 53.6513 97.0318 53.6513C97.0304 53.6513 97.0289 53.6513 97.0275 53.6513C97.0261 53.6513 97.0261 53.6513 97.0246 53.6513C97.0232 53.6513 97.0218 53.6513 97.0203 53.6513C97.0203 53.6513 97.0189 53.6513 97.0175 53.6513C97.016 53.6513 97.0146 53.6513 97.0146 53.6513C97.0132 53.6513 97.0117 53.6513 97.0103 53.6513C97.0089 53.6513 97.0089 53.6513 97.0074 53.6513C97.006 53.6513 97.0046 53.6513 97.0032 53.6513C97.0032 53.6513 97.0017 53.6513 97.0003 53.6513C96.9989 53.6513 96.9974 53.6513 96.9974 53.6513C96.996 53.6513 96.9945 53.6513 96.9931 53.6513C96.9917 53.6513 96.9917 53.6513 96.9903 53.6513C96.9888 53.6513 96.9874 53.6513 96.9859 53.6513C96.9859 53.6513 96.9845 53.6513 96.9831 53.6513C96.9817 53.6513 96.9802 53.6513 96.9802 53.6513C96.9788 53.6513 96.9774 53.6513 96.9759 53.6513C96.9745 53.6513 96.9745 53.6513 96.9731 53.6513C96.9716 53.6513 96.9702 53.6513 96.9688 53.6513C96.9688 53.6513 96.9673 53.6513 96.9659 53.6513C96.9645 53.6513 96.963 53.6513 96.963 53.6513C96.9616 53.6513 96.9602 53.6513 96.9587 53.6513C96.9573 53.6513 96.9573 53.6513 96.9559 53.6513C96.9544 53.6513 96.953 53.6513 96.9516 53.6513C96.9516 53.6513 96.9501 53.6513 96.9487 53.6513C96.9473 53.6513 96.9458 53.6513 96.9458 53.6513C96.9444 53.6513 96.943 53.6513 96.9416 53.6513C96.9401 53.6513 96.9401 53.6513 96.9387 53.6513C96.9373 53.6513 96.9358 53.6513 96.9344 53.6513C96.9344 53.6513 96.933 53.6513 96.9315 53.6513C96.9301 53.6513 96.9287 53.6513 96.9287 53.6513C96.9272 53.6513 96.9258 53.6513 96.9243 53.6513C96.9229 53.6513 96.9229 53.6513 96.9215 53.6513C96.9201 53.6513 96.9186 53.6513 96.9172 53.6513C96.9172 53.6513 96.9158 53.6513 96.9143 53.6513C96.9129 53.6513 96.9115 53.6513 96.9115 53.6513C96.91 53.6513 96.9086 53.6513 96.9072 53.6513C96.9057 53.6513 96.9057 53.6513 96.9043 53.6513C96.9029 53.6513 96.9014 53.6513 96.9 53.6513C96.9 53.6513 96.8986 53.6513 96.8971 53.6513C96.8957 53.6513 96.8943 53.6513 96.8943 53.6513C96.8928 53.6513 96.8914 53.6513 96.89 53.6513C96.8885 53.6513 96.8885 53.6513 96.8871 53.6513C96.8857 53.6513 96.8842 53.6513 96.8828 53.6513C96.8828 53.6513 96.8814 53.6513 96.88 53.6513C96.8785 53.6513 96.8771 53.6513 96.8771 53.6513C96.8757 53.6513 96.8742 53.6513 96.8728 53.6513C96.8714 53.6513 96.8714 53.6513 96.8699 53.6513C96.8685 53.6513 96.867 53.6513 96.8656 53.6513C96.8656 53.6513 96.8642 53.6513 96.8627 53.6513C96.8613 53.6513 96.8599 53.6513 96.8585 53.6513C96.8585 53.6513 96.857 53.6513 96.8556 53.6513C96.8542 53.6513 96.8527 53.6513 96.8527 53.6513C96.8513 53.6513 96.8499 53.6513 96.8484 53.6513C96.847 53.6513 96.847 53.6513 96.8456 53.6513C96.8441 53.6513 96.8427 53.6513 96.8413 53.6513C96.8413 53.6513 96.8398 53.6513 96.8384 53.6513C96.837 53.6513 96.8355 53.6513 96.8355 53.6513C96.8341 53.6513 96.8327 53.6513 96.8312 53.6513C96.8298 53.6513 96.8298 53.6513 96.8284 53.6513C96.8269 53.6513 96.8255 53.6513 96.8241 53.6513C96.8226 53.6513 96.8226 53.6513 96.8212 53.6513C96.8198 53.6513 96.8183 53.6513 96.8169 53.6513C96.8169 53.6513 96.8155 53.6513 96.814 53.6513C96.8126 53.6513 96.8112 53.6513 96.8112 53.6513C96.8098 53.6513 96.8083 53.6513 96.8069 53.6513C96.8054 53.6513 96.8054 53.6513 96.804 53.6513C96.8026 53.6513 96.8012 53.6513 96.7997 53.6513C96.7983 53.6513 96.7983 53.6513 96.7969 53.6513C96.7954 53.6513 96.794 53.6513 96.7926 53.6513C96.7926 53.6513 96.7911 53.6513 96.7897 53.6513C96.7883 53.6513 96.7868 53.6513 96.7868 53.6513C96.7854 53.6513 96.784 53.6513 96.7825 53.6513C96.7811 53.6513 96.7811 53.6513 96.7797 53.6513C96.7782 53.6513 96.7768 53.6513 96.7754 53.6513C96.7739 53.6513 96.7739 53.6513 96.7725 53.6513C96.7711 53.6513 96.7696 53.6513 96.7682 53.6513C96.7682 53.6513 96.7668 53.6513 96.7653 53.6513C96.7639 53.6513 96.7625 53.6513 96.7625 53.6513V67.9803C96.7625 67.9803 96.7639 67.9803 96.7653 67.9803C96.7668 67.9803 96.7682 67.9803 96.7682 67.9803C96.7696 67.9803 96.7711 67.9803 96.7725 67.9803C96.7739 67.9803 96.7739 67.9803 96.7754 67.9803C96.7768 67.9803 96.7782 67.9803 96.7797 67.9803C96.7811 67.9803 96.7811 67.9803 96.7825 67.9803C96.784 67.9803 96.7854 67.9803 96.7868 67.9803C96.7868 67.9803 96.7883 67.9803 96.7897 67.9803C96.7911 67.9803 96.7926 67.9803 96.7926 67.9803C96.794 67.9803 96.7954 67.9803 96.7969 67.9803C96.7983 67.9803 96.7983 67.9803 96.7997 67.9803C96.8012 67.9803 96.8026 67.9803 96.804 67.9803C96.8054 67.9803 96.8054 67.9803 96.8069 67.9803C96.8083 67.9803 96.8098 67.9803 96.8112 67.9803C96.8112 67.9803 96.8126 67.9803 96.814 67.9803C96.8155 67.9803 96.8169 67.9803 96.8169 67.9803C96.8183 67.9803 96.8198 67.9803 96.8212 67.9803C96.8226 67.9803 96.8226 67.9803 96.8241 67.9803C96.8255 67.9803 96.8269 67.9803 96.8284 67.9803C96.8298 67.9803 96.8298 67.9803 96.8312 67.9803C96.8327 67.9803 96.8341 67.9803 96.8355 67.9803C96.8355 67.9803 96.837 67.9803 96.8384 67.9803C96.8398 67.9803 96.8413 67.9803 96.8413 67.9803C96.8427 67.9803 96.8441 67.9803 96.8456 67.9803C96.847 67.9803 96.847 67.9803 96.8484 67.9803C96.8499 67.9803 96.8513 67.9803 96.8527 67.9803C96.8527 67.9803 96.8542 67.9803 96.8556 67.9803C96.857 67.9803 96.8585 67.9803 96.8585 67.9803C96.8599 67.9803 96.8613 67.9803 96.8627 67.9803C96.8642 67.9803 96.8656 67.9803 96.8656 67.9803C96.867 67.9803 96.8685 67.9803 96.8699 67.9803C96.8714 67.9803 96.8714 67.9803 96.8728 67.9803C96.8742 67.9803 96.8757 67.9803 96.8771 67.9803C96.8771 67.9803 96.8785 67.9803 96.88 67.9803C96.8814 67.9803 96.8828 67.9803 96.8828 67.9803C96.8842 67.9803 96.8857 67.9803 96.8871 67.9803C96.8885 67.9803 96.8885 67.9803 96.89 67.9803C96.8914 67.9803 96.8928 67.9803 96.8943 67.9803C96.8943 67.9803 96.8957 67.9803 96.8971 67.9803C96.8986 67.9803 96.9 67.9803 96.9 67.9803C96.9014 67.9803 96.9029 67.9803 96.9043 67.9803C96.9057 67.9803 96.9057 67.9803 96.9072 67.9803C96.9086 67.9803 96.91 67.9803 96.9115 67.9803C96.9115 67.9803 96.9129 67.9803 96.9143 67.9803C96.9158 67.9803 96.9172 67.9803 96.9172 67.9803C96.9186 67.9803 96.9201 67.9803 96.9215 67.9803C96.9229 67.9803 96.9229 67.9803 96.9243 67.9803C96.9258 67.9803 96.9272 67.9803 96.9287 67.9803C96.9287 67.9803 96.9301 67.9803 96.9315 67.9803C96.933 67.9803 96.9344 67.9803 96.9344 67.9803C96.9358 67.9803 96.9373 67.9803 96.9387 67.9803C96.9401 67.9803 96.9401 67.9803 96.9416 67.9803C96.943 67.9803 96.9444 67.9803 96.9458 67.9803C96.9458 67.9803 96.9473 67.9803 96.9487 67.9803C96.9501 67.9803 96.9516 67.9803 96.9516 67.9803C96.953 67.9803 96.9544 67.9803 96.9559 67.9803C96.9573 67.9803 96.9573 67.9803 96.9587 67.9803C96.9602 67.9803 96.9616 67.9803 96.963 67.9803C96.963 67.9803 96.9645 67.9803 96.9659 67.9803C96.9673 67.9803 96.9688 67.9803 96.9688 67.9803C96.9702 67.9803 96.9716 67.9803 96.9731 67.9803C96.9745 67.9803 96.9745 67.9803 96.9759 67.9803C96.9774 67.9803 96.9788 67.9803 96.9802 67.9803C96.9802 67.9803 96.9817 67.9803 96.9831 67.9803C96.9845 67.9803 96.9859 67.9803 96.9859 67.9803C96.9874 67.9803 96.9888 67.9803 96.9903 67.9803C96.9917 67.9803 96.9917 67.9803 96.9931 67.9803C96.9945 67.9803 96.996 67.9803 96.9974 67.9803C96.9974 67.9803 96.9989 67.9803 97.0003 67.9803C97.0017 67.9803 97.0032 67.9803 97.0032 67.9803C97.0046 67.9803 97.006 67.9803 97.0074 67.9803C97.0089 67.9803 97.0089 67.9803 97.0103 67.9803C97.0117 67.9803 97.0132 67.9803 97.0146 67.9803C97.0146 67.9803 97.016 67.9803 97.0175 67.9803C97.0189 67.9803 97.0203 67.9803 97.0203 67.9803C97.0218 67.9803 97.0232 67.9803 97.0246 67.9803C97.0261 67.9803 97.0261 67.9803 97.0275 67.9803C97.0289 67.9803 97.0304 67.9803 97.0318 67.9803C97.0318 67.9803 97.0332 67.9803 97.0347 67.9803C97.0361 67.9803 97.0361 67.9803 97.0375 67.9803C97.039 67.9803 97.0404 67.9803 97.0418 67.9803C97.0418 67.9803 97.0433 67.9803 97.0447 67.9803C97.0461 67.9803 97.0475 67.9803 97.0475 67.9803C97.049 67.9803 97.0504 67.9803 97.0519 67.9803C97.0533 67.9803 97.0533 67.9803 97.0547 67.9803C97.0561 67.9803 97.0576 67.9803 97.059 67.9803C97.059 67.9803 97.0605 67.9803 97.0619 67.9803C97.0633 67.9803 97.0647 67.9803 97.0647 67.9803C97.0662 67.9803 97.0676 67.9803 97.069 67.9803C97.069 67.9803 97.0705 67.9803 97.0719 67.9803C97.0734 67.9803 97.0748 67.9803 97.0748 67.9803C97.0762 67.9803 97.0776 67.9803 97.0791 67.9803C97.0805 67.9803 97.0805 67.9803 97.0819 67.9803C97.0834 67.9803 97.0848 67.9803 97.0862 67.9803C97.0862 67.9803 97.0877 67.9803 97.0891 67.9803C97.0905 67.9803 97.092 67.9803 97.092 67.9803C97.0934 67.9803 97.0948 67.9803 97.0963 67.9803C97.0963 67.9803 97.0977 67.9803 97.0991 67.9803C97.1006 67.9803 97.102 67.9803 97.102 67.9803C97.1034 67.9803 97.1048 67.9803 97.1063 67.9803C97.1077 67.9803 97.1077 67.9803 97.1091 67.9803C97.1106 67.9803 97.112 67.9803 97.1135 67.9803C97.1135 67.9803 97.1149 67.9803 97.1163 67.9803C97.1177 67.9803 97.1177 67.9803 97.1192 67.9803C97.1206 67.9803 97.1221 67.9803 97.1235 67.9803C97.1235 67.9803 97.1249 67.9803 97.1263 67.9803C97.1278 67.9803 97.1292 67.9803 97.1292 67.9803C97.1306 67.9803 97.1321 67.9803 97.1335 67.9803C97.135 67.9803 97.1349 67.9803 97.1364 67.9803C97.1378 67.9803 97.1392 67.9803 97.1392 67.9803C97.1407 67.9803 97.1421 67.9803 97.1435 67.9803C97.145 67.9803 97.145 67.9803 97.1464 67.9803C97.1478 67.9803 97.1493 67.9803 97.1507 67.9803C97.1507 67.9803 97.1521 67.9803 97.1536 67.9803C97.155 67.9803 97.155 67.9803 97.1564 67.9803C97.1579 67.9803 97.1593 67.9803 97.1607 67.9803C97.1607 67.9803 97.1622 67.9803 97.1636 67.9803C97.165 67.9803 97.1665 67.9803 97.1665 67.9803C97.1679 67.9803 97.1693 67.9803 97.1708 67.9803C97.1722 67.9803 97.1722 67.9803 97.1736 67.9803C97.1751 67.9803 97.1765 67.9803 97.1765 67.9803C97.1779 67.9803 97.1793 67.9803 97.1808 67.9803C97.1822 67.9803 97.1822 67.9803 97.1836 67.9803C97.1851 67.9803 97.1865 67.9803 97.1879 67.9803C97.1879 67.9803 97.1894 67.9803 97.1908 67.9803C97.1922 67.9803 97.1922 67.9803 97.1937 67.9803C97.1951 67.9803 97.1965 67.9803 97.198 67.9803C97.198 67.9803 97.1994 67.9803 97.2008 67.9803C97.2023 67.9803 97.2023 67.9803 97.2037 67.9803C97.2051 67.9803 97.2066 67.9803 97.208 67.9803C97.208 67.9803 97.2094 67.9803 97.2109 67.9803C97.2123 67.9803 97.2137 67.9803 97.2137 67.9803C97.2152 67.9803 97.2166 67.9803 97.218 67.9803C97.218 67.9803 97.2195 67.9803 97.2209 67.9803C97.2223 67.9803 97.2238 67.9803 97.2238 67.9803C97.2252 67.9803 97.2266 67.9803 97.2281 67.9803C97.2281 67.9803 97.2295 67.9803 97.2309 67.9803C97.2324 67.9803 97.2338 67.9803 97.2338 67.9803C97.2352 67.9803 97.2367 67.9803 97.2381 67.9803C97.2395 67.9803 97.2395 67.9803 97.241 67.9803C97.2424 67.9803 97.2438 67.9803 97.2438 67.9803C97.2453 67.9803 97.2467 67.9803 97.2481 67.9803C97.2495 67.9803 97.2496 67.9803 97.251 67.9803C97.2524 67.9803 97.2539 67.9803 97.2539 67.9803C97.2553 67.9803 97.2567 67.9803 97.2581 67.9803C97.2596 67.9803 97.2596 67.9803 97.261 67.9803C97.2624 67.9803 97.2639 67.9803 97.2639 67.9803C97.2653 67.9803 97.2667 67.9803 97.2682 67.9803C97.2696 67.9803 97.2696 67.9803 97.271 67.9803C97.2725 67.9803 97.2739 67.9803 97.2739 67.9803C97.2753 67.9803 97.2768 67.9803 97.2782 67.9803C97.2796 67.9803 97.2796 67.9803 97.2811 67.9803C97.2825 67.9803 97.2839 67.9803 97.2854 67.9803C97.2854 67.9803 97.2868 67.9803 97.2882 67.9803C97.2896 67.9803 97.2897 67.9803 97.2911 67.9803C97.2925 67.9803 97.294 67.9803 97.2954 67.9803C97.2954 67.9803 97.2968 67.9803 97.2982 67.9803C97.2997 67.9803 97.2997 67.9803 97.3011 67.9803C97.3025 67.9803 97.304 67.9803 97.3054 67.9803C97.3054 67.9803 97.3068 67.9803 97.3083 67.9803C97.3097 67.9803 97.3097 67.9803 97.3111 67.9803C97.3126 67.9803 97.314 67.9803 97.3155 67.9803C97.3155 67.9803 97.3169 67.9803 97.3183 67.9803C97.3197 67.9803 97.3197 67.9803 97.3212 67.9803C97.3226 67.9803 97.324 67.9803 97.324 67.9803C97.3255 67.9803 97.3269 67.9803 97.3283 67.9803C97.3298 67.9803 97.3298 67.9803 97.3312 67.9803C97.3326 67.9803 97.3341 67.9803 97.3341 67.9803C97.3355 67.9803 97.3369 67.9803 97.3384 67.9803C97.3398 67.9803 97.3398 67.9803 97.3412 67.9803C97.3427 67.9803 97.3441 67.9803 97.3441 67.9803C97.3455 67.9803 97.347 67.9803 97.3484 67.9803C97.3498 67.9803 97.3498 67.9803 97.3513 67.9803C97.3527 67.9803 97.3541 67.9803 97.3541 67.9803C97.3556 67.9803 97.357 67.9803 97.3584 67.9803C97.3599 67.9803 97.3599 67.9803 97.3613 67.9803C97.3627 67.9803 97.3642 67.9803 97.3642 67.9803C97.3656 67.9803 97.367 67.9803 97.3684 67.9803C97.3684 67.9803 97.3699 67.9803 97.3713 67.9803C97.3728 67.9803 97.3742 67.9803 97.3742 67.9803C97.3756 67.9803 97.377 67.9803 97.3785 67.9803C97.3785 67.9803 97.3799 67.9803 97.3813 67.9803C97.3828 67.9803 97.3842 67.9803 97.3842 67.9803C97.3856 67.9803 97.3871 67.9803 97.3885 67.9803C97.3885 67.9803 97.3899 67.9803 97.3914 67.9803C97.3928 67.9803 97.3928 67.9803 97.3942 67.9803C97.3957 67.9803 97.3971 67.9803 97.3985 67.9803C97.3985 67.9803 97.4 67.9803 97.4014 67.9803C97.4028 67.9803 97.4028 67.9803 97.4043 67.9803C97.4057 67.9803 97.4071 67.9803 97.4071 67.9803C97.4086 67.9803 97.41 67.9803 97.4114 67.9803C97.4129 67.9803 97.4129 67.9803 97.4143 67.9803C97.4157 67.9803 97.4172 67.9803 97.4172 67.9803C97.4186 67.9803 97.42 67.9803 97.4214 67.9803C97.4214 67.9803 97.4229 67.9803 97.4243 67.9803C97.4257 67.9803 97.4272 67.9803 97.4272 67.9803C97.4286 67.9803 97.43 67.9803 97.4315 67.9803C97.4315 67.9803 97.4329 67.9803 97.4343 67.9803C97.4358 67.9803 97.4358 67.9803 97.4372 67.9803C97.4386 67.9803 97.4401 67.9803 97.4415 67.9803C97.4415 67.9803 97.4429 67.9803 97.4444 67.9803C97.4458 67.9803 97.4458 67.9803 97.4472 67.9803C97.4487 67.9803 97.4501 67.9803 97.4501 67.9803C97.4515 67.9803 97.453 67.9803 97.4544 67.9803C97.4558 67.9803 97.4558 67.9803 97.4573 67.9803C97.4587 67.9803 97.4601 67.9803 97.4601 67.9803C97.4616 67.9803 97.463 67.9803 97.4644 67.9803C97.4644 67.9803 97.4659 67.9803 97.4673 67.9803C97.4687 67.9803 97.4702 67.9803 97.4702 67.9803C97.4716 67.9803 97.473 67.9803 97.4745 67.9803C97.4745 67.9803 97.4759 67.9803 97.4773 67.9803C97.4788 67.9803 97.4787 67.9803 97.4802 67.9803C97.4816 67.9803 97.483 67.9803 97.483 67.9803C97.4845 67.9803 97.4859 67.9803 97.4874 67.9803C97.4888 67.9803 97.4888 67.9803 97.4902 67.9803C97.4916 67.9803 97.4931 67.9803 97.4931 67.9803C97.4945 67.9803 97.496 67.9803 97.4974 67.9803C97.4974 67.9803 97.4988 67.9803 97.5002 67.9803C97.5017 67.9803 97.5017 67.9803 97.5031 67.9803C97.5045 67.9803 97.506 67.9803 97.5074 67.9803C97.5074 67.9803 97.5088 67.9803 97.5103 67.9803C97.5117 67.9803 97.5117 67.9803 97.5131 67.9803C97.5146 67.9803 97.516 67.9803 97.516 67.9803C97.5174 67.9803 97.5189 67.9803 97.5203 67.9803C97.5203 67.9803 97.5217 67.9803 97.5232 67.9803C97.5246 67.9803 97.526 67.9803 97.526 67.9803C97.5275 67.9803 97.5289 67.9803 97.5303 67.9803C97.5303 67.9803 97.5318 67.9803 97.5332 67.9803C97.5346 67.9803 97.5346 67.9803 97.5361 67.9803C97.5375 67.9803 97.5389 67.9803 97.5389 67.9803C97.5403 67.9803 97.5418 67.9803 97.5432 67.9803C97.5432 67.9803 97.5447 67.9803 97.5461 67.9803C97.5475 67.9803 97.549 67.9803 97.549 67.9803C97.5504 67.9803 97.5518 67.9803 97.5533 67.9803C97.5533 67.9803 97.5547 67.9803 97.5561 67.9803C97.5576 67.9803 97.5576 67.9803 97.559 67.9803C97.5604 67.9803 97.5618 67.9803 97.5618 67.9803C97.5633 67.9803 97.5647 67.9803 97.5661 67.9803C97.5661 67.9803 97.5676 67.9803 97.569 67.9803C97.5704 67.9803 97.5704 67.9803 97.5719 67.9803C97.5733 67.9803 97.5747 67.9803 97.5762 67.9803C97.5762 67.9803 97.5776 67.9803 97.579 67.9803C97.5805 67.9803 97.5805 67.9803 97.5819 67.9803C97.5833 67.9803 97.5848 67.9803 97.5848 67.9803C97.5862 67.9803 97.5876 67.9803 97.5891 67.9803C97.5891 67.9803 97.5905 67.9803 97.5919 67.9803C97.5934 67.9803 97.5934 67.9803 97.5948 67.9803C97.5962 67.9803 97.5977 67.9803 97.5977 67.9803C97.5991 67.9803 97.6005 67.9803 97.602 67.9803C97.6034 67.9803 97.6034 67.9803 97.6048 67.9803C97.6063 67.9803 97.6077 67.9803 97.6077 67.9803C97.6091 67.9803 97.6106 67.9803 97.612 67.9803C97.612 67.9803 97.6134 67.9803 97.6149 67.9803C97.6163 67.9803 97.6163 67.9803 97.6177 67.9803C97.6192 67.9803 97.6206 67.9803 97.6206 67.9803C97.622 67.9803 97.6234 67.9803 97.6249 67.9803C97.6249 67.9803 97.6263 67.9803 97.6278 67.9803C97.6292 67.9803 97.6292 67.9803 97.6306 67.9803C97.632 67.9803 97.6335 67.9803 97.6335 67.9803C97.6349 67.9803 97.6363 67.9803 97.6378 67.9803C97.6378 67.9803 97.6392 67.9803 97.6406 67.9803C97.6421 67.9803 97.6421 67.9803 97.6435 67.9803C97.6449 67.9803 97.6464 67.9803 97.6478 67.9803C97.6478 67.9803 97.6492 67.9803 97.6507 67.9803C97.6521 67.9803 97.6521 67.9803 97.6535 67.9803C97.655 67.9803 97.6564 67.9803 97.6564 67.9803C97.6578 67.9803 97.6593 67.9803 97.6607 67.9803C97.6607 67.9803 97.6621 67.9803 97.6636 67.9803C97.665 67.9803 97.665 67.9803 97.6664 67.9803C97.6679 67.9803 97.6693 67.9803 97.6693 67.9803C97.6707 67.9803 97.6722 67.9803 97.6736 67.9803C97.6736 67.9803 97.675 67.9803 97.6765 67.9803C97.6779 67.9803 97.6779 67.9803 97.6793 67.9803C97.6808 67.9803 97.6822 67.9803 97.6822 67.9803C97.6836 67.9803 97.685 67.9803 97.6865 67.9803C97.6865 67.9803 97.6879 67.9803 97.6894 67.9803C97.6908 67.9803 97.6908 67.9803 97.6922 67.9803C97.6936 67.9803 97.6951 67.9803 97.6951 67.9803C97.6965 67.9803 97.6979 67.9803 97.6994 67.9803C97.6994 67.9803 97.7008 67.9803 97.7022 67.9803C97.7037 67.9803 97.7037 67.9803 97.7051 67.9803C97.7065 67.9803 97.708 67.9803 97.708 67.9803C97.7094 67.9803 97.7108 67.9803 97.7123 67.9803C97.7123 67.9803 97.7137 67.9803 97.7151 67.9803C97.7166 67.9803 97.7166 67.9803 97.718 67.9803C97.7194 67.9803 97.7209 67.9803 97.7209 67.9803C97.7223 67.9803 97.7237 67.9803 97.7252 67.9803C97.7252 67.9803 97.7266 67.9803 97.728 67.9803C97.7295 67.9803 97.7295 67.9803 97.7309 67.9803C97.7323 67.9803 97.7337 67.9803 97.7337 67.9803C97.7352 67.9803 97.7366 67.9803 97.7381 67.9803C97.7381 67.9803 97.7395 67.9803 97.7409 67.9803C97.7423 67.9803 97.7423 67.9803 97.7438 67.9803C97.7452 67.9803 97.7466 67.9803 97.7466 67.9803C97.7481 67.9803 97.7495 67.9803 97.751 67.9803C97.751 67.9803 97.7524 67.9803 97.7538 67.9803C97.7552 67.9803 97.7552 67.9803 97.7567 67.9803C97.7581 67.9803 97.7595 67.9803 97.7595 67.9803C97.761 67.9803 97.7624 67.9803 97.7638 67.9803C97.7638 67.9803 97.7653 67.9803 97.7667 67.9803C97.7681 67.9803 97.7681 67.9803 97.7696 67.9803C97.771 67.9803 97.7724 67.9803 97.7724 67.9803C97.7739 67.9803 97.7753 67.9803 97.7767 67.9803C97.7767 67.9803 97.7782 67.9803 97.7796 67.9803C97.781 67.9803 97.781 67.9803 97.7824 67.9803C97.7839 67.9803 97.7853 67.9803 97.7853 67.9803C97.7867 67.9803 97.7882 67.9803 97.7896 67.9803C97.7896 67.9803 97.7911 67.9803 97.7925 67.9803C97.7925 67.9803 97.7939 67.9803 97.7953 67.9803C97.7968 67.9803 97.7968 67.9803 97.7982 67.9803C97.7996 67.9803 97.8011 67.9803 97.8011 67.9803C97.8025 67.9803 97.8039 67.9803 97.8054 67.9803C97.8054 67.9803 97.8068 67.9803 97.8082 67.9803C97.8097 67.9803 97.8097 67.9803 97.8111 67.9803C97.8125 67.9803 97.814 67.9803 97.814 67.9803C97.8154 67.9803 97.8168 67.9803 97.8183 67.9803C97.8183 67.9803 97.8197 67.9803 97.8211 67.9803C97.8226 67.9803 97.8226 67.9803 97.824 67.9803C97.8254 67.9803 97.8269 67.9803 97.8269 67.9803C97.8283 67.9803 97.8297 67.9803 97.8312 67.9803C97.8312 67.9803 97.8326 67.9803 97.834 67.9803C97.834 67.9803 97.8355 67.9803 97.8369 67.9803C97.8383 67.9803 97.8383 67.9803 97.8398 67.9803C97.8412 67.9803 97.8426 67.9803 97.8426 67.9803C97.8441 67.9803 97.8455 67.9803 97.8469 67.9803C97.8469 67.9803 97.8484 67.9803 97.8498 67.9803C97.8512 67.9803 97.8512 67.9803 97.8527 67.9803C97.8541 67.9803 97.8555 67.9803 97.8555 67.9803C97.857 67.9803 97.8584 67.9803 97.8598 67.9803C97.8598 67.9803 97.8612 67.9803 97.8627 67.9803C97.8641 67.9803 97.8641 67.9803 97.8655 67.9803C97.867 67.9803 97.867 67.9803 97.8684 67.9803C97.8699 67.9803 97.8713 67.9803 97.8713 67.9803C97.8727 67.9803 97.8741 67.9803 97.8756 67.9803C97.8756 67.9803 97.877 67.9803 97.8784 67.9803C97.8799 67.9803 97.8799 67.9803 97.8813 67.9803C97.8827 67.9803 97.8842 67.9803 97.8842 67.9803C97.8856 67.9803 97.887 67.9803 97.8885 67.9803C97.8885 67.9803 97.8899 67.9803 97.8913 67.9803C97.8913 67.9803 97.8928 67.9803 97.8942 67.9803C97.8956 67.9803 97.8956 67.9803 97.8971 67.9803C97.8985 67.9803 97.8999 67.9803 97.8999 67.9803C97.9014 67.9803 97.9028 67.9803 97.9042 67.9803C97.9042 67.9803 97.9057 67.9803 97.9071 67.9803C97.9085 67.9803 97.9085 67.9803 97.91 67.9803C97.9114 67.9803 97.9114 67.9803 97.9128 67.9803C97.9142 67.9803 97.9157 67.9803 97.9157 67.9803C97.9171 67.9803 97.9186 67.9803 97.92 67.9803C97.92 67.9803 97.9214 67.9803 97.9229 67.9803C97.9243 67.9803 97.9243 67.9803 97.9257 67.9803C97.9271 67.9803 97.9286 67.9803 97.9286 67.9803C97.93 67.9803 97.9314 67.9803 97.9314 67.9803C97.9329 67.9803 97.9343 67.9803 97.9357 67.9803C97.9357 67.9803 97.9372 67.9803 97.9386 67.9803C97.94 67.9803 97.94 67.9803 97.9415 67.9803C97.9429 67.9803 97.9443 67.9803 97.9443 67.9803C97.9458 67.9803 97.9472 67.9803 97.9472 67.9803C97.9486 67.9803 97.9501 67.9803 97.9515 67.9803C97.9515 67.9803 97.9529 67.9803 97.9544 67.9803C97.9558 67.9803 97.9558 67.9803 97.9572 67.9803C97.9587 67.9803 97.9601 67.9803 97.9601 67.9803C97.9615 67.9803 97.9629 67.9803 97.9644 67.9803C97.9644 67.9803 97.9658 67.9803 97.9673 67.9803C97.9673 67.9803 97.9687 67.9803 97.9701 67.9803C97.9716 67.9803 97.9716 67.9803 97.973 67.9803C97.9744 67.9803 97.9759 67.9803 97.9759 67.9803C97.9773 67.9803 97.9787 67.9803 97.9787 67.9803C97.9802 67.9803 97.9816 67.9803 97.983 67.9803C97.983 67.9803 97.9845 67.9803 97.9859 67.9803C97.9873 67.9803 97.9873 67.9803 97.9888 67.9803C97.9902 67.9803 97.9916 67.9803 97.9916 67.9803C97.9931 67.9803 97.9945 67.9803 97.9945 67.9803C97.9959 67.9803 97.9973 67.9803 97.9988 67.9803C97.9988 67.9803 98.0002 67.9803 98.0016 67.9803C98.0031 67.9803 98.0031 67.9803 98.0045 67.9803C98.0059 67.9803 98.0074 67.9803 98.0074 67.9803C98.0088 67.9803 98.0102 67.9803 98.0102 67.9803C98.0117 67.9803 98.0131 67.9803 98.0145 67.9803C98.0145 67.9803 98.016 67.9803 98.0174 67.9803C98.0188 67.9803 98.0188 67.9803 98.0203 67.9803C98.0217 67.9803 98.0217 67.9803 98.0231 67.9803C98.0246 67.9803 98.026 67.9803 98.026 67.9803C98.0274 67.9803 98.0289 67.9803 98.0303 67.9803C98.0303 67.9803 98.0317 67.9803 98.0332 67.9803C98.0332 67.9803 98.0346 67.9803 98.036 67.9803C98.0374 67.9803 98.0374 67.9803 98.0389 67.9803C98.0403 67.9803 98.0417 67.9803 98.0417 67.9803C98.0432 67.9803 98.0446 67.9803 98.0446 67.9803C98.046 67.9803 98.0475 67.9803 98.0489 67.9803C98.0489 67.9803 98.0503 67.9803 98.0518 67.9803C98.0532 67.9803 98.0532 67.9803 98.0546 67.9803C98.0561 67.9803 98.0561 67.9803 98.0575 67.9803C98.0589 67.9803 98.0604 67.9803 98.0604 67.9803C98.0618 67.9803 98.0632 67.9803 98.0647 67.9803C98.0647 67.9803 98.0661 67.9803 98.0675 67.9803C98.0675 67.9803 98.069 67.9803 98.0704 67.9803C98.0718 67.9803 98.0718 67.9803 98.0733 67.9803C98.0747 67.9803 98.0761 67.9803 98.0761 67.9803C98.0776 67.9803 98.079 67.9803 98.079 67.9803C98.0804 67.9803 98.0819 67.9803 98.0833 67.9803C98.0833 67.9803 98.0847 67.9803 98.0862 67.9803C98.0876 67.9803 98.0876 67.9803 98.089 67.9803C98.0905 67.9803 98.0905 67.9803 98.0919 67.9803C98.0933 67.9803 98.0948 67.9803 98.0948 67.9803C98.0962 67.9803 98.0976 67.9803 98.0991 67.9803C98.0991 67.9803 98.1005 67.9803 98.1019 67.9803C98.1019 67.9803 98.1034 67.9803 98.1048 67.9803C98.1062 67.9803 98.1062 67.9803 98.1076 67.9803C98.1091 67.9803 98.1091 67.9803 98.1105 67.9803C98.1119 67.9803 98.1134 67.9803 98.1134 67.9803C98.1148 67.9803 98.1162 67.9803 98.1177 67.9803C98.1177 67.9803 98.1191 67.9803 98.1205 67.9803C98.1205 67.9803 98.122 67.9803 98.1234 67.9803C98.1248 67.9803 98.1248 67.9803 98.1263 67.9803C98.1277 67.9803 98.1277 67.9803 98.1291 67.9803C98.1306 67.9803 98.132 67.9803 98.132 67.9803C98.1334 67.9803 98.1349 67.9803 98.1363 67.9803C98.1363 67.9803 98.1377 67.9803 98.1392 67.9803C98.1392 67.9803 98.1406 67.9803 98.142 67.9803C98.1435 67.9803 98.1435 67.9803 98.1449 67.9803C98.1463 67.9803 98.1463 67.9803 98.1478 67.9803C98.1492 67.9803 98.1506 67.9803 98.1506 67.9803C98.1521 67.9803 98.1535 67.9803 98.1549 67.9803C98.1549 67.9803 98.1564 67.9803 98.1578 67.9803C98.1578 67.9803 98.1592 67.9803 98.1607 67.9803C98.1621 67.9803 98.1621 67.9803 98.1635 67.9803C98.165 67.9803 98.1649 67.9803 98.1664 67.9803C98.1678 67.9803 98.1692 67.9803 98.1692 67.9803C98.1707 67.9803 98.1721 67.9803 98.1721 67.9803C98.1735 67.9803 98.175 67.9803 98.1764 67.9803C98.1764 67.9803 98.1778 67.9803 98.1793 67.9803C98.1793 67.9803 98.1807 67.9803 98.1821 67.9803C98.1836 67.9803 98.1836 67.9803 98.185 67.9803C98.1864 67.9803 98.1879 67.9803 98.1879 67.9803C98.1893 67.9803 98.1907 67.9803 98.1907 67.9803C98.1922 67.9803 98.1936 67.9803 98.195 67.9803C98.195 67.9803 98.1965 67.9803 98.1979 67.9803C98.1979 67.9803 98.1993 67.9803 98.2008 67.9803C98.2022 67.9803 98.2022 67.9803 98.2036 67.9803C98.2051 67.9803 98.2051 67.9803 98.2065 67.9803C98.2079 67.9803 98.2094 67.9803 98.2094 67.9803C98.2108 67.9803 98.2122 67.9803 98.2122 67.9803C98.2137 67.9803 98.2151 67.9803 98.2165 67.9803C98.2165 67.9803 98.218 67.9803 98.2194 67.9803C98.2194 67.9803 98.2208 67.9803 98.2223 67.9803C98.2237 67.9803 98.2237 67.9803 98.2251 67.9803C98.2266 67.9803 98.2265 67.9803 98.228 67.9803C98.2294 67.9803 98.2308 67.9803 98.2308 67.9803C98.2323 67.9803 98.2337 67.9803 98.2337 67.9803C98.2351 67.9803 98.2366 67.9803 98.238 67.9803C98.238 67.9803 98.2394 67.9803 98.2409 67.9803C98.2409 67.9803 98.2423 67.9803 98.2437 67.9803C98.2452 67.9803 98.2452 67.9803 98.2466 67.9803C98.248 67.9803 98.248 67.9803 98.2495 67.9803C98.2509 67.9803 98.2523 67.9803 98.2523 67.9803C98.2538 67.9803 98.2552 67.9803 98.2552 67.9803C98.2566 67.9803 98.2581 67.9803 98.2595 67.9803C98.2595 67.9803 98.2609 67.9803 98.2624 67.9803C98.2624 67.9803 98.2638 67.9803 98.2652 67.9803C98.2667 67.9803 98.2667 67.9803 98.2681 67.9803C98.2695 67.9803 98.2695 67.9803 98.271 67.9803C98.2724 67.9803 98.2738 67.9803 98.2738 67.9803C98.2753 67.9803 98.2767 67.9803 98.2767 67.9803C98.2781 67.9803 98.2796 67.9803 98.281 67.9803C98.281 67.9803 98.2824 67.9803 98.2839 67.9803C98.2839 67.9803 98.2853 67.9803 98.2867 67.9803C98.2881 67.9803 98.2881 67.9803 98.2896 67.9803C98.291 67.9803 98.291 67.9803 98.2924 67.9803C98.2939 67.9803 98.2939 67.9803 98.2953 67.9803C98.2967 67.9803 98.2982 67.9803 98.2982 67.9803C98.2996 67.9803 98.301 67.9803 98.301 67.9803C98.3025 67.9803 98.3039 67.9803 98.3053 67.9803C98.3053 67.9803 98.3068 67.9803 98.3082 67.9803C98.3082 67.9803 98.3096 67.9803 98.3111 67.9803C98.3125 67.9803 98.3125 67.9803 98.3139 67.9803C98.3154 67.9803 98.3154 67.9803 98.3168 67.9803C98.3182 67.9803 98.3197 67.9803 98.3197 67.9803C98.3211 67.9803 98.3225 67.9803 98.3225 67.9803C98.324 67.9803 98.3254 67.9803 98.3254 67.9803C98.3268 67.9803 98.3283 67.9803 98.3297 67.9803C98.3297 67.9803 98.3311 67.9803 98.3326 67.9803C98.3326 67.9803 98.334 67.9803 98.3354 67.9803C98.3369 67.9803 98.3368 67.9803 98.3383 67.9803C98.3397 67.9803 98.3397 67.9803 98.3411 67.9803C98.3426 67.9803 98.344 67.9803 98.344 67.9803C98.3455 67.9803 98.3469 67.9803 98.3469 67.9803C98.3483 67.9803 98.3498 67.9803 98.3498 67.9803C98.3512 67.9803 98.3526 67.9803 98.354 67.9803C98.354 67.9803 98.3555 67.9803 98.3569 67.9803C98.3569 67.9803 98.3583 67.9803 98.3598 67.9803C98.3612 67.9803 98.3612 67.9803 98.3626 67.9803C98.3641 67.9803 98.3641 67.9803 98.3655 67.9803C98.367 67.9803 98.3669 67.9803 98.3684 67.9803C98.3698 67.9803 98.3712 67.9803 98.3712 67.9803C98.3727 67.9803 98.3741 67.9803 98.3741 67.9803C98.3755 67.9803 98.377 67.9803 98.377 67.9803C98.3784 67.9803 98.3798 67.9803 98.3813 67.9803C98.3813 67.9803 98.3827 67.9803 98.3841 67.9803C98.3841 67.9803 98.3856 67.9803 98.387 67.9803C98.3884 67.9803 98.3884 67.9803 98.3899 67.9803C98.3913 67.9803 98.3913 67.9803 98.3927 67.9803C98.3942 67.9803 98.3942 67.9803 98.3956 67.9803C98.397 67.9803 98.3985 67.9803 98.3985 67.9803C98.3999 67.9803 98.4013 67.9803 98.4013 67.9803C98.4028 67.9803 98.4042 67.9803 98.4042 67.9803C98.4056 67.9803 98.4071 67.9803 98.4085 67.9803C98.4085 67.9803 98.4099 67.9803 98.4114 67.9803C98.4114 67.9803 98.4128 67.9803 98.4142 67.9803C98.4157 67.9803 98.4157 67.9803 98.4171 67.9803C98.4185 67.9803 98.4185 67.9803 98.4199 67.9803C98.4214 67.9803 98.4214 67.9803 98.4228 67.9803C98.4242 67.9803 98.4257 67.9803 98.4257 67.9803V53.6513ZM97.102 53.6584C96.5591 53.6326 96.0949 53.6083 95.7067 53.5839L94.8128 67.8843C95.2898 67.9143 95.827 67.943 96.4215 67.9717L97.102 53.6584ZM95.7067 53.5839C95.2554 53.5553 94.7784 53.5266 94.277 53.4994L93.4834 67.8069C93.9547 67.8327 94.3987 67.8585 94.8128 67.8843L95.7067 53.5839ZM94.2999 53.5008C93.82 53.4721 93.3057 53.4478 92.8659 53.4478V67.7768C92.8401 67.7768 92.8745 67.7768 92.9948 67.7811C93.1066 67.7854 93.2599 67.7926 93.459 67.8055L94.2999 53.5008ZM92.8659 60.2254H94.1638V45.8964H92.8659V60.2254ZM94.1638 60.2254C95.0062 60.2254 95.8729 60.1925 96.7052 60.095L95.0319 45.8649C94.9446 45.8749 94.6752 45.8964 94.1638 45.8964V60.2254ZM96.7052 60.095C97.5232 59.999 98.3283 59.8414 99.1076 59.6465L95.6336 45.7445C95.3313 45.8205 95.1351 45.852 95.0319 45.8649L96.7052 60.095ZM99.3382 59.5849C100.736 59.1851 102.263 58.4715 103.609 57.2292L93.8916 46.7003C94.5349 46.107 95.1423 45.8806 95.403 45.8061L99.3382 59.5849ZM103.412 57.404C104.437 56.5257 105.236 55.5241 105.862 54.5325L93.7498 46.8808C93.7269 46.9166 93.8214 46.7547 94.0893 46.5255L103.412 57.404ZM105.862 54.5325C106.79 53.0623 107.285 51.5033 107.56 50.122L93.5134 47.3121C93.4919 47.4153 93.4834 47.421 93.5091 47.3522C93.5335 47.2849 93.6037 47.1115 93.7498 46.8808L105.862 54.5325ZM107.56 50.122C107.839 48.7307 107.944 47.2949 107.944 45.8749H93.618C93.618 46.6214 93.5593 47.0785 93.5134 47.3121L107.56 50.122ZM107.944 45.8749V42.6681H93.618V45.8749H107.944ZM107.944 42.6681C107.944 39.2635 107.043 34.8559 103.17 31.993L94.6552 43.5164C94.3687 43.3057 94.1294 43.0578 93.9446 42.8042C93.7641 42.5563 93.6653 42.3457 93.618 42.2196C93.5335 41.9975 93.618 42.0792 93.618 42.6681H107.944ZM103.311 32.1004C100.351 29.7978 96.7811 29.1702 93.6366 29.1702V43.4992C94.3142 43.4992 94.681 43.5708 94.8185 43.6081C94.9417 43.641 94.7827 43.6181 94.5162 43.4103L103.311 32.1004ZM93.6366 29.1702H92.8659V43.4992H93.6366V29.1702ZM85.7031 36.3347V53.0609H100.029V36.3347H85.7031ZM118.874 76.4458H111.711V83.6103H118.874V76.4458ZM118.874 28.8635V21.699H111.711V28.8635H118.874ZM132.715 28.8635H139.878V21.699H132.715V28.8635ZM132.715 76.4458V83.6103H139.878V76.4458H132.715ZM126.037 76.4458V28.8635H111.711V76.4458H126.037ZM118.874 36.028H132.715V21.699H118.874V36.028ZM125.553 28.8635V76.4458H139.878V28.8635H125.553ZM132.715 69.2813H118.874V83.6103H132.715V69.2813Z" fill="black"/>
</g>
</svg>
