<svg width="106" height="107" viewBox="0 0 106 107" fill="none" xmlns="http://www.w3.org/2000/svg">
<g filter="url(#filter0_d_106_239)">
<g filter="url(#filter1_d_106_239)">
<path d="M53 96C78.4051 96 99 75.1812 99 49.5C99 23.8188 78.4051 3 53 3C27.5949 3 7 23.8188 7 49.5C7 75.1812 27.5949 96 53 96Z" fill="white"/>
<path d="M53 96C78.4051 96 99 75.1812 99 49.5C99 23.8188 78.4051 3 53 3C27.5949 3 7 23.8188 7 49.5C7 75.1812 27.5949 96 53 96Z" fill="#57CD64"/>
<path d="M53 96C78.4051 96 99 75.1812 99 49.5C99 23.8188 78.4051 3 53 3C27.5949 3 7 23.8188 7 49.5C7 75.1812 27.5949 96 53 96Z" stroke="black" stroke-width="5"/>
</g>
<path d="M72 59.4999C72 68.4513 64.1092 76 54 76C43.8908 76 36 68.4513 36 59.4999C36 50.5485 43.8908 43 54 43C64.1092 43 72 50.5485 72 59.4999Z" fill="#57CD64" stroke="black" stroke-width="5"/>
<path d="M77 40H29V60H77V40Z" fill="#57CD64"/>
<path d="M32.5292 36.7742C30.3978 39.3405 30.7483 43.1504 33.3121 45.2839C35.8758 47.4174 39.6821 47.0666 41.8135 44.5003C43.945 41.9341 43.5945 38.1242 41.0307 35.9907C38.4669 33.8572 34.6607 34.208 32.5292 36.7742Z" fill="black"/>
<path d="M80 41.0337C69.9184 37.9826 63.1327 42.4067 61 45" stroke="black" stroke-width="5"/>
<path d="M34.2185 37.544C33.6891 38.1813 33.7762 39.1274 34.4129 39.6573C35.0495 40.1871 35.9947 40.1 36.524 39.4627C37.0533 38.8254 36.9663 37.8793 36.3296 37.3495C35.693 36.8196 34.7478 36.9068 34.2185 37.544Z" fill="white"/>
<path d="M38.2185 41.544C37.6891 42.1813 37.7762 43.1274 38.4129 43.6573C39.0495 44.1871 39.9947 44.1 40.524 43.4627C41.0533 42.8254 40.9663 41.8793 40.3296 41.3495C39.693 40.8196 38.7478 40.9068 38.2185 41.544Z" fill="white"/>
</g>
<defs>
<filter id="filter0_d_106_239" x="0.5" y="0.5" width="105" height="106" filterUnits="userSpaceOnUse" color-interpolation-filters="sRGB">
<feFlood flood-opacity="0" result="BackgroundImageFix"/>
<feColorMatrix in="SourceAlpha" type="matrix" values="0 0 0 0 0 0 0 0 0 0 0 0 0 0 0 0 0 0 127 0" result="hardAlpha"/>
<feOffset dy="4"/>
<feGaussianBlur stdDeviation="2"/>
<feComposite in2="hardAlpha" operator="out"/>
<feColorMatrix type="matrix" values="0 0 0 0 0 0 0 0 0 0 0 0 0 0 0 0 0 0 0.25 0"/>
<feBlend mode="normal" in2="BackgroundImageFix" result="effect1_dropShadow_106_239"/>
<feBlend mode="normal" in="SourceGraphic" in2="effect1_dropShadow_106_239" result="shape"/>
</filter>
<filter id="filter1_d_106_239" x="0.5" y="0.5" width="105" height="106" filterUnits="userSpaceOnUse" color-interpolation-filters="sRGB">
<feFlood flood-opacity="0" result="BackgroundImageFix"/>
<feColorMatrix in="SourceAlpha" type="matrix" values="0 0 0 0 0 0 0 0 0 0 0 0 0 0 0 0 0 0 127 0" result="hardAlpha"/>
<feOffset dy="4"/>
<feGaussianBlur stdDeviation="2"/>
<feComposite in2="hardAlpha" operator="out"/>
<feColorMatrix type="matrix" values="0 0 0 0 0 0 0 0 0 0 0 0 0 0 0 0 0 0 0.25 0"/>
<feBlend mode="normal" in2="BackgroundImageFix" result="effect1_dropShadow_106_239"/>
<feBlend mode="normal" in="SourceGraphic" in2="effect1_dropShadow_106_239" result="shape"/>
</filter>
</defs>
</svg>
