<svg width="182" height="107" viewBox="0 0 182 107" fill="none" xmlns="http://www.w3.org/2000/svg">
<path d="M182 0.532471H0.0651855V106.567H182V0.532471Z" fill="white"/>
<path d="M47.9855 75.8958C45.9011 75.8958 43.9528 75.7067 42.1406 75.3269C40.3542 74.9759 38.8529 74.5016 37.6353 73.9069C36.4176 73.3108 35.4163 72.742 34.6312 72.2018C33.8734 71.6601 33.2373 71.1185 32.723 70.5769L33.7387 60.7114C34.8475 62.2001 36.3359 63.4998 38.2026 64.6088C40.0706 65.6921 42.0862 66.2338 44.2508 66.2338C46.4154 66.2338 47.9711 66.003 48.9181 65.5431C49.8922 65.0831 50.3793 64.2435 50.3793 63.0255C50.3793 61.7273 49.8249 60.6168 48.7161 59.6968C47.6331 58.7769 45.7521 57.6664 43.0732 56.3682C42.0991 55.881 41.274 55.4469 40.5978 55.0686C39.9216 54.6631 39.0148 54.0125 37.8788 53.1198C36.7685 52.1999 35.8632 51.2528 35.1584 50.2784C34.455 49.2768 33.8332 48.0044 33.2917 46.4611C32.7502 44.8921 32.4795 43.2142 32.4795 41.4274C32.4795 31.7653 37.9333 26.9336 48.8379 26.9336C50.5698 26.9336 52.1929 27.1227 53.7085 27.5025C55.25 27.8535 56.4547 28.2461 57.32 28.6789C58.1867 29.113 58.9718 29.626 59.6752 30.2221C60.4058 30.791 60.8656 31.1965 61.0547 31.4401C61.2438 31.6564 61.3799 31.8327 61.4601 31.9674L59.4316 39.8039C58.3758 38.5587 57.0507 37.6388 55.4534 37.0427C53.8848 36.4208 52.382 36.1085 50.948 36.1085C47.4841 36.1085 45.7522 37.1917 45.7522 39.3568C45.7522 39.9257 45.861 40.4401 46.0773 40.9001C46.2937 41.36 46.6461 41.7799 47.1331 42.1582C47.6202 42.5364 48.0657 42.8617 48.4726 43.1325C48.9052 43.4033 49.4868 43.7415 50.2174 44.147C50.9752 44.5267 51.5439 44.8377 51.9221 45.0813C55.8731 46.7592 58.7684 48.7481 60.6078 51.0493C62.4758 53.3505 63.4084 56.1519 63.4084 59.4533C63.4084 64.8123 62.0833 68.8989 59.4316 71.7146C56.8071 74.5016 52.9908 75.8958 47.9855 75.8958ZM86.0972 75.8958C83.3095 75.8958 80.834 75.625 78.6694 75.0833C76.5306 74.5431 74.7728 73.8124 73.3919 72.891C72.0395 71.9711 70.9165 70.8348 70.024 69.4807C69.1573 68.1008 68.5484 66.6522 68.1974 65.1376C67.845 63.6216 67.6688 61.9436 67.6688 60.1024V27.4609H82.1191V58.2754C82.1191 61.713 82.4715 64.0815 83.1749 65.3812C83.9055 66.6522 84.9598 67.2884 86.3408 67.2884C87.0986 67.2884 87.7604 67.1666 88.3292 66.923C88.8979 66.6521 89.4251 66.2065 89.9122 65.5832C90.3993 64.9341 90.7645 64.0142 91.008 62.8234C91.2788 61.6055 91.4135 60.1296 91.4135 58.3972V27.4609H104.241V60.346C104.241 62.16 104.077 63.7978 103.754 65.2594C103.456 66.7209 102.887 68.1409 102.049 69.5223C101.237 70.8749 100.153 72.0112 98.8011 72.9325C97.4746 73.8252 95.7298 74.5431 93.5652 75.0833C91.4278 75.625 88.938 75.8958 86.0972 75.8958ZM122.593 75.0432H109.686V31.2781L107.697 27.4609H122.635L130.103 42.8889L137.247 58.2754L135.257 40.2094V27.4609H148.206V75.0432H135.826L126.166 56.2464L120.199 44.4723L122.593 60.0622V75.0432Z" fill="#FFA800"/>
<mask id="mask0_142_57" style="mask-type:luminance" maskUnits="userSpaceOnUse" x="24" y="19" width="133" height="65">
<path d="M156.214 19.1602H24.4185V83.6407H156.214V19.1602Z" fill="white"/>
<path d="M47.9855 75.8958C45.9011 75.8958 43.9528 75.7067 42.1406 75.3269C40.3542 74.9759 38.8529 74.5016 37.6353 73.9069C36.4176 73.3108 35.4163 72.742 34.6312 72.2018C33.8734 71.6601 33.2373 71.1185 32.723 70.5769L33.7387 60.7114C34.8475 62.2001 36.3359 63.4998 38.2026 64.6088C40.0706 65.6921 42.0862 66.2338 44.2508 66.2338C46.4154 66.2338 47.9711 66.003 48.9181 65.5431C49.8922 65.0831 50.3793 64.2435 50.3793 63.0255C50.3793 61.7273 49.8249 60.6168 48.7161 59.6968C47.6331 58.7769 45.7521 57.6664 43.0732 56.3682C42.0991 55.881 41.274 55.4469 40.5978 55.0686C39.9216 54.6631 39.0148 54.0125 37.8788 53.1198C36.7685 52.1999 35.8632 51.2528 35.1584 50.2784C34.455 49.2768 33.8332 48.0044 33.2917 46.4611C32.7502 44.8921 32.4795 43.2142 32.4795 41.4274C32.4795 31.7653 37.9333 26.9336 48.8379 26.9336C50.5698 26.9336 52.1929 27.1227 53.7085 27.5025C55.25 27.8535 56.4547 28.2461 57.32 28.6789C58.1867 29.113 58.9718 29.626 59.6752 30.2221C60.4058 30.791 60.8656 31.1965 61.0547 31.4401C61.2438 31.6564 61.3799 31.8327 61.4601 31.9674L59.4316 39.8039C58.3758 38.5587 57.0507 37.6388 55.4534 37.0427C53.8848 36.4208 52.382 36.1085 50.948 36.1085C47.4841 36.1085 45.7522 37.1917 45.7522 39.3568C45.7522 39.9257 45.861 40.4401 46.0773 40.9001C46.2937 41.36 46.6461 41.7799 47.1331 42.1582C47.6202 42.5364 48.0657 42.8617 48.4726 43.1325C48.9052 43.4033 49.4868 43.7415 50.2174 44.147C50.9752 44.5267 51.5439 44.8377 51.9221 45.0813C55.8731 46.7592 58.7684 48.7481 60.6078 51.0493C62.4758 53.3505 63.4084 56.1519 63.4084 59.4533C63.4084 64.8123 62.0833 68.8989 59.4316 71.7146C56.8071 74.5016 52.9908 75.8958 47.9855 75.8958ZM86.0972 75.8958C83.3095 75.8958 80.834 75.625 78.6694 75.0833C76.5306 74.5431 74.7728 73.8124 73.3919 72.891C72.0395 71.9711 70.9165 70.8348 70.024 69.4807C69.1573 68.1008 68.5484 66.6522 68.1974 65.1376C67.845 63.6216 67.6688 61.9436 67.6688 60.1024V27.4609H82.1191V58.2754C82.1191 61.713 82.4715 64.0815 83.1749 65.3812C83.9055 66.6522 84.9598 67.2884 86.3408 67.2884C87.0986 67.2884 87.7604 67.1666 88.3292 66.923C88.8979 66.6521 89.4251 66.2065 89.9122 65.5832C90.3993 64.9341 90.7645 64.0142 91.008 62.8234C91.2788 61.6055 91.4135 60.1296 91.4135 58.3972V27.4609H104.241V60.346C104.241 62.16 104.077 63.7978 103.754 65.2594C103.456 66.7209 102.887 68.1409 102.049 69.5223C101.237 70.8749 100.153 72.0112 98.8011 72.9325C97.4746 73.8252 95.7298 74.5431 93.5652 75.0833C91.4278 75.625 88.938 75.8958 86.0972 75.8958ZM122.593 75.0432H109.686V31.2781L107.697 27.4609H122.635L130.103 42.8889L137.247 58.2754L135.257 40.2094V27.4609H148.206V75.0432H135.826L126.166 56.2464L120.199 44.4723L122.593 60.0622V75.0432Z" fill="black"/>
</mask>
<g mask="url(#mask0_142_57)">
<path d="M42.1405 75.327L43.6046 68.3144L43.5645 68.3058L43.5244 68.2986L42.1405 75.327ZM34.6311 72.2019L30.4681 78.0309L30.5153 78.0653L30.564 78.0997L34.6311 72.2019ZM32.7229 70.5769L25.5988 69.8447L25.2607 73.1232L27.5299 75.5118L32.7229 70.5769ZM33.7386 60.7114L39.4803 56.4299L28.494 41.6882L26.613 59.9792L33.7386 60.7114ZM38.2025 64.6089L34.5437 70.769L34.5767 70.789L34.611 70.8077L38.2025 64.6089ZM48.918 65.5432L45.8594 59.065L45.8251 59.0808L45.7893 59.098L48.918 65.5432ZM48.716 59.6969L44.0759 65.1563L44.1103 65.1835L44.1432 65.2122L48.716 59.6969ZM43.0731 56.3683L39.87 62.7762L39.9101 62.7949L39.9487 62.8149L43.0731 56.3683ZM40.5977 55.0687L36.9131 61.2115L37.0049 61.2674L37.098 61.3204L40.5977 55.0687ZM37.8787 53.1199L33.3059 58.6351L33.379 58.6953L33.4535 58.7541L37.8787 53.1199ZM35.1583 50.2785L29.2977 54.3966L29.3249 54.4353L29.3521 54.4726L35.1583 50.2785ZM33.2916 46.4612L26.5199 48.7969L26.5271 48.8155L26.5329 48.8341L33.2916 46.4612ZM53.7084 27.5025L51.9707 34.4521L52.0424 34.4707L52.1154 34.4865L53.7084 27.5025ZM59.6751 30.2222L55.0479 35.6916L55.1611 35.7861L55.2771 35.8778L59.6751 30.2222ZM61.0546 31.4401L55.4003 35.8391L55.5278 36.0025L55.6639 36.1587L61.0546 31.4401ZM61.46 31.9674L68.395 33.7643L69.1472 30.8569L67.6029 28.282L61.46 31.9674ZM59.4315 39.804L53.9678 44.4365L62.9012 54.9755L66.3651 41.6008L59.4315 39.804ZM55.4533 37.0428L52.8131 43.7029L52.8819 43.7301L52.9506 43.7559L55.4533 37.0428ZM48.4725 43.1326L44.4986 49.0935L44.5859 49.1522L44.6762 49.2081L48.4725 43.1326ZM50.2173 44.1471L46.7391 50.4103L46.8752 50.4862L47.0141 50.555L50.2173 44.1471ZM51.922 45.0813L48.0484 51.1081L48.5613 51.4377L49.1228 51.6756L51.922 45.0813ZM60.6077 51.0494L55.0149 55.5243L55.0307 55.5444L55.0465 55.5645L60.6077 51.0494ZM59.4315 71.7147L54.2185 66.8013L54.2171 66.8027L59.4315 71.7147ZM47.9854 68.7314C46.3336 68.7314 44.881 68.5809 43.6046 68.3144L40.6751 82.3411C43.0259 82.8311 45.4698 83.0604 47.9854 83.0604V68.7314ZM43.5244 68.2986C42.1548 68.0278 41.2853 67.7169 40.7811 67.4704L34.4893 80.3436C36.419 81.2864 38.5534 81.9227 40.7553 82.3568L43.5244 68.2986ZM40.7811 67.4704C39.7611 66.9718 39.0964 66.5777 38.6981 66.304L30.564 78.0997C31.7359 78.9078 33.0725 79.6501 34.4893 80.3436L40.7811 67.4704ZM38.7941 66.3714C38.3213 66.0332 38.0506 65.7839 37.9159 65.6435L27.5299 75.5118C28.4238 76.4533 29.4266 77.2872 30.4681 78.0309L38.7941 66.3714ZM39.8485 71.3106L40.8627 61.4451L26.613 59.9792L25.5988 69.8447L39.8485 71.3106ZM27.9955 64.9944C29.7561 67.3572 32.0009 69.2572 34.5437 70.769L41.8626 58.4503C40.6708 57.7425 39.9387 57.0446 39.4803 56.4299L27.9955 64.9944ZM34.611 70.8077C37.5721 72.5257 40.8283 73.3983 44.2507 73.3983V59.0693C43.3439 59.0693 42.5675 58.8587 41.7953 58.4116L34.611 70.8077ZM44.2507 73.3983C46.5886 73.3983 49.5483 73.202 52.0481 71.9883L45.7893 59.098C46.0243 58.9848 46.1746 58.9432 46.1904 58.9389C46.2105 58.9332 46.1517 58.9504 45.9941 58.9733C45.6646 59.022 45.1031 59.0693 44.2507 59.0693V73.3983ZM51.9765 72.0213C53.6254 71.2433 55.1568 69.9794 56.2082 68.1668C57.2297 66.4086 57.542 64.5803 57.542 63.0256H43.2164C43.2164 62.6903 43.2866 61.8907 43.8196 60.9708C44.3854 59.9978 45.1847 59.3831 45.8594 59.065L51.9765 72.0213ZM57.542 63.0256C57.542 59.343 55.8343 56.2952 53.2873 54.1817L44.1432 65.2122C44.0559 65.1391 43.7908 64.8898 43.5573 64.4241C43.3138 63.9369 43.2164 63.4354 43.2164 63.0256H57.542ZM53.3546 54.2376C51.5395 52.6943 48.9638 51.2614 46.199 49.9217L39.9487 62.8149C42.5417 64.0716 43.7264 64.8582 44.0759 65.1563L53.3546 54.2376ZM46.2763 49.9604C45.3667 49.5047 44.6461 49.125 44.0974 48.8169L37.098 61.3204C37.9016 61.7703 38.8328 62.2575 39.87 62.7762L46.2763 49.9604ZM44.2837 48.9258C43.9929 48.751 43.3639 48.3197 42.3038 47.4858L33.4535 58.7541C34.6655 59.707 35.8502 60.5739 36.9131 61.2115L44.2837 48.9258ZM42.45 47.6047C41.7179 46.9971 41.2524 46.4813 40.9659 46.0829L29.3521 54.4726C30.4723 56.023 31.8204 57.4029 33.3059 58.6351L42.45 47.6047ZM41.0189 46.1589C40.7968 45.8408 40.4415 45.206 40.0504 44.0898L26.5329 48.8341C27.2233 50.8029 28.1144 52.7115 29.2977 54.3966L41.0189 46.1589ZM40.0634 44.1256C39.7998 43.3633 39.6422 42.4792 39.6422 41.4274H25.3166C25.3166 43.9479 25.7005 46.4211 26.5199 48.7969L40.0634 44.1256ZM39.6422 41.4274C39.6422 37.9412 40.5862 36.5685 41.3183 35.9194C42.2165 35.1241 44.2894 34.0982 48.8378 34.0982V19.7692C42.4801 19.7692 36.3745 21.1591 31.8204 25.1941C27.1001 29.3768 25.3166 35.2516 25.3166 41.4274H39.6422ZM48.8378 34.0982C50.0469 34.0982 51.0811 34.23 51.9707 34.4521L55.4448 20.5515C53.3045 20.0156 51.0926 19.7692 48.8378 19.7692V34.0982ZM52.1154 34.4865C53.4033 34.7817 53.9821 35.0195 54.1168 35.0869L60.5231 22.271C58.9273 21.4729 57.0964 20.927 55.3014 20.5171L52.1154 34.4865ZM54.1168 35.0869C54.4993 35.2789 54.8015 35.4824 55.0479 35.6916L64.3008 24.7528C63.1405 23.7713 61.8741 22.9473 60.5231 22.271L54.1168 35.0869ZM55.2771 35.8778C55.4218 35.991 55.5407 36.0856 55.6367 36.163C55.7327 36.2418 55.7943 36.2948 55.8287 36.3249C55.8444 36.3392 55.8502 36.345 55.8473 36.3407C55.843 36.3378 55.8258 36.322 55.7971 36.2934C55.7699 36.2647 55.7212 36.216 55.6596 36.1486C55.6281 36.1128 55.5908 36.0698 55.5478 36.0211C55.5063 35.971 55.4562 35.9094 55.4003 35.8391L66.7089 27.0411C65.878 25.9722 64.6804 25.0394 64.0716 24.5665L55.2771 35.8778ZM55.6639 36.1587C55.6868 36.1845 55.6668 36.163 55.6209 36.1028C55.5823 36.0526 55.4634 35.895 55.3187 35.6543L67.6029 28.282C67.1917 27.5971 66.7261 27.044 66.4453 26.7216L55.6639 36.1587ZM54.5265 30.1706L52.498 38.0071L66.3651 41.6008L68.395 33.7643L54.5265 30.1706ZM64.8953 35.17C63.0115 32.9476 60.6478 31.3341 57.956 30.3296L52.9506 43.7559C53.452 43.9422 53.7414 44.1686 53.9678 44.4365L64.8953 35.17ZM58.0936 30.3827C55.8301 29.4857 53.432 28.944 50.9479 28.944V43.273C51.3333 43.273 51.9378 43.3561 52.8131 43.7029L58.0936 30.3827ZM50.9479 28.944C48.7016 28.944 45.8007 29.2535 43.2551 30.8455C40.1478 32.7885 38.5893 35.9824 38.5893 39.3569H52.9149C52.9149 39.7839 52.8246 40.5075 52.3977 41.3071C51.9608 42.1267 51.359 42.6769 50.8476 42.9965C50.3849 43.2859 50.0798 43.3375 50.1357 43.3261C50.1844 43.316 50.4336 43.273 50.9479 43.273V28.944ZM38.5893 39.3569C38.5893 40.8543 38.88 42.429 39.5963 43.9508L52.5581 37.8495C52.8418 38.4499 52.9149 38.9958 52.9149 39.3569H38.5893ZM39.5963 43.9508C40.3842 45.6258 41.5461 46.8882 42.7351 47.8139L51.5295 36.5026C51.7444 36.6702 52.2029 37.0929 52.5581 37.8495L39.5963 43.9508ZM42.7351 47.8139C43.3253 48.2724 43.9155 48.7052 44.4986 49.0935L52.445 37.1717C52.2172 37.0184 51.9135 36.8006 51.5295 36.5026L42.7351 47.8139ZM44.6762 49.2081C45.2578 49.5721 45.9583 49.9776 46.7391 50.4103L53.6956 37.8853C53.0151 37.5056 52.5524 37.2348 52.2687 37.0571L44.6762 49.2081ZM47.0141 50.555C47.3365 50.7169 47.5857 50.8473 47.7719 50.9491C47.8636 50.9992 47.9324 51.0394 47.9825 51.068C48.0326 51.0981 48.0527 51.111 48.0484 51.1081L55.7957 39.0546C55.088 38.6003 54.2457 38.1518 53.4205 37.7392L47.0141 50.555ZM49.1228 51.6756C52.4464 53.087 54.1783 54.4783 55.0149 55.5243L66.2018 46.5744C63.3582 43.0194 59.2998 40.4316 54.7213 38.4871L49.1228 51.6756ZM55.0465 55.5645C55.7585 56.4414 56.2455 57.5963 56.2455 59.4533H70.5711C70.5711 54.7061 69.1915 50.2584 66.1688 46.5343L55.0465 55.5645ZM56.2455 59.4533C56.2455 63.6976 55.2026 65.7552 54.2185 66.8013L64.6446 76.6281C68.9624 72.0428 70.5711 65.9272 70.5711 59.4533H56.2455ZM54.2171 66.8027C53.3274 67.7455 51.6542 68.7314 47.9854 68.7314V83.0604C54.3273 83.0604 60.2853 81.2578 64.646 76.6266L54.2171 66.8027ZM78.6694 75.0834L76.9116 82.0287L76.9217 82.0315L76.9316 82.0344L78.6694 75.0834ZM73.3918 72.8911L69.3649 78.8161L69.3921 78.8347L69.4194 78.8534L73.3918 72.8911ZM70.0239 69.4808L63.9556 73.2894L64 73.3596L64.0458 73.4284L70.0239 69.4808ZM67.6687 27.461V20.2965H60.5059V27.461H67.6687ZM82.119 27.461H89.2818V20.2965H82.119V27.461ZM83.1748 65.3813L76.8758 68.793L76.9188 68.8718L76.9632 68.9492L83.1748 65.3813ZM88.3291 66.923L91.1512 73.5087L91.2801 73.4528L91.4091 73.3926L88.3291 66.923ZM89.9121 65.5833L95.5521 69.9995L95.5979 69.9407L95.6423 69.882L89.9121 65.5833ZM91.0079 62.8235L84.0157 61.2688L84.0028 61.3276L83.9899 61.3878L91.0079 62.8235ZM91.4134 27.461V20.2965H84.2506V27.461H91.4134ZM104.24 27.461H111.403V20.2965H104.24V27.461ZM103.753 65.2594L96.7612 63.7048L96.7468 63.7664L96.7339 63.8294L103.753 65.2594ZM102.049 69.5223L95.9274 65.8011L95.9173 65.8183L95.9059 65.8355L102.049 69.5223ZM98.8011 72.9326L102.802 78.8749L102.815 78.8663L102.829 78.8562L98.8011 72.9326ZM93.5651 75.0834L91.8274 68.1338L91.8173 68.1353L91.8074 68.1381L93.5651 75.0834ZM86.0972 68.7314C83.7564 68.7314 81.8825 68.5021 80.4056 68.1338L76.9316 82.0344C79.7853 82.748 82.8624 83.0604 86.0972 83.0604V68.7314ZM80.4271 68.1381C78.8341 67.7355 77.8858 67.2784 77.3658 66.9302L69.4194 78.8534C71.6585 80.3465 74.2284 81.3495 76.9116 82.0287L80.4271 68.1381ZM77.4201 66.9675C76.8328 66.5677 76.3744 66.1006 76.0019 65.5346L64.0458 73.4284C65.4583 75.5692 67.2461 77.3746 69.3649 78.8161L77.4201 66.9675ZM76.0908 65.6736C75.6266 64.9342 75.3372 64.222 75.1739 63.517L61.2194 66.7568C61.7595 69.0839 62.6877 71.2676 63.9556 73.2894L76.0908 65.6736ZM75.1739 63.517C74.9662 62.6186 74.8315 61.4938 74.8315 60.1024H60.5059C60.5059 62.3922 60.7252 64.6247 61.2194 66.7568L75.1739 63.517ZM74.8315 60.1024V27.461H60.5059V60.1024H74.8315ZM67.6687 34.6255H82.119V20.2965H67.6687V34.6255ZM74.9562 27.461V58.2755H89.2818V27.461H74.9562ZM74.9562 58.2755C74.9562 61.7173 75.2269 65.7481 76.8758 68.793L89.4723 61.9681C89.6886 62.3664 89.5869 62.3822 89.468 61.5769C89.3606 60.8562 89.2818 59.78 89.2818 58.2755H74.9562ZM76.9632 68.9492C78.8728 72.2749 82.2034 74.4529 86.3407 74.4529V60.1239C86.7919 60.1239 87.4925 60.2429 88.2102 60.6756C88.9079 61.0955 89.2602 61.5941 89.3849 61.8119L76.9632 68.9492ZM86.3407 74.4529C87.8549 74.4529 89.5138 74.2108 91.1512 73.5087L85.507 60.3389C85.7562 60.2314 85.9654 60.1784 86.1115 60.1512C86.2562 60.1239 86.3378 60.1239 86.3407 60.1239V74.4529ZM91.4091 73.3926C93.2012 72.5386 94.5522 71.2776 95.5521 69.9995L84.2707 61.1685C84.2979 61.1356 84.5944 60.7673 85.2491 60.4549L91.4091 73.3926ZM95.6423 69.882C97.0004 68.0708 97.6665 66.016 98.0261 64.2593L83.9899 61.3878C83.9641 61.5196 83.9383 61.6156 83.9196 61.6801C83.901 61.7445 83.8911 61.7703 83.8939 61.7632C83.8968 61.7546 83.9168 61.7058 83.9598 61.627C84.0042 61.5468 84.0744 61.4279 84.1819 61.2846L95.6423 69.882ZM98.0003 64.3768C98.4186 62.4954 98.5762 60.4678 98.5762 58.3973H84.2506C84.2506 59.7929 84.1389 60.7143 84.0157 61.2688L98.0003 64.3768ZM98.5762 58.3973V27.461H84.2506V58.3973H98.5762ZM91.4134 34.6255H104.24V20.2965H91.4134V34.6255ZM97.0777 27.461V60.346H111.403V27.461H97.0777ZM97.0777 60.346C97.0777 61.7431 96.9517 62.8465 96.7612 63.7048L110.746 66.8127C111.204 64.7479 111.403 62.5771 111.403 60.346H97.0777ZM96.7339 63.8294C96.615 64.4155 96.3729 65.0674 95.9274 65.8011L108.169 73.2436C109.401 71.2146 110.296 69.0251 110.772 66.6895L96.7339 63.8294ZM95.9059 65.8355C95.648 66.2654 95.3 66.6494 94.7728 67.0076L102.829 78.8562C105.008 77.3746 106.825 75.4846 108.19 73.2077L95.9059 65.8355ZM94.8 66.989C94.3788 67.2741 93.4806 67.7197 91.8274 68.1338L95.3028 82.0344C97.9788 81.3652 100.572 80.3765 102.802 78.8749L94.8 66.989ZM91.8074 68.1381C90.382 68.4992 88.5053 68.7314 86.0972 68.7314V83.0604C89.3706 83.0604 92.4735 82.7509 95.3228 82.0287L91.8074 68.1381ZM122.593 75.0433V82.2078H129.756V75.0433H122.593ZM109.686 75.0433H102.523V82.2078H109.686V75.0433ZM109.686 31.2782H116.848V29.5229L116.038 27.9654L109.686 31.2782ZM107.697 27.461V20.2965H95.8858L101.345 30.7738L107.697 27.461ZM122.635 27.461L129.081 24.3387L127.124 20.2965H122.635V27.461ZM130.103 42.889L136.599 39.8713L136.575 39.8183L136.549 39.7667L130.103 42.889ZM137.247 58.2755L130.75 61.2932L144.366 57.4917L137.247 58.2755ZM135.257 40.2095H128.094V40.6021L128.137 40.9933L135.257 40.2095ZM135.257 27.461V20.2965H128.094V27.461H135.257ZM148.206 27.461H155.368V20.2965H148.206V27.461ZM148.206 75.0433V82.2078H155.368V75.0433H148.206ZM135.826 75.0433L129.455 78.3189L131.453 82.2078H135.826V75.0433ZM126.166 56.2465L119.777 59.4849L119.785 59.5035L119.795 59.5221L126.166 56.2465ZM120.199 44.4724L126.587 41.2326L113.12 45.5599L120.199 44.4724ZM122.593 60.0623H129.756V59.5149L129.673 58.9747L122.593 60.0623ZM122.593 67.8788H109.686V82.2078H122.593V67.8788ZM116.848 75.0433V31.2782H102.523V75.0433H116.848ZM116.038 27.9654L114.049 24.1495L101.345 30.7738L103.335 34.5897L116.038 27.9654ZM107.697 34.6255H122.635V20.2965H107.697V34.6255ZM116.188 30.5833L123.656 46.0113L136.549 39.7667L129.081 24.3387L116.188 30.5833ZM123.606 45.9067L130.75 61.2932L143.743 55.2578L136.599 39.8713L123.606 45.9067ZM144.366 57.4917L142.377 39.4257L128.137 40.9933L130.127 59.0607L144.366 57.4917ZM142.42 40.2095V27.461H128.094V40.2095H142.42ZM135.257 34.6255H148.206V20.2965H135.257V34.6255ZM141.043 27.461V75.0433H155.368V27.461H141.043ZM148.206 67.8788H135.826V82.2078H148.206V67.8788ZM142.196 71.7677L132.536 52.9709L119.795 59.5221L129.455 78.3189L142.196 71.7677ZM132.554 53.0067L126.587 41.2326L113.81 47.7121L119.777 59.4849L132.554 53.0067ZM113.12 45.5599L115.513 61.1499L129.673 58.9747L127.279 43.3848L113.12 45.5599ZM115.43 60.0623V75.0433H129.756V60.0623H115.43Z" fill="black"/>
</g>
</svg>
