<svg width="127" height="75" viewBox="0 0 127 75" fill="none" xmlns="http://www.w3.org/2000/svg">
<rect width="127" height="74" fill="white"/>
<mask id="path-2-outside-1_109_378" maskUnits="userSpaceOnUse" x="17" y="13" width="92" height="45" fill="black">
<rect fill="white" x="17" y="13" width="92" height="45"/>
<path d="M33.4507 52.595C31.9963 52.595 30.6363 52.4628 29.3707 52.1983C28.1241 51.9528 27.0757 51.6222 26.2257 51.2067C25.3757 50.7911 24.6768 50.3944 24.1291 50.0167C23.6002 49.6389 23.1563 49.2611 22.7974 48.8833L23.5057 41.9983C24.2802 43.0372 25.3191 43.9439 26.6224 44.7183C27.9257 45.4739 29.333 45.8517 30.8441 45.8517C32.3552 45.8517 33.4413 45.6911 34.1024 45.37C34.7824 45.0489 35.1224 44.4633 35.1224 43.6133C35.1224 42.7067 34.7352 41.9322 33.9607 41.29C33.2052 40.6478 31.8924 39.8733 30.0224 38.9667C29.3424 38.6267 28.7663 38.3244 28.2941 38.06C27.8218 37.7767 27.1891 37.3233 26.3957 36.7C25.6213 36.0578 24.9885 35.3967 24.4974 34.7167C24.0063 34.0178 23.5718 33.13 23.1941 32.0533C22.8163 30.9578 22.6274 29.7867 22.6274 28.54C22.6274 21.7967 26.4335 18.425 34.0457 18.425C35.2546 18.425 36.388 18.5572 37.4457 18.8217C38.5224 19.0672 39.363 19.3411 39.9674 19.6433C40.5718 19.9456 41.1196 20.3044 41.6107 20.72C42.1207 21.1167 42.4418 21.4 42.5741 21.57C42.7063 21.7211 42.8007 21.8439 42.8574 21.9383L41.4407 27.4067C40.7041 26.5378 39.7785 25.8956 38.6641 25.48C37.5685 25.0456 36.5202 24.8283 35.5191 24.8283C33.1013 24.8283 31.8924 25.5839 31.8924 27.095C31.8924 27.4917 31.968 27.8506 32.1191 28.1717C32.2702 28.4928 32.5157 28.7856 32.8557 29.05C33.1957 29.3144 33.5074 29.5411 33.7907 29.73C34.093 29.9189 34.4991 30.155 35.0091 30.4383C35.538 30.7028 35.9346 30.92 36.1991 31.09C38.9568 32.2611 40.978 33.6494 42.2624 35.255C43.5657 36.8606 44.2174 38.8156 44.2174 41.12C44.2174 44.86 43.2918 47.7122 41.4407 49.6767C39.6085 51.6222 36.9452 52.595 33.4507 52.595ZM60.0546 52.595C58.1091 52.595 56.3807 52.4061 54.8696 52.0283C53.3774 51.6506 52.1496 51.1406 51.1863 50.4983C50.2418 49.8561 49.458 49.0628 48.8346 48.1183C48.2302 47.155 47.8052 46.1444 47.5596 45.0867C47.3141 44.0289 47.1913 42.8578 47.1913 41.5733V18.7933H57.278V40.2983C57.278 42.6972 57.5235 44.35 58.0146 45.2567C58.5246 46.1444 59.2613 46.5883 60.2246 46.5883C60.7535 46.5883 61.2163 46.5033 61.613 46.3333C62.0096 46.1444 62.378 45.8328 62.718 45.3983C63.058 44.945 63.313 44.3028 63.483 43.4717C63.6718 42.6217 63.7663 41.5922 63.7663 40.3833V18.7933H72.7196V41.7433C72.7196 43.0089 72.6063 44.1517 72.3796 45.1717C72.1718 46.1917 71.7752 47.1833 71.1896 48.1467C70.623 49.0911 69.8674 49.8844 68.923 50.5267C67.9974 51.15 66.7791 51.6506 65.268 52.0283C63.7757 52.4061 62.038 52.595 60.0546 52.595ZM85.5314 52H76.5214V21.4567L75.133 18.7933H85.5597L90.773 29.56L95.7597 40.2983L94.3714 27.69V18.7933H103.41V52H94.768L88.0247 38.8817L83.8597 30.665L85.5314 41.545V52Z"/>
</mask>
<path d="M33.4507 52.595C31.9963 52.595 30.6363 52.4628 29.3707 52.1983C28.1241 51.9528 27.0757 51.6222 26.2257 51.2067C25.3757 50.7911 24.6768 50.3944 24.1291 50.0167C23.6002 49.6389 23.1563 49.2611 22.7974 48.8833L23.5057 41.9983C24.2802 43.0372 25.3191 43.9439 26.6224 44.7183C27.9257 45.4739 29.333 45.8517 30.8441 45.8517C32.3552 45.8517 33.4413 45.6911 34.1024 45.37C34.7824 45.0489 35.1224 44.4633 35.1224 43.6133C35.1224 42.7067 34.7352 41.9322 33.9607 41.29C33.2052 40.6478 31.8924 39.8733 30.0224 38.9667C29.3424 38.6267 28.7663 38.3244 28.2941 38.06C27.8218 37.7767 27.1891 37.3233 26.3957 36.7C25.6213 36.0578 24.9885 35.3967 24.4974 34.7167C24.0063 34.0178 23.5718 33.13 23.1941 32.0533C22.8163 30.9578 22.6274 29.7867 22.6274 28.54C22.6274 21.7967 26.4335 18.425 34.0457 18.425C35.2546 18.425 36.388 18.5572 37.4457 18.8217C38.5224 19.0672 39.363 19.3411 39.9674 19.6433C40.5718 19.9456 41.1196 20.3044 41.6107 20.72C42.1207 21.1167 42.4418 21.4 42.5741 21.57C42.7063 21.7211 42.8007 21.8439 42.8574 21.9383L41.4407 27.4067C40.7041 26.5378 39.7785 25.8956 38.6641 25.48C37.5685 25.0456 36.5202 24.8283 35.5191 24.8283C33.1013 24.8283 31.8924 25.5839 31.8924 27.095C31.8924 27.4917 31.968 27.8506 32.1191 28.1717C32.2702 28.4928 32.5157 28.7856 32.8557 29.05C33.1957 29.3144 33.5074 29.5411 33.7907 29.73C34.093 29.9189 34.4991 30.155 35.0091 30.4383C35.538 30.7028 35.9346 30.92 36.1991 31.09C38.9568 32.2611 40.978 33.6494 42.2624 35.255C43.5657 36.8606 44.2174 38.8156 44.2174 41.12C44.2174 44.86 43.2918 47.7122 41.4407 49.6767C39.6085 51.6222 36.9452 52.595 33.4507 52.595ZM60.0546 52.595C58.1091 52.595 56.3807 52.4061 54.8696 52.0283C53.3774 51.6506 52.1496 51.1406 51.1863 50.4983C50.2418 49.8561 49.458 49.0628 48.8346 48.1183C48.2302 47.155 47.8052 46.1444 47.5596 45.0867C47.3141 44.0289 47.1913 42.8578 47.1913 41.5733V18.7933H57.278V40.2983C57.278 42.6972 57.5235 44.35 58.0146 45.2567C58.5246 46.1444 59.2613 46.5883 60.2246 46.5883C60.7535 46.5883 61.2163 46.5033 61.613 46.3333C62.0096 46.1444 62.378 45.8328 62.718 45.3983C63.058 44.945 63.313 44.3028 63.483 43.4717C63.6718 42.6217 63.7663 41.5922 63.7663 40.3833V18.7933H72.7196V41.7433C72.7196 43.0089 72.6063 44.1517 72.3796 45.1717C72.1718 46.1917 71.7752 47.1833 71.1896 48.1467C70.623 49.0911 69.8674 49.8844 68.923 50.5267C67.9974 51.15 66.7791 51.6506 65.268 52.0283C63.7757 52.4061 62.038 52.595 60.0546 52.595ZM85.5314 52H76.5214V21.4567L75.133 18.7933H85.5597L90.773 29.56L95.7597 40.2983L94.3714 27.69V18.7933H103.41V52H94.768L88.0247 38.8817L83.8597 30.665L85.5314 41.545V52Z" fill="#FFA800"/>
<path d="M29.3707 52.1983L30.3934 47.304L30.3652 47.2982L30.337 47.2926L29.3707 52.1983ZM26.2257 51.2067L28.4218 46.7147L28.4218 46.7147L26.2257 51.2067ZM24.1291 50.0167L21.2229 54.0853L21.2564 54.1093L21.2904 54.1327L24.1291 50.0167ZM22.7974 48.8833L17.8236 48.3716L17.5883 50.6596L19.1724 52.3271L22.7974 48.8833ZM23.5057 41.9983L27.5145 39.01L19.8452 28.722L18.532 41.4866L23.5057 41.9983ZM26.6224 44.7183L24.0683 49.0168L24.0914 49.0305L24.1147 49.044L26.6224 44.7183ZM34.1024 45.37L31.9674 40.8488L31.9426 40.8605L31.9179 40.8725L34.1024 45.37ZM33.9607 41.29L30.7225 45.0997L30.7456 45.1194L30.769 45.1388L33.9607 41.29ZM30.0224 38.9667L27.7863 43.4388L27.8136 43.4524L27.841 43.4657L30.0224 38.9667ZM28.2941 38.06L25.7216 42.3475L25.7858 42.386L25.851 42.4225L28.2941 38.06ZM26.3957 36.7L23.204 40.5488L23.2548 40.5909L23.3066 40.6316L26.3957 36.7ZM24.4974 34.7167L20.4064 37.5914L20.425 37.6179L20.444 37.6441L24.4974 34.7167ZM23.1941 32.0533L18.4672 33.6833L18.4716 33.696L18.4761 33.7088L23.1941 32.0533ZM37.4457 18.8217L36.2331 23.6724L36.2834 23.685L36.3339 23.6965L37.4457 18.8217ZM41.6107 20.72L38.381 24.5369L38.4597 24.6035L38.541 24.6668L41.6107 20.72ZM42.5741 21.57L38.6273 24.6397L38.716 24.7538L38.8112 24.8625L42.5741 21.57ZM42.8574 21.9383L47.6976 23.1923L48.2233 21.1632L47.1449 19.3658L42.8574 21.9383ZM41.4407 27.4067L37.6269 30.6401L43.8627 37.9951L46.2809 28.6606L41.4407 27.4067ZM38.6641 25.48L36.8209 30.1279L36.8689 30.1469L36.9171 30.1649L38.6641 25.48ZM32.1191 28.1717L36.6432 26.0427L36.6432 26.0427L32.1191 28.1717ZM32.8557 29.05L35.9254 25.1032L35.9254 25.1032L32.8557 29.05ZM33.7907 29.73L31.0172 33.8903L31.0784 33.931L31.1407 33.97L33.7907 29.73ZM35.0091 30.4383L32.5809 34.8091L32.6758 34.8619L32.773 34.9105L35.0091 30.4383ZM36.1991 31.09L33.4953 35.2959L33.8531 35.5259L34.2447 35.6922L36.1991 31.09ZM42.2624 35.255L38.3581 38.3785L38.3692 38.3924L38.3804 38.4062L42.2624 35.255ZM41.4407 49.6767L37.8018 46.2477L37.8008 46.2487L41.4407 49.6767ZM33.4507 47.595C32.298 47.595 31.2839 47.4901 30.3934 47.304L28.348 57.0926C29.9887 57.4354 31.6946 57.595 33.4507 57.595V47.595ZM30.337 47.2926C29.3809 47.1043 28.7744 46.8871 28.4218 46.7147L24.0297 55.6986C25.3771 56.3573 26.8672 56.8013 28.4044 57.1041L30.337 47.2926ZM28.4218 46.7147C27.7101 46.3668 27.2456 46.0922 26.9677 45.9006L21.2904 54.1327C22.1081 54.6966 23.0413 55.2154 24.0297 55.6986L28.4218 46.7147ZM27.0353 45.948C26.7048 45.7119 26.5162 45.5383 26.4224 45.4396L19.1724 52.3271C19.7964 52.9839 20.4956 53.5658 21.2229 54.0853L27.0353 45.948ZM27.7711 49.395L28.4795 42.51L18.532 41.4866L17.8236 48.3716L27.7711 49.395ZM19.497 44.9867C20.7263 46.6357 22.2934 47.9621 24.0683 49.0168L29.1765 40.4199C28.3447 39.9256 27.8341 39.4387 27.5145 39.01L19.497 44.9867ZM24.1147 49.044C26.1824 50.2427 28.4551 50.8517 30.8441 50.8517V40.8517C30.2108 40.8517 29.669 40.7051 29.13 40.3926L24.1147 49.044ZM30.8441 50.8517C32.4765 50.8517 34.5416 50.7153 36.2869 49.8675L31.9179 40.8725C32.0821 40.7927 32.187 40.7636 32.1981 40.7605C32.212 40.7567 32.1713 40.7687 32.0608 40.785C31.8307 40.819 31.4389 40.8517 30.8441 40.8517V50.8517ZM36.2374 49.8912C37.3883 49.3478 38.4567 48.4659 39.1913 47.2007C39.9038 45.9736 40.1224 44.6979 40.1224 43.6133H30.1224C30.1224 43.3788 30.171 42.8208 30.5435 42.1793C30.9381 41.4996 31.4965 41.0711 31.9674 40.8488L36.2374 49.8912ZM40.1224 43.6133C40.1224 41.0434 38.9303 38.9156 37.1524 37.4412L30.769 45.1388C30.7079 45.0881 30.5228 44.9144 30.3598 44.5886C30.1899 44.2486 30.1224 43.8986 30.1224 43.6133H40.1224ZM37.199 37.4803C35.9321 36.4034 34.1337 35.4033 32.2038 34.4676L27.841 43.4657C29.6511 44.3434 30.4783 44.8921 30.7225 45.0997L37.199 37.4803ZM32.2585 34.4945C31.6228 34.1767 31.1202 33.912 30.7371 33.6975L25.851 42.4225C26.4124 42.7369 27.062 43.0766 27.7863 43.4388L32.2585 34.4945ZM30.8665 33.7725C30.664 33.651 30.2248 33.3498 29.4848 32.7684L23.3066 40.6316C24.1533 41.2969 24.9796 41.9023 25.7216 42.3475L30.8665 33.7725ZM29.5874 32.8512C29.0756 32.4268 28.7514 32.067 28.5508 31.7892L20.444 37.6441C21.2256 38.7263 22.167 39.6888 23.204 40.5488L29.5874 32.8512ZM28.5884 31.8419C28.4327 31.6204 28.1853 31.1767 27.9121 30.3979L18.4761 33.7088C18.9584 35.0833 19.5799 36.4151 20.4064 37.5914L28.5884 31.8419ZM27.9209 30.4234C27.7372 29.8906 27.6274 29.2741 27.6274 28.54H17.6274C17.6274 30.2993 17.8954 32.025 18.4672 33.6833L27.9209 30.4234ZM27.6274 28.54C27.6274 26.1067 28.2862 25.1493 28.7975 24.6964C29.4242 24.1412 30.8712 23.425 34.0457 23.425V13.425C29.608 13.425 25.3458 14.3947 22.1665 17.2111C18.8716 20.1299 17.6274 24.2299 17.6274 28.54H27.6274ZM34.0457 23.425C34.8895 23.425 35.6122 23.5172 36.2331 23.6724L38.6584 13.971C37.1637 13.5973 35.6197 13.425 34.0457 13.425V23.425ZM36.3339 23.6965C37.2334 23.9016 37.6371 24.0684 37.7313 24.1155L42.2035 15.1712C41.0888 14.6139 39.8114 14.2328 38.5575 13.9468L36.3339 23.6965ZM37.7313 24.1155C37.9976 24.2486 38.2088 24.3912 38.381 24.5369L44.8404 16.9031C44.0305 16.2177 43.1461 15.6425 42.2035 15.1712L37.7313 24.1155ZM38.541 24.6668C38.6423 24.7455 38.7252 24.8117 38.7916 24.866C38.8589 24.9211 38.9021 24.9582 38.926 24.9792C38.9373 24.9892 38.9411 24.9928 38.9385 24.9904C38.9362 24.9882 38.9239 24.9768 38.9039 24.9568C38.8845 24.9374 38.851 24.9031 38.8079 24.8555C38.786 24.8312 38.7597 24.8015 38.7301 24.7665C38.7007 24.7317 38.6659 24.6893 38.6273 24.6397L46.5208 18.5003C45.9407 17.7545 45.1046 17.1032 44.6804 16.7732L38.541 24.6668ZM38.8112 24.8625C38.827 24.8807 38.8134 24.8661 38.7809 24.824C38.754 24.789 38.6711 24.6795 38.5699 24.5108L47.1449 19.3658C46.8584 18.8885 46.5335 18.5021 46.3369 18.2775L38.8112 24.8625ZM38.0172 20.6844L36.6005 26.1527L46.2809 28.6606L47.6976 23.1923L38.0172 20.6844ZM45.2545 24.1732C43.9396 22.6223 42.2905 21.4959 40.411 20.7951L36.9171 30.1649C37.2665 30.2952 37.4685 30.4532 37.6269 30.6401L45.2545 24.1732ZM40.5072 20.8321C38.9271 20.2055 37.2525 19.8283 35.5191 19.8283V29.8283C35.7878 29.8283 36.2099 29.8856 36.8209 30.1279L40.5072 20.8321ZM35.5191 19.8283C33.9512 19.8283 31.9264 20.0441 30.1491 21.155C27.9799 22.5107 26.8924 24.7403 26.8924 27.095H36.8924C36.8924 27.393 36.8288 27.8976 36.5308 28.4563C36.226 29.0279 35.8056 29.4121 35.4491 29.635C35.1261 29.8368 34.9126 29.8731 34.9522 29.8649C34.9865 29.8578 35.1597 29.8283 35.5191 29.8283V19.8283ZM26.8924 27.095C26.8924 28.1405 27.0953 29.2389 27.595 30.3007L36.6432 26.0427C36.8406 26.4622 36.8924 26.8429 36.8924 27.095H26.8924ZM27.595 30.3006C28.1453 31.4701 28.956 32.3512 29.786 32.9968L35.9254 25.1032C36.0755 25.2199 36.3951 25.5155 36.6432 26.0427L27.595 30.3006ZM29.786 32.9968C30.1983 33.3174 30.6103 33.6189 31.0172 33.8903L36.5642 25.5697C36.4045 25.4633 36.1932 25.3115 35.9254 25.1032L29.786 32.9968ZM31.1407 33.97C31.5467 34.2237 32.0365 34.5067 32.5809 34.8091L37.4373 26.0675C36.9617 25.8033 36.6392 25.6141 36.4407 25.49L31.1407 33.97ZM32.773 34.9105C32.9976 35.0228 33.1715 35.1138 33.3017 35.1851C33.3659 35.2203 33.4143 35.2478 33.4489 35.2681C33.4842 35.2887 33.4982 35.2978 33.4953 35.2959L38.9029 26.8841C38.409 26.5666 37.8212 26.2542 37.2451 25.9662L32.773 34.9105ZM34.2447 35.6922C36.5645 36.6773 37.7738 37.6482 38.3581 38.3785L46.1667 32.1315C44.1821 29.6507 41.3492 27.8449 38.1534 26.4878L34.2447 35.6922ZM38.3804 38.4062C38.8773 39.0183 39.2174 39.8238 39.2174 41.12H49.2174C49.2174 37.8073 48.2542 34.7028 46.1444 32.1038L38.3804 38.4062ZM39.2174 41.12C39.2174 44.0816 38.4892 45.5182 37.8018 46.2477L45.0797 53.1057C48.0945 49.9063 49.2174 45.6384 49.2174 41.12H39.2174ZM37.8008 46.2487C37.1804 46.9074 36.0122 47.595 33.4507 47.595V57.595C37.8782 57.595 42.0366 56.337 45.0807 53.1046L37.8008 46.2487ZM54.8696 52.0283L53.6425 56.8754L53.6497 56.8772L53.6569 56.879L54.8696 52.0283ZM51.1863 50.4983L48.3747 54.633L48.3937 54.6459L48.4128 54.6586L51.1863 50.4983ZM48.8346 48.1183L44.5993 50.7758L44.6299 50.8245L44.6616 50.8725L48.8346 48.1183ZM47.5596 45.0867L52.4301 43.956L47.5596 45.0867ZM47.1913 18.7933V13.7933H42.1913V18.7933H47.1913ZM57.278 18.7933H62.278V13.7933H57.278V18.7933ZM58.0146 45.2567L53.6182 47.6381L53.6479 47.6931L53.6791 47.7473L58.0146 45.2567ZM61.613 46.3333L63.5826 50.9291L63.6734 50.8901L63.7626 50.8476L61.613 46.3333ZM62.718 45.3983L66.6555 48.4799L66.6871 48.4394L66.718 48.3983L62.718 45.3983ZM63.483 43.4717L58.602 42.387L58.5929 42.4283L58.5844 42.4697L63.483 43.4717ZM63.7663 18.7933V13.7933H58.7663V18.7933H63.7663ZM72.7196 18.7933H77.7196V13.7933H72.7196V18.7933ZM72.3796 45.1717L67.4987 44.087L67.4891 44.1302L67.4802 44.1736L72.3796 45.1717ZM71.1896 48.1467L66.917 45.5496L66.9095 45.5619L66.9022 45.5742L71.1896 48.1467ZM68.923 50.5267L71.716 54.6739L71.7252 54.6676L71.7345 54.6613L68.923 50.5267ZM65.268 52.0283L64.0553 47.1776L64.0481 47.1794L64.0408 47.1813L65.268 52.0283ZM60.0546 47.595C58.4212 47.595 57.1129 47.4353 56.0823 47.1776L53.6569 56.879C55.6486 57.377 57.7969 57.595 60.0546 57.595V47.595ZM56.0967 47.1813C54.9848 46.8997 54.3234 46.5805 53.9598 46.3381L48.4128 54.6586C49.9758 55.7006 51.77 56.4014 53.6425 56.8754L56.0967 47.1813ZM53.9978 46.3637C53.5878 46.0849 53.2682 45.7588 53.0077 45.3641L44.6616 50.8725C45.6477 52.3667 46.8959 53.6273 48.3747 54.633L53.9978 46.3637ZM53.0699 45.4609C52.7464 44.9453 52.5443 44.4479 52.4301 43.956L42.6891 46.2173C43.0661 47.841 43.7139 49.3647 44.5993 50.7758L53.0699 45.4609ZM52.4301 43.956C52.2846 43.3291 52.1913 42.5443 52.1913 41.5733H42.1913C42.1913 43.1713 42.3436 44.7287 42.6891 46.2173L52.4301 43.956ZM52.1913 41.5733V18.7933H42.1913V41.5733H52.1913ZM47.1913 23.7933H57.278V13.7933H47.1913V23.7933ZM52.278 18.7933V40.2983H62.278V18.7933H52.278ZM52.278 40.2983C52.278 42.6998 52.4671 45.513 53.6182 47.6381L62.4111 42.8753C62.5617 43.1534 62.4913 43.1642 62.4078 42.6023C62.333 42.0987 62.278 41.3481 62.278 40.2983H52.278ZM53.6791 47.7473C55.0122 50.0679 57.3374 51.5883 60.2246 51.5883V41.5883C60.5404 41.5883 61.0289 41.6708 61.5302 41.9728C62.0166 42.2659 62.2625 42.6135 62.3501 42.766L53.6791 47.7473ZM60.2246 51.5883C61.2819 51.5883 62.44 51.4187 63.5826 50.9291L59.6434 41.7376C59.8166 41.6634 59.9628 41.6256 60.0651 41.6068C60.1657 41.5884 60.2228 41.5883 60.2246 41.5883V51.5883ZM63.7626 50.8476C65.0137 50.2519 65.9574 49.3719 66.6555 48.4799L58.7804 42.3168C58.7985 42.2937 59.0056 42.037 59.4633 41.819L63.7626 50.8476ZM66.718 48.3983C67.6663 47.1338 68.1306 45.7004 68.3815 44.4736L58.5844 42.4697C58.5656 42.5617 58.5484 42.6288 58.5354 42.6738C58.5224 42.719 58.5151 42.7367 58.5171 42.7315C58.5191 42.7264 58.5329 42.6925 58.5632 42.6366C58.5936 42.5806 58.6433 42.4979 58.718 42.3983L66.718 48.3983ZM68.3639 44.5563C68.6558 43.2429 68.7663 41.8276 68.7663 40.3833H58.7663C58.7663 41.3568 58.6879 42.0005 58.602 42.387L68.3639 44.5563ZM68.7663 40.3833V18.7933H58.7663V40.3833H68.7663ZM63.7663 23.7933H72.7196V13.7933H63.7663V23.7933ZM67.7196 18.7933V41.7433H77.7196V18.7933H67.7196ZM67.7196 41.7433C67.7196 42.7177 67.6317 43.4885 67.4987 44.087L77.2606 46.2563C77.5809 44.8148 77.7196 43.3 77.7196 41.7433H67.7196ZM67.4802 44.1736C67.3968 44.5833 67.2279 45.0382 66.917 45.5496L75.4622 50.7437C76.3225 49.3285 76.9469 47.8 77.279 46.1697L67.4802 44.1736ZM66.9022 45.5742C66.7223 45.8739 66.4792 46.1419 66.1114 46.392L71.7345 54.6613C73.2556 53.627 74.5236 52.3083 75.4771 50.7191L66.9022 45.5742ZM66.13 46.3795C65.8357 46.5777 65.2089 46.8892 64.0553 47.1776L66.4806 56.879C68.3492 56.4119 70.1591 55.7223 71.716 54.6739L66.13 46.3795ZM64.0408 47.1813C63.0456 47.4332 61.7363 47.595 60.0546 47.595V57.595C62.3396 57.595 64.5059 57.379 66.4951 56.8754L64.0408 47.1813ZM85.5314 52V57H90.5314V52H85.5314ZM76.5214 52H71.5214V57H76.5214V52ZM76.5214 21.4567H81.5214V20.2317L80.9551 19.1454L76.5214 21.4567ZM75.133 18.7933V13.7933H66.8881L70.6993 21.1046L75.133 18.7933ZM85.5597 18.7933L90.0599 16.6143L88.694 13.7933H85.5597V18.7933ZM90.773 29.56L95.3079 27.4541L95.2909 27.4174L95.2732 27.381L90.773 29.56ZM95.7597 40.2983L91.2248 42.4042L100.73 39.7511L95.7597 40.2983ZM94.3714 27.69H89.3714V27.9645L89.4014 28.2373L94.3714 27.69ZM94.3714 18.7933V13.7933H89.3714V18.7933H94.3714ZM103.41 18.7933H108.41V13.7933H103.41V18.7933ZM103.41 52V57H108.41V52H103.41ZM94.768 52L90.3212 54.2859L91.7163 57H94.768V52ZM88.0247 38.8817L83.5649 41.1423L83.5714 41.1549L83.5778 41.1675L88.0247 38.8817ZM83.8597 30.665L88.3195 28.4044L78.9177 31.4243L83.8597 30.665ZM85.5314 41.545H90.5314V41.1631L90.4734 40.7857L85.5314 41.545ZM85.5314 47H76.5214V57H85.5314V47ZM81.5214 52V21.4567H71.5214V52H81.5214ZM80.9551 19.1454L79.5668 16.4821L70.6993 21.1046L72.0876 23.7679L80.9551 19.1454ZM75.133 23.7933H85.5597V13.7933H75.133V23.7933ZM81.0595 20.9724L86.2728 31.739L95.2732 27.381L90.0599 16.6143L81.0595 20.9724ZM86.2382 31.6659L91.2248 42.4042L100.295 38.1924L95.3079 27.4541L86.2382 31.6659ZM100.73 39.7511L99.3413 27.1427L89.4014 28.2373L90.7898 40.8456L100.73 39.7511ZM99.3714 27.69V18.7933H89.3714V27.69H99.3714ZM94.3714 23.7933H103.41V13.7933H94.3714V23.7933ZM98.4097 18.7933V52H108.41V18.7933H98.4097ZM103.41 47H94.768V57H103.41V47ZM99.2149 49.7141L92.4716 36.5958L83.5778 41.1675L90.3212 54.2859L99.2149 49.7141ZM92.4845 36.621L88.3195 28.4044L79.3999 32.9256L83.5649 41.1423L92.4845 36.621ZM78.9177 31.4243L80.5894 42.3043L90.4734 40.7857L88.8017 29.9057L78.9177 31.4243ZM80.5314 41.545V52H90.5314V41.545H80.5314Z" fill="black" mask="url(#path-2-outside-1_109_378)"/>
</svg>
