<svg width="128" height="74" viewBox="0 0 128 74" fill="none" xmlns="http://www.w3.org/2000/svg">
<rect width="128" height="74" fill="white"/>
<mask id="path-2-outside-1_109_380" maskUnits="userSpaceOnUse" x="21" y="14" width="85" height="45" fill="black">
<rect fill="white" x="21" y="14" width="85" height="45"/>
<path d="M32.6923 53V27.3017H26.0623V19.7933H48.8989V27.3017H42.2689V53H32.6923ZM64.2465 53.595C62.301 53.595 60.5726 53.4061 59.0615 53.0283C57.5693 52.6506 56.3415 52.1406 55.3782 51.4983C54.4337 50.8561 53.6499 50.0628 53.0265 49.1183C52.4221 48.155 51.9971 47.1444 51.7515 46.0867C51.506 45.0289 51.3832 43.8578 51.3832 42.5733V19.7933H61.4699V41.2983C61.4699 43.6972 61.7154 45.35 62.2065 46.2567C62.7165 47.1444 63.4532 47.5883 64.4165 47.5883C64.9454 47.5883 65.4082 47.5033 65.8048 47.3333C66.2015 47.1444 66.5698 46.8328 66.9098 46.3983C67.2499 45.945 67.5049 45.3028 67.6748 44.4717C67.8637 43.6217 67.9582 42.5922 67.9582 41.3833V19.7933H76.9115V42.7433C76.9115 44.0089 76.7982 45.1517 76.5715 46.1717C76.3637 47.1917 75.9671 48.1833 75.3815 49.1467C74.8149 50.0911 74.0593 50.8844 73.1148 51.5267C72.1893 52.15 70.971 52.6506 69.4598 53.0283C67.9676 53.4061 66.2298 53.595 64.2465 53.595ZM100.802 53H80.7133V19.7933H100.377L99.8099 26.48L90.0916 26.1967V32.6H97.7416V39.23L90.0916 38.6633V46.2L100.802 45.9167V53Z"/>
</mask>
<path d="M32.6923 53V27.3017H26.0623V19.7933H48.8989V27.3017H42.2689V53H32.6923ZM64.2465 53.595C62.301 53.595 60.5726 53.4061 59.0615 53.0283C57.5693 52.6506 56.3415 52.1406 55.3782 51.4983C54.4337 50.8561 53.6499 50.0628 53.0265 49.1183C52.4221 48.155 51.9971 47.1444 51.7515 46.0867C51.506 45.0289 51.3832 43.8578 51.3832 42.5733V19.7933H61.4699V41.2983C61.4699 43.6972 61.7154 45.35 62.2065 46.2567C62.7165 47.1444 63.4532 47.5883 64.4165 47.5883C64.9454 47.5883 65.4082 47.5033 65.8048 47.3333C66.2015 47.1444 66.5698 46.8328 66.9098 46.3983C67.2499 45.945 67.5049 45.3028 67.6748 44.4717C67.8637 43.6217 67.9582 42.5922 67.9582 41.3833V19.7933H76.9115V42.7433C76.9115 44.0089 76.7982 45.1517 76.5715 46.1717C76.3637 47.1917 75.9671 48.1833 75.3815 49.1467C74.8149 50.0911 74.0593 50.8844 73.1148 51.5267C72.1893 52.15 70.971 52.6506 69.4598 53.0283C67.9676 53.4061 66.2298 53.595 64.2465 53.595ZM100.802 53H80.7133V19.7933H100.377L99.8099 26.48L90.0916 26.1967V32.6H97.7416V39.23L90.0916 38.6633V46.2L100.802 45.9167V53Z" fill="#FFA800"/>
<path d="M32.6923 53H27.6923V58H32.6923V53ZM32.6923 27.3017H37.6923V22.3017H32.6923V27.3017ZM26.0623 27.3017H21.0623V32.3017H26.0623V27.3017ZM26.0623 19.7933V14.7933H21.0623V19.7933H26.0623ZM48.8989 19.7933H53.8989V14.7933H48.8989V19.7933ZM48.8989 27.3017V32.3017H53.8989V27.3017H48.8989ZM42.2689 27.3017V22.3017H37.2689V27.3017H42.2689ZM42.2689 53V58H47.2689V53H42.2689ZM37.6923 53V27.3017H27.6923V53H37.6923ZM32.6923 22.3017H26.0623V32.3017H32.6923V22.3017ZM31.0623 27.3017V19.7933H21.0623V27.3017H31.0623ZM26.0623 24.7933H48.8989V14.7933H26.0623V24.7933ZM43.8989 19.7933V27.3017H53.8989V19.7933H43.8989ZM48.8989 22.3017H42.2689V32.3017H48.8989V22.3017ZM37.2689 27.3017V53H47.2689V27.3017H37.2689ZM42.2689 48H32.6923V58H42.2689V48ZM59.0615 53.0283L57.8344 57.8754L57.8416 57.8772L57.8488 57.879L59.0615 53.0283ZM55.3782 51.4983L52.5666 55.633L52.5856 55.6459L52.6047 55.6586L55.3782 51.4983ZM53.0265 49.1183L48.7912 51.7758L48.8218 51.8245L48.8535 51.8725L53.0265 49.1183ZM51.7515 46.0867L56.622 44.956L51.7515 46.0867ZM51.3832 19.7933V14.7933H46.3832V19.7933H51.3832ZM61.4699 19.7933H66.4699V14.7933H61.4699V19.7933ZM62.2065 46.2567L57.8101 48.6381L57.8398 48.6931L57.871 48.7473L62.2065 46.2567ZM65.8048 47.3333L67.7744 51.9291L67.8653 51.8901L67.9545 51.8476L65.8048 47.3333ZM66.9098 46.3983L70.8474 49.4799L70.879 49.4394L70.9098 49.3983L66.9098 46.3983ZM67.6748 44.4717L62.7939 43.387L62.7847 43.4283L62.7763 43.4697L67.6748 44.4717ZM67.9582 19.7933V14.7933H62.9582V19.7933H67.9582ZM76.9115 19.7933H81.9115V14.7933H76.9115V19.7933ZM76.5715 46.1717L71.6906 45.087L71.681 45.1302L71.6721 45.1736L76.5715 46.1717ZM75.3815 49.1467L71.1089 46.5496L71.1014 46.5619L71.0941 46.5742L75.3815 49.1467ZM73.1148 51.5267L75.9079 55.6739L75.9171 55.6676L75.9264 55.6613L73.1148 51.5267ZM69.4598 53.0283L68.2472 48.1776L68.24 48.1794L68.2327 48.1813L69.4598 53.0283ZM64.2465 48.595C62.6131 48.595 61.3048 48.4353 60.2742 48.1776L57.8488 57.879C59.8405 58.377 61.9888 58.595 64.2465 58.595V48.595ZM60.2886 48.1813C59.1767 47.8997 58.5153 47.5805 58.1517 47.3381L52.6047 55.6586C54.1677 56.7006 55.9619 57.4014 57.8344 57.8754L60.2886 48.1813ZM58.1897 47.3637C57.7797 47.0849 57.4601 46.7588 57.1996 46.3641L48.8535 51.8725C49.8396 53.3667 51.0878 54.6273 52.5666 55.633L58.1897 47.3637ZM57.2618 46.4609C56.9383 45.9453 56.7362 45.4479 56.622 44.956L46.881 47.2173C47.2579 48.841 47.9058 50.3647 48.7912 51.7758L57.2618 46.4609ZM56.622 44.956C56.4765 44.3291 56.3832 43.5443 56.3832 42.5733H46.3832C46.3832 44.1713 46.5355 45.7287 46.881 47.2173L56.622 44.956ZM56.3832 42.5733V19.7933H46.3832V42.5733H56.3832ZM51.3832 24.7933H61.4699V14.7933H51.3832V24.7933ZM56.4699 19.7933V41.2983H66.4699V19.7933H56.4699ZM56.4699 41.2983C56.4699 43.6998 56.659 46.513 57.8101 48.6381L66.603 43.8753C66.7536 44.1534 66.6832 44.1642 66.5997 43.6023C66.5249 43.0987 66.4699 42.3481 66.4699 41.2983H56.4699ZM57.871 48.7473C59.2041 51.0679 61.5293 52.5883 64.4165 52.5883V42.5883C64.7323 42.5883 65.2208 42.6708 65.7221 42.9728C66.2085 43.2659 66.4544 43.6135 66.542 43.766L57.871 48.7473ZM64.4165 52.5883C65.4738 52.5883 66.6319 52.4187 67.7744 51.9291L63.8353 42.7376C64.0085 42.6634 64.1547 42.6256 64.257 42.6068C64.3576 42.5884 64.4147 42.5883 64.4165 42.5883V52.5883ZM67.9545 51.8476C69.2056 51.2519 70.1493 50.3719 70.8474 49.4799L62.9723 43.3168C62.9904 43.2937 63.1975 43.037 63.6552 42.819L67.9545 51.8476ZM70.9098 49.3983C71.8582 48.1338 72.3225 46.7004 72.5734 45.4736L62.7763 43.4697C62.7574 43.5617 62.7403 43.6288 62.7273 43.6738C62.7143 43.719 62.707 43.7367 62.709 43.7315C62.711 43.7264 62.7248 43.6925 62.7551 43.6366C62.7855 43.5806 62.8352 43.4979 62.9099 43.3983L70.9098 49.3983ZM72.5558 45.5563C72.8477 44.2429 72.9582 42.8276 72.9582 41.3833H62.9582C62.9582 42.3568 62.8798 43.0005 62.7939 43.387L72.5558 45.5563ZM72.9582 41.3833V19.7933H62.9582V41.3833H72.9582ZM67.9582 24.7933H76.9115V14.7933H67.9582V24.7933ZM71.9115 19.7933V42.7433H81.9115V19.7933H71.9115ZM71.9115 42.7433C71.9115 43.7177 71.8236 44.4885 71.6906 45.087L81.4525 47.2563C81.7728 45.8148 81.9115 44.3 81.9115 42.7433H71.9115ZM71.6721 45.1736C71.5887 45.5833 71.4198 46.0382 71.1089 46.5496L79.6541 51.7437C80.5144 50.3285 81.1388 48.8 81.4709 47.1697L71.6721 45.1736ZM71.0941 46.5742C70.9142 46.8739 70.6711 47.1419 70.3033 47.392L75.9264 55.6613C77.4475 54.627 78.7155 53.3083 79.669 51.7191L71.0941 46.5742ZM70.3218 47.3795C70.0276 47.5777 69.4008 47.8892 68.2472 48.1776L70.6725 57.879C72.5411 57.4119 74.351 56.7223 75.9079 55.6739L70.3218 47.3795ZM68.2327 48.1813C67.2375 48.4332 65.9282 48.595 64.2465 48.595V58.595C66.5315 58.595 68.6978 58.379 70.687 57.8754L68.2327 48.1813ZM100.802 53V58H105.802V53H100.802ZM80.7133 53H75.7133V58H80.7133V53ZM80.7133 19.7933V14.7933H75.7133V19.7933H80.7133ZM100.377 19.7933L105.359 20.2155L105.818 14.7933H100.377V19.7933ZM99.8099 26.48L99.6642 31.4779L104.393 31.6157L104.792 26.9022L99.8099 26.48ZM90.0916 26.1967L90.2373 21.1988L85.0916 21.0488V26.1967H90.0916ZM90.0916 32.6H85.0916V37.6H90.0916V32.6ZM97.7416 32.6H102.742V27.6H97.7416V32.6ZM97.7416 39.23L97.3722 44.2163L102.742 44.6141V39.23H97.7416ZM90.0916 38.6633L90.461 33.677L85.0916 33.2793V38.6633H90.0916ZM90.0916 46.2H85.0916V51.334L90.2238 51.1983L90.0916 46.2ZM100.802 45.9167H105.802V40.7826L100.669 40.9184L100.802 45.9167ZM100.802 48H80.7133V58H100.802V48ZM85.7133 53V19.7933H75.7133V53H85.7133ZM80.7133 24.7933H100.377V14.7933H80.7133V24.7933ZM95.3945 19.3711L94.8278 26.0578L104.792 26.9022L105.359 20.2155L95.3945 19.3711ZM99.9557 21.4821L90.2373 21.1988L89.9459 31.1945L99.6642 31.4779L99.9557 21.4821ZM85.0916 26.1967V32.6H95.0916V26.1967H85.0916ZM90.0916 37.6H97.7416V27.6H90.0916V37.6ZM92.7416 32.6V39.23H102.742V32.6H92.7416ZM98.111 34.2437L90.461 33.677L89.7222 43.6497L97.3722 44.2163L98.111 34.2437ZM85.0916 38.6633V46.2H95.0916V38.6633H85.0916ZM90.2238 51.1983L100.934 50.9149L100.669 40.9184L89.9594 41.2017L90.2238 51.1983ZM95.8016 45.9167V53H105.802V45.9167H95.8016Z" fill="black" mask="url(#path-2-outside-1_109_380)"/>
</svg>
