<svg width="184" height="107" viewBox="0 0 184 107" fill="none" xmlns="http://www.w3.org/2000/svg">
<path d="M183.944 0H0.57666V106.035H183.944V0Z" fill="white"/>
<path d="M47.4099 75.9437V39.1206H37.9121V28.3618H70.6274V39.1206H61.1296V75.9437H47.4099ZM92.6143 76.7963C89.8266 76.7963 87.3511 76.5256 85.1865 75.9843C83.0477 75.4431 81.2899 74.7123 79.909 73.7919C78.5566 72.8717 77.4335 71.735 76.541 70.3816C75.6743 69.0013 75.0655 67.5532 74.7145 66.0376C74.3621 64.5219 74.1859 62.8438 74.1859 61.0033V28.3618H88.6361V59.1763C88.6361 62.6137 88.9871 64.982 89.6919 66.2812C90.4225 67.5532 91.4769 68.1893 92.8579 68.1893C93.6142 68.1893 94.2775 68.0675 94.8462 67.8239C95.415 67.5532 95.9422 67.1067 96.4292 66.4841C96.9163 65.8346 97.2816 64.9144 97.5251 63.7235C97.7959 62.5055 97.9306 61.0304 97.9306 59.2981V28.3618H110.758V61.2469C110.758 63.0604 110.594 64.6979 110.271 66.1594C109.973 67.621 109.404 69.0419 108.566 70.4223C107.754 71.7755 106.671 72.9123 105.318 73.8326C103.992 74.7257 102.247 75.4431 100.082 75.9843C97.9449 76.5256 95.4551 76.7963 92.6143 76.7963ZM144.981 75.9437H116.203V28.3618H144.373L143.56 37.9432L129.639 37.5372V46.7125H140.598V56.2127L129.639 55.4006V66.2L144.981 65.794V75.9437Z" fill="#FFA800"/>
<mask id="mask0_142_60" style="mask-type:luminance" maskUnits="userSpaceOnUse" x="30" y="20" width="123" height="65">
<path d="M152.428 20.0605H30.6604V84.5411H152.428V20.0605Z" fill="white"/>
<path d="M47.4099 75.9437V39.1206H37.9121V28.3618H70.6274V39.1206H61.1296V75.9437H47.4099ZM92.6143 76.7963C89.8266 76.7963 87.3511 76.5256 85.1865 75.9843C83.0477 75.4431 81.2899 74.7123 79.909 73.7919C78.5566 72.8717 77.4335 71.735 76.541 70.3816C75.6743 69.0013 75.0655 67.5532 74.7145 66.0376C74.3621 64.5219 74.1859 62.8438 74.1859 61.0033V28.3618H88.6361V59.1763C88.6361 62.6137 88.9871 64.982 89.6919 66.2812C90.4225 67.5532 91.4769 68.1893 92.8579 68.1893C93.6142 68.1893 94.2775 68.0675 94.8462 67.8239C95.415 67.5532 95.9422 67.1067 96.4292 66.4841C96.9163 65.8346 97.2816 64.9144 97.5251 63.7235C97.7959 62.5055 97.9306 61.0304 97.9306 59.2981V28.3618H110.758V61.2469C110.758 63.0604 110.594 64.6979 110.271 66.1594C109.973 67.621 109.404 69.0419 108.566 70.4223C107.754 71.7755 106.671 72.9123 105.318 73.8326C103.992 74.7257 102.247 75.4431 100.082 75.9843C97.9449 76.5256 95.4551 76.7963 92.6143 76.7963ZM144.981 75.9437H116.203V28.3618H144.373L143.56 37.9432L129.639 37.5372V46.7125H140.598V56.2127L129.639 55.4006V66.2L144.981 65.794V75.9437Z" fill="black"/>
</mask>
<g mask="url(#mask0_142_60)">
<path d="M47.4099 75.9437H40.2471V83.1082H47.4099V75.9437ZM47.4099 39.1206H54.5727V31.9561H47.4099V39.1206ZM37.9121 39.1206H30.7493V46.2851H37.9121V39.1206ZM37.9121 28.3618V21.1973H30.7493V28.3618H37.9121ZM70.6274 28.3618H77.7901V21.1973H70.6274V28.3618ZM70.6274 39.1206V46.2851H77.7901V39.1206H70.6274ZM61.1295 39.1206V31.9561H53.9667V39.1206H61.1295ZM61.1295 75.9437V83.1082H68.2923V75.9437H61.1295ZM54.5727 75.9437V39.1206H40.2471V75.9437H54.5727ZM47.4099 31.9561H37.9121V46.2851H47.4099V31.9561ZM45.0748 39.1206V28.3618H30.7493V39.1206H45.0748ZM37.9121 35.5263H70.6274V21.1973H37.9121V35.5263ZM63.4646 28.3618V39.1206H77.7901V28.3618H63.4646ZM70.6274 31.9561H61.1295V46.2851H70.6274V31.9561ZM53.9667 39.1206V75.9437H68.2923V39.1206H53.9667ZM61.1295 68.7792H47.4099V83.1082H61.1295V68.7792ZM85.1865 75.9842L83.4273 82.9296L83.4388 82.9322L83.4488 82.9348L85.1865 75.9842ZM79.9089 73.7919L75.882 79.7165L75.9092 79.735L75.9364 79.7532L79.9089 73.7919ZM76.541 70.3816L70.4726 74.1895L70.5171 74.2593L70.5615 74.3281L76.541 70.3816ZM74.1858 28.3618V21.1973H67.0231V28.3618H74.1858ZM88.6361 28.3618H95.7989V21.1973H88.6361V28.3618ZM89.6919 66.2812L83.3929 69.6935L83.4359 69.7723L83.4803 69.85L89.6919 66.2812ZM94.8462 67.8238L97.6669 74.4092L97.7973 74.3533L97.9262 74.2924L94.8462 67.8238ZM96.4292 66.4841L102.069 70.8997L102.115 70.8417L102.159 70.7828L96.4292 66.4841ZM97.5251 63.7235L90.5328 62.1692L90.5199 62.2284L90.507 62.2877L97.5251 63.7235ZM97.9305 28.3618V21.1973H90.7677V28.3618H97.9305ZM110.758 28.3618H117.92V21.1973H110.758V28.3618ZM110.271 66.1594L103.278 64.6051L103.264 64.667L103.251 64.7292L110.271 66.1594ZM108.566 70.4223L102.445 66.7009L102.433 66.7185L102.423 66.7361L108.566 70.4223ZM105.318 73.8326L109.319 79.7751L109.332 79.7661L109.345 79.757L105.318 73.8326ZM100.082 75.9842L98.3445 69.0336L98.3345 69.0362L98.3245 69.0389L100.082 75.9842ZM92.6143 69.6317C90.2735 69.6317 88.3997 69.4029 86.9227 69.0336L83.4488 82.9348C86.301 83.6484 89.3796 83.9607 92.6143 83.9607V69.6317ZM86.9442 69.0389C85.3512 68.6354 84.4029 68.1781 83.8828 67.8307L75.9364 79.7532C78.1755 81.2463 80.7456 82.2504 83.4273 82.9296L86.9442 69.0389ZM83.9373 67.8674C83.3499 67.4679 82.8915 67.0006 82.5191 66.4351L70.5615 74.3281C71.9754 76.4691 73.7632 78.2754 75.882 79.7165L83.9373 67.8674ZM82.6078 66.5738C82.1437 65.835 81.8543 65.1223 81.691 64.4174L67.7365 67.6576C68.2766 69.9842 69.2048 72.1675 70.4726 74.1895L82.6078 66.5738ZM81.691 64.4174C81.4819 63.5191 81.3486 62.3946 81.3486 61.0032H67.0231C67.0231 63.293 67.2408 65.5246 67.7365 67.6576L81.691 64.4174ZM81.3486 61.0032V28.3618H67.0231V61.0032H81.3486ZM74.1858 35.5263H88.6361V21.1973H74.1858V35.5263ZM81.4733 28.3618V59.1763H95.7989V28.3618H81.4733ZM81.4733 59.1763C81.4733 62.6174 81.744 66.6484 83.3929 69.6935L95.9894 62.8687C96.2057 63.2674 96.104 63.2828 95.9851 62.4777C95.8777 61.7561 95.7989 60.6806 95.7989 59.1763H81.4733ZM83.4803 69.85C85.3899 73.1752 88.7206 75.3537 92.8578 75.3537V61.0247C93.3091 61.0247 94.0096 61.1429 94.7273 61.5757C95.4249 61.9957 95.7759 62.4937 95.902 62.7123L83.4803 69.85ZM92.8578 75.3537C94.372 75.3537 96.0309 75.1107 97.6669 74.4092L92.024 61.2387C92.2719 61.1323 92.4825 61.0782 92.6286 61.0512C92.7733 61.0249 92.8549 61.0247 92.8578 61.0247V75.3537ZM97.9262 74.2924C99.7183 73.4388 101.069 72.1779 102.069 70.8997L90.7877 62.0686C90.8135 62.0355 91.1101 61.6677 91.7662 61.3553L97.9262 74.2924ZM102.159 70.7828C103.517 68.9709 104.184 66.917 104.542 65.1591L90.507 62.2877C90.4798 62.4195 90.4554 62.5157 90.4368 62.5801C90.4181 62.6449 90.4082 62.6703 90.411 62.6628C90.4139 62.6555 90.4339 62.6069 90.4769 62.5268C90.5213 62.4466 90.5915 62.3281 90.699 62.1854L102.159 70.7828ZM104.517 65.2776C104.936 63.3956 105.093 61.3676 105.093 59.2981H90.7677C90.7677 60.693 90.656 61.6154 90.5328 62.1692L104.517 65.2776ZM105.093 59.2981V28.3618H90.7677V59.2981H105.093ZM97.9305 35.5263H110.758V21.1973H97.9305V35.5263ZM103.595 28.3618V61.2468H117.92V28.3618H103.595ZM103.595 61.2468C103.595 62.6431 103.469 63.7475 103.278 64.6051L117.261 67.7135C117.721 65.648 117.92 63.4774 117.92 61.2468H103.595ZM103.251 64.7292C103.132 65.3163 102.89 65.9681 102.445 66.7009L114.686 74.1435C115.918 72.1157 116.813 69.9255 117.289 67.5894L103.251 64.7292ZM102.423 66.7361C102.165 67.1656 101.817 67.5496 101.29 67.908L109.345 79.757C111.524 78.275 113.341 76.3854 114.707 74.1083L102.423 66.7361ZM101.317 67.89C100.896 68.174 99.9977 68.6204 98.3445 69.0336L101.82 82.9348C104.496 82.2655 107.089 81.2773 109.319 79.7751L101.317 67.89ZM98.3245 69.0389C96.8976 69.3999 95.0224 69.6317 92.6143 69.6317V83.9607C95.8863 83.9607 98.9906 83.6512 101.84 82.9296L98.3245 69.0389ZM144.981 75.9437V83.1082H152.144V75.9437H144.981ZM116.203 75.9437H109.04V83.1082H116.203V75.9437ZM116.203 28.3618V21.1973H109.04V28.3618H116.203ZM144.373 28.3618L151.51 28.9667L152.167 21.1973H144.373V28.3618ZM143.56 37.9431L143.351 45.1046L150.126 45.3021L150.697 38.5481L143.56 37.9431ZM129.639 37.5372L129.846 30.3757L122.476 30.1608V37.5372H129.639ZM129.639 46.7125H122.476V53.877H129.639V46.7125ZM140.598 46.7125H147.761V39.548H140.598V46.7125ZM140.598 56.2126L140.068 63.3575L147.761 63.9275V56.2126H140.598ZM129.639 55.4006L130.167 48.2557L122.476 47.6859V55.4006H129.639ZM129.639 66.1999H122.476V73.5564L129.828 73.362L129.639 66.1999ZM144.981 65.794H152.144V58.4373L144.791 58.6319L144.981 65.794ZM144.981 68.7792H116.203V83.1082H144.981V68.7792ZM123.366 75.9437V28.3618H109.04V75.9437H123.366ZM116.203 35.5263H144.373V21.1973H116.203V35.5263ZM137.234 27.7568L136.423 37.3382L150.697 38.5481L151.51 28.9667L137.234 27.7568ZM143.769 30.7816L129.846 30.3757L129.43 44.6986L143.351 45.1046L143.769 30.7816ZM122.476 37.5372V46.7125H136.802V37.5372H122.476ZM129.639 53.877H140.598V39.548H129.639V53.877ZM133.435 46.7125V56.2126H147.761V46.7125H133.435ZM141.126 49.0677L130.167 48.2557L129.109 62.5456L140.068 63.3575L141.126 49.0677ZM122.476 55.4006V66.1999H136.802V55.4006H122.476ZM129.828 73.362L145.171 72.9559L144.791 58.6319L129.448 59.0379L129.828 73.362ZM137.819 65.794V75.9437H152.144V65.794H137.819Z" fill="black"/>
</g>
</svg>
