<svg width="182" height="106" viewBox="0 0 182 106" fill="none" xmlns="http://www.w3.org/2000/svg">
<path d="M181.935 0.502197H0V105.104H181.935V0.502197Z" fill="white"/>
<path d="M41.7203 77.8788V41.0562H32.2224V30.2965H64.9373V41.0562H55.4395V77.8788H41.7203ZM81.9717 77.8788H68.5368V30.2965H81.9717V49.1349H92.4032V30.2965H105.838V77.8788H92.4032V58.4731H81.9717V77.8788ZM129.614 78.7314C126.826 78.7314 124.351 78.4606 122.186 77.919C120.048 77.3788 118.289 76.648 116.909 75.7266C115.556 74.8067 114.433 73.6704 113.54 72.3163C112.674 70.9364 112.065 69.4878 111.714 67.9732C111.362 66.4572 111.186 64.7793 111.186 62.938V30.2965H125.636V61.111C125.636 64.5486 125.988 66.9172 126.691 68.2168C127.422 69.4878 128.477 70.124 129.857 70.124C130.615 70.124 131.278 70.0022 131.846 69.7586C132.414 69.4878 132.942 69.0421 133.429 68.4188C133.916 67.7697 134.281 66.8498 134.525 65.6591C134.795 64.4411 134.931 62.9652 134.931 61.2328V30.2965H147.757V63.1816C147.757 64.9956 147.595 66.6334 147.27 68.095C146.972 69.5565 146.405 70.9766 145.565 72.3579C144.753 73.7105 143.671 74.8468 142.318 75.7682C140.992 76.6609 139.247 77.3788 137.082 77.919C134.944 78.4606 132.455 78.7314 129.614 78.7314Z" fill="#FFA800"/>
<mask id="mask0_142_63" style="mask-type:luminance" maskUnits="userSpaceOnUse" x="24" y="21" width="133" height="66">
<path d="M156.149 21.9956H24.3535V86.4761H156.149V21.9956Z" fill="white"/>
<path d="M41.7203 77.8787V41.056H32.2224V30.2964H64.9373V41.056H55.4395V77.8787H41.7203ZM81.9717 77.8787H68.5368V30.2964H81.9717V49.1347H92.4032V30.2964H105.838V77.8787H92.4032V58.4729H81.9717V77.8787ZM129.614 78.7313C126.826 78.7313 124.351 78.4605 122.186 77.9188C120.048 77.3786 118.289 76.6479 116.909 75.7265C115.556 74.8066 114.433 73.6703 113.54 72.3162C112.674 70.9363 112.065 69.4877 111.714 67.9731C111.362 66.4571 111.186 64.7791 111.186 62.9379V30.2964H125.636V61.1109C125.636 64.5484 125.988 66.917 126.691 68.2167C127.422 69.4877 128.477 70.1239 129.857 70.1239C130.615 70.1239 131.278 70.002 131.846 69.7585C132.414 69.4876 132.942 69.042 133.429 68.4187C133.916 67.7696 134.281 66.8497 134.525 65.6589C134.795 64.441 134.931 62.9651 134.931 61.2327V30.2964H147.757V63.1814C147.757 64.9955 147.595 66.6333 147.27 68.0949C146.972 69.5564 146.405 70.9764 145.565 72.3578C144.753 73.7104 143.671 74.8467 142.318 75.768C140.992 76.6607 139.247 77.3786 137.082 77.9188C134.944 78.4605 132.455 78.7313 129.614 78.7313Z" fill="black"/>
</mask>
<g mask="url(#mask0_142_63)">
<path d="M41.7202 77.8788H34.5574V85.0433H41.7202V77.8788ZM41.7202 41.0561H48.883V33.8916H41.7202V41.0561ZM32.2224 41.0561H25.0596V48.2206H32.2224V41.0561ZM32.2224 30.2965V23.132H25.0596V30.2965H32.2224ZM64.9373 30.2965H72.1001V23.132H64.9373V30.2965ZM64.9373 41.0561V48.2206H72.1001V41.0561H64.9373ZM55.4394 41.0561V33.8916H48.2766V41.0561H55.4394ZM55.4394 77.8788V85.0433H62.6022V77.8788H55.4394ZM48.883 77.8788V41.0561H34.5574V77.8788H48.883ZM41.7202 33.8916H32.2224V48.2206H41.7202V33.8916ZM39.3852 41.0561V30.2965H25.0596V41.0561H39.3852ZM32.2224 37.461H64.9373V23.132H32.2224V37.461ZM57.7745 30.2965V41.0561H72.1001V30.2965H57.7745ZM64.9373 33.8916H55.4394V48.2206H64.9373V33.8916ZM48.2766 41.0561V77.8788H62.6022V41.0561H48.2766ZM55.4394 70.7143H41.7202V85.0433H55.4394V70.7143ZM81.9717 77.8788V85.0433H89.1345V77.8788H81.9717ZM68.5367 77.8788H61.3739V85.0433H68.5367V77.8788ZM68.5367 30.2965V23.132H61.3739V30.2965H68.5367ZM81.9717 30.2965H89.1345V23.132H81.9717V30.2965ZM81.9717 49.1348H74.8089V56.2993H81.9717V49.1348ZM92.4031 49.1348V56.2993H99.5659V49.1348H92.4031ZM92.4031 30.2965V23.132H85.2403V30.2965H92.4031ZM105.838 30.2965H113.001V23.132H105.838V30.2965ZM105.838 77.8788V85.0433H113.001V77.8788H105.838ZM92.4031 77.8788H85.2403V85.0433H92.4031V77.8788ZM92.4031 58.473H99.5659V51.3085H92.4031V58.473ZM81.9717 58.473V51.3085H74.8089V58.473H81.9717ZM81.9717 70.7143H68.5367V85.0433H81.9717V70.7143ZM75.6995 77.8788V30.2965H61.3739V77.8788H75.6995ZM68.5367 37.461H81.9717V23.132H68.5367V37.461ZM74.8089 30.2965V49.1348H89.1345V30.2965H74.8089ZM81.9717 56.2993H92.4031V41.9703H81.9717V56.2993ZM99.5659 49.1348V30.2965H85.2403V49.1348H99.5659ZM92.4031 37.461H105.838V23.132H92.4031V37.461ZM98.6753 30.2965V77.8788H113.001V30.2965H98.6753ZM105.838 70.7143H92.4031V85.0433H105.838V70.7143ZM99.5659 77.8788V58.473H85.2403V77.8788H99.5659ZM92.4031 51.3085H81.9717V65.6375H92.4031V51.3085ZM74.8089 58.473V77.8788H89.1345V58.473H74.8089ZM122.186 77.9189L120.428 84.8642L120.438 84.867L120.448 84.8699L122.186 77.9189ZM116.909 75.7266L112.881 81.6516L112.909 81.6702L112.936 81.6889L116.909 75.7266ZM113.54 72.3163L107.473 76.1249L107.517 76.1951L107.562 76.2639L113.54 72.3163ZM111.186 30.2965V23.132H104.023V30.2965H111.186ZM125.636 30.2965H132.799V23.132H125.636V30.2965ZM126.691 68.2167L120.393 71.6285L120.436 71.7073L120.48 71.7847L126.691 68.2167ZM131.846 69.7585L134.667 76.3442L134.798 76.2883L134.925 76.2281L131.846 69.7585ZM133.429 68.4188L139.07 72.835L139.115 72.7762L139.159 72.7175L133.429 68.4188ZM134.525 65.659L127.533 64.1043L127.519 64.1631L127.507 64.2232L134.525 65.659ZM134.931 30.2965V23.132H127.768V30.2965H134.931ZM147.757 30.2965H154.92V23.132H147.757V30.2965ZM147.27 68.0949L140.278 66.5403L140.264 66.6019L140.251 66.6649L147.27 68.0949ZM145.565 72.3578L139.444 68.6366L139.434 68.6538L139.423 68.671L145.565 72.3578ZM142.318 75.7681L146.319 81.7104L146.333 81.7018L146.346 81.6917L142.318 75.7681ZM137.082 77.9189L135.345 70.9693L135.334 70.9708L135.324 70.9736L137.082 77.9189ZM129.614 71.5669C127.274 71.5669 125.399 71.3376 123.923 70.9693L120.448 84.8699C123.302 85.5835 126.379 85.8959 129.614 85.8959V71.5669ZM123.944 70.9736C122.351 70.571 121.403 70.1139 120.882 69.7657L112.936 81.6889C115.175 83.1819 117.745 84.185 120.428 84.8642L123.944 70.9736ZM120.937 69.803C120.349 69.4032 119.891 68.9361 119.518 68.3701L107.562 76.2639C108.975 78.4047 110.763 80.2101 112.881 81.6516L120.937 69.803ZM119.608 68.509C119.144 67.7697 118.855 67.0575 118.691 66.3525L104.736 69.5923C105.276 71.9193 106.205 74.1031 107.473 76.1249L119.608 68.509ZM118.691 66.3525C118.482 65.4541 118.349 64.3293 118.349 62.9379H104.023C104.023 65.2277 104.241 67.4602 104.736 69.5923L118.691 66.3525ZM118.349 62.9379V30.2965H104.023V62.9379H118.349ZM111.186 37.461H125.636V23.132H111.186V37.461ZM118.473 30.2965V61.111H132.799V30.2965H118.473ZM118.473 61.111C118.473 64.5528 118.744 68.5836 120.393 71.6285L132.989 64.8036C133.205 65.2019 133.104 65.2177 132.985 64.4124C132.877 63.6916 132.799 62.6155 132.799 61.111H118.473ZM120.48 71.7847C122.39 75.1104 125.721 77.2884 129.857 77.2884V62.9594C130.309 62.9594 131.009 63.0784 131.727 63.5111C132.424 63.9309 132.776 64.4296 132.902 64.6474L120.48 71.7847ZM129.857 77.2884C131.372 77.2884 133.031 77.0463 134.667 76.3442L129.024 63.1744C129.272 63.0669 129.482 63.0139 129.629 62.9866C129.773 62.9594 129.854 62.9594 129.857 62.9594V77.2884ZM134.925 76.2281C136.718 75.3741 138.07 74.1131 139.07 72.835L127.788 64.004C127.814 63.9711 128.111 63.6028 128.766 63.2904L134.925 76.2281ZM139.159 72.7175C140.518 70.9063 141.183 68.8515 141.542 67.0948L127.507 64.2232C127.48 64.3551 127.456 64.4511 127.437 64.5156C127.418 64.58 127.408 64.6058 127.411 64.5987C127.414 64.5901 127.433 64.5413 127.477 64.4625C127.521 64.3823 127.592 64.2634 127.699 64.1201L139.159 72.7175ZM141.517 67.2123C141.935 65.3309 142.094 63.3033 142.094 61.2328H127.768C127.768 62.6284 127.656 63.5498 127.533 64.1043L141.517 67.2123ZM142.094 61.2328V30.2965H127.768V61.2328H142.094ZM134.931 37.461H147.757V23.132H134.931V37.461ZM140.594 30.2965V63.1815H154.92V30.2965H140.594ZM140.594 63.1815C140.594 64.5786 140.468 65.6819 140.278 66.5403L154.262 69.6482C154.721 67.5834 154.92 65.4125 154.92 63.1815H140.594ZM140.251 66.6649C140.132 67.251 139.89 67.9029 139.444 68.6366L151.686 76.0791C152.918 74.0501 153.812 71.8606 154.288 69.525L140.251 66.6649ZM139.423 68.671C139.165 69.1008 138.817 69.4849 138.29 69.8431L146.346 81.6917C148.525 80.2101 150.341 78.3201 151.706 76.0432L139.423 68.671ZM138.317 69.8244C137.895 70.1096 136.997 70.5552 135.345 70.9693L138.819 84.8699C141.496 84.2007 144.088 83.212 146.319 81.7104L138.317 69.8244ZM135.324 70.9736C133.898 71.3347 132.023 71.5669 129.614 71.5669V85.8959C132.887 85.8959 135.99 85.5864 138.84 84.8642L135.324 70.9736Z" fill="black"/>
</g>
</svg>
