<svg width="127" height="77" viewBox="0 0 127 77" fill="none" xmlns="http://www.w3.org/2000/svg">
<rect width="127" height="73" fill="white"/>
<mask id="path-2-outside-1_109_384" maskUnits="userSpaceOnUse" x="17" y="15" width="92" height="45" fill="black">
<rect fill="white" x="17" y="15" width="92" height="45"/>
<path d="M29.1229 54V28.3017H22.4929V20.7933H45.3296V28.3017H38.6996V54H29.1229ZM57.2205 54H47.8422V20.7933H57.2205V33.94H64.5022V20.7933H73.8805V54H64.5022V40.4567H57.2205V54ZM90.477 54.595C88.5314 54.595 86.8031 54.4061 85.292 54.0283C83.7998 53.6506 82.572 53.1406 81.6087 52.4983C80.6642 51.8561 79.8803 51.0628 79.257 50.1183C78.6525 49.155 78.2275 48.1444 77.982 47.0867C77.7364 46.0289 77.6137 44.8578 77.6137 43.5733V20.7933H87.7003V42.2983C87.7003 44.6972 87.9459 46.35 88.437 47.2567C88.947 48.1444 89.6837 48.5883 90.647 48.5883C91.1759 48.5883 91.6387 48.5033 92.0353 48.3333C92.432 48.1444 92.8003 47.8328 93.1403 47.3983C93.4803 46.945 93.7353 46.3028 93.9053 45.4717C94.0942 44.6217 94.1887 43.5922 94.1887 42.3833V20.7933H103.142V43.7433C103.142 45.0089 103.029 46.1517 102.802 47.1717C102.594 48.1917 102.198 49.1833 101.612 50.1467C101.045 51.0911 100.29 51.8844 99.3453 52.5267C98.4198 53.15 97.2014 53.6506 95.6903 54.0283C94.1981 54.4061 92.4603 54.595 90.477 54.595Z"/>
</mask>
<path d="M29.1229 54V28.3017H22.4929V20.7933H45.3296V28.3017H38.6996V54H29.1229ZM57.2205 54H47.8422V20.7933H57.2205V33.94H64.5022V20.7933H73.8805V54H64.5022V40.4567H57.2205V54ZM90.477 54.595C88.5314 54.595 86.8031 54.4061 85.292 54.0283C83.7998 53.6506 82.572 53.1406 81.6087 52.4983C80.6642 51.8561 79.8803 51.0628 79.257 50.1183C78.6525 49.155 78.2275 48.1444 77.982 47.0867C77.7364 46.0289 77.6137 44.8578 77.6137 43.5733V20.7933H87.7003V42.2983C87.7003 44.6972 87.9459 46.35 88.437 47.2567C88.947 48.1444 89.6837 48.5883 90.647 48.5883C91.1759 48.5883 91.6387 48.5033 92.0353 48.3333C92.432 48.1444 92.8003 47.8328 93.1403 47.3983C93.4803 46.945 93.7353 46.3028 93.9053 45.4717C94.0942 44.6217 94.1887 43.5922 94.1887 42.3833V20.7933H103.142V43.7433C103.142 45.0089 103.029 46.1517 102.802 47.1717C102.594 48.1917 102.198 49.1833 101.612 50.1467C101.045 51.0911 100.29 51.8844 99.3453 52.5267C98.4198 53.15 97.2014 53.6506 95.6903 54.0283C94.1981 54.4061 92.4603 54.595 90.477 54.595Z" fill="#FFA800"/>
<path d="M29.1229 54H24.1229V59H29.1229V54ZM29.1229 28.3017H34.1229V23.3017H29.1229V28.3017ZM22.4929 28.3017H17.4929V33.3017H22.4929V28.3017ZM22.4929 20.7933V15.7933H17.4929V20.7933H22.4929ZM45.3296 20.7933H50.3296V15.7933H45.3296V20.7933ZM45.3296 28.3017V33.3017H50.3296V28.3017H45.3296ZM38.6996 28.3017V23.3017H33.6996V28.3017H38.6996ZM38.6996 54V59H43.6996V54H38.6996ZM34.1229 54V28.3017H24.1229V54H34.1229ZM29.1229 23.3017H22.4929V33.3017H29.1229V23.3017ZM27.4929 28.3017V20.7933H17.4929V28.3017H27.4929ZM22.4929 25.7933H45.3296V15.7933H22.4929V25.7933ZM40.3296 20.7933V28.3017H50.3296V20.7933H40.3296ZM45.3296 23.3017H38.6996V33.3017H45.3296V23.3017ZM33.6996 28.3017V54H43.6996V28.3017H33.6996ZM38.6996 49H29.1229V59H38.6996V49ZM57.2205 54V59H62.2205V54H57.2205ZM47.8422 54H42.8422V59H47.8422V54ZM47.8422 20.7933V15.7933H42.8422V20.7933H47.8422ZM57.2205 20.7933H62.2205V15.7933H57.2205V20.7933ZM57.2205 33.94H52.2205V38.94H57.2205V33.94ZM64.5022 33.94V38.94H69.5022V33.94H64.5022ZM64.5022 20.7933V15.7933H59.5022V20.7933H64.5022ZM73.8805 20.7933H78.8805V15.7933H73.8805V20.7933ZM73.8805 54V59H78.8805V54H73.8805ZM64.5022 54H59.5022V59H64.5022V54ZM64.5022 40.4567H69.5022V35.4567H64.5022V40.4567ZM57.2205 40.4567V35.4567H52.2205V40.4567H57.2205ZM57.2205 49H47.8422V59H57.2205V49ZM52.8422 54V20.7933H42.8422V54H52.8422ZM47.8422 25.7933H57.2205V15.7933H47.8422V25.7933ZM52.2205 20.7933V33.94H62.2205V20.7933H52.2205ZM57.2205 38.94H64.5022V28.94H57.2205V38.94ZM69.5022 33.94V20.7933H59.5022V33.94H69.5022ZM64.5022 25.7933H73.8805V15.7933H64.5022V25.7933ZM68.8805 20.7933V54H78.8805V20.7933H68.8805ZM73.8805 49H64.5022V59H73.8805V49ZM69.5022 54V40.4567H59.5022V54H69.5022ZM64.5022 35.4567H57.2205V45.4567H64.5022V35.4567ZM52.2205 40.4567V54H62.2205V40.4567H52.2205ZM85.292 54.0283L84.0649 58.8754L84.0721 58.8772L84.0793 58.879L85.292 54.0283ZM81.6087 52.4983L78.7971 56.633L78.8161 56.6459L78.8352 56.6586L81.6087 52.4983ZM79.257 50.1183L75.0217 52.7758L75.0522 52.8245L75.0839 52.8725L79.257 50.1183ZM77.982 47.0867L82.8525 45.956L77.982 47.0867ZM77.6137 20.7933V15.7933H72.6137V20.7933H77.6137ZM87.7003 20.7933H92.7003V15.7933H87.7003V20.7933ZM88.437 47.2567L84.0405 49.6381L84.0703 49.6931L84.1015 49.7473L88.437 47.2567ZM92.0353 48.3333L94.0049 52.9291L94.0958 52.8901L94.185 52.8476L92.0353 48.3333ZM93.1403 47.3983L97.0778 50.4799L97.1095 50.4394L97.1403 50.3983L93.1403 47.3983ZM93.9053 45.4717L89.0244 44.387L89.0152 44.4283L89.0067 44.4697L93.9053 45.4717ZM94.1887 20.7933V15.7933H89.1887V20.7933H94.1887ZM103.142 20.7933H108.142V15.7933H103.142V20.7933ZM102.802 47.1717L97.9211 46.087L97.9114 46.1302L97.9026 46.1736L102.802 47.1717ZM101.612 50.1467L97.3394 47.5496L97.3319 47.5619L97.3245 47.5742L101.612 50.1467ZM99.3453 52.5267L102.138 56.6739L102.148 56.6676L102.157 56.6613L99.3453 52.5267ZM95.6903 54.0283L94.4776 49.1776L94.4704 49.1794L94.4632 49.1813L95.6903 54.0283ZM90.477 49.595C88.8436 49.595 87.5353 49.4353 86.5047 49.1776L84.0793 58.879C86.0709 59.377 88.2193 59.595 90.477 59.595V49.595ZM86.5191 49.1813C85.4072 48.8997 84.7458 48.5805 84.3822 48.3381L78.8352 56.6586C80.3982 57.7006 82.1924 58.4014 84.0649 58.8754L86.5191 49.1813ZM84.4202 48.3637C84.0102 48.0849 83.6905 47.7588 83.43 47.3641L75.0839 52.8725C76.0701 54.3667 77.3182 55.6273 78.7971 56.633L84.4202 48.3637ZM83.4923 47.4609C83.1688 46.9453 82.9667 46.4479 82.8525 45.956L73.1115 48.2173C73.4884 49.841 74.1363 51.3647 75.0217 52.7758L83.4923 47.4609ZM82.8525 45.956C82.7069 45.3291 82.6137 44.5443 82.6137 43.5733H72.6137C72.6137 45.1713 72.7659 46.7287 73.1115 48.2173L82.8525 45.956ZM82.6137 43.5733V20.7933H72.6137V43.5733H82.6137ZM77.6137 25.7933H87.7003V15.7933H77.6137V25.7933ZM82.7003 20.7933V42.2983H92.7003V20.7933H82.7003ZM82.7003 42.2983C82.7003 44.6998 82.8895 47.513 84.0405 49.6381L92.8334 44.8753C92.9841 45.1534 92.9137 45.1642 92.8302 44.6023C92.7554 44.0987 92.7003 43.3481 92.7003 42.2983H82.7003ZM84.1015 49.7473C85.4346 52.0679 87.7598 53.5883 90.647 53.5883V43.5883C90.9627 43.5883 91.4513 43.6708 91.9525 43.9728C92.439 44.2659 92.6849 44.6135 92.7725 44.766L84.1015 49.7473ZM90.647 53.5883C91.7043 53.5883 92.8624 53.4187 94.0049 52.9291L90.0657 43.7376C90.2389 43.6634 90.3852 43.6256 90.4875 43.6068C90.5881 43.5884 90.6451 43.5883 90.647 43.5883V53.5883ZM94.185 52.8476C95.436 52.2519 96.3798 51.3719 97.0778 50.4799L89.2028 44.3168C89.2209 44.2937 89.4279 44.037 89.8856 43.819L94.185 52.8476ZM97.1403 50.3983C98.0887 49.1338 98.553 47.7004 98.8039 46.4736L89.0067 44.4697C88.9879 44.5617 88.9708 44.6288 88.9578 44.6738C88.9447 44.719 88.9374 44.7367 88.9395 44.7315C88.9415 44.7264 88.9552 44.6925 88.9856 44.6366C89.016 44.5806 89.0657 44.4979 89.1403 44.3983L97.1403 50.3983ZM98.7863 46.5563C99.0781 45.2429 99.1887 43.8276 99.1887 42.3833H89.1887C89.1887 43.3568 89.1103 44.0005 89.0244 44.387L98.7863 46.5563ZM99.1887 42.3833V20.7933H89.1887V42.3833H99.1887ZM94.1887 25.7933H103.142V15.7933H94.1887V25.7933ZM98.142 20.7933V43.7433H108.142V20.7933H98.142ZM98.142 43.7433C98.142 44.7177 98.0541 45.4885 97.9211 46.087L107.683 48.2563C108.003 46.8148 108.142 45.3 108.142 43.7433H98.142ZM97.9026 46.1736C97.8191 46.5833 97.6502 47.0382 97.3394 47.5496L105.885 52.7437C106.745 51.3285 107.369 49.8 107.701 48.1697L97.9026 46.1736ZM97.3245 47.5742C97.1447 47.8739 96.9016 48.1419 96.5338 48.392L102.157 56.6613C103.678 55.627 104.946 54.3083 105.899 52.7191L97.3245 47.5742ZM96.5523 48.3795C96.2581 48.5777 95.6313 48.8892 94.4776 49.1776L96.903 58.879C98.7715 58.4119 100.581 57.7223 102.138 56.6739L96.5523 48.3795ZM94.4632 49.1813C93.468 49.4332 92.1587 49.595 90.477 49.595V59.595C92.7619 59.595 94.9282 59.379 96.9174 58.8754L94.4632 49.1813Z" fill="black" mask="url(#path-2-outside-1_109_384)"/>
</svg>
