<svg width="183" height="107" viewBox="0 0 183 107" fill="none" xmlns="http://www.w3.org/2000/svg">
<path d="M182.87 0H0.934814V106.035H182.87V0Z" fill="white"/>
<path d="M35.0125 78.8095H22.7957L26.5705 31.2276H45.6063L49.1791 47.183L50.8022 55.2622L52.345 47.2237L55.511 31.2276H72.4768L75.9679 78.8095H63.3442L61.2742 50.8369L60.7871 40.5249L54.577 74.0595H43.9832L36.5153 40.5249L36.2717 50.8369L35.0125 78.8095ZM93.2818 60.4182C93.2818 64.9113 93.6199 68.0373 94.2975 69.7966C95.0009 71.5559 96.2186 72.4356 97.9505 72.4356C99.2212 72.4356 100.182 72.1242 100.831 71.5017C101.482 70.8522 101.969 69.5395 102.293 67.5637C102.645 65.5608 102.821 62.57 102.821 58.5913V48.807C102.821 44.9366 102.442 42.0541 101.684 40.1595C100.926 38.2647 99.6825 37.3175 97.9505 37.3175C96.2186 37.3175 95.0009 38.2513 94.2975 40.1188C93.6199 41.9593 93.2818 45.3289 93.2818 50.2279V60.4182ZM97.0982 79.6621C94.8519 79.6621 92.822 79.4591 91.0098 79.0531C89.2234 78.6472 87.6805 78.0787 86.3826 77.348C85.0833 76.6172 83.9473 75.6834 82.9731 74.5466C82.0262 73.4099 81.2541 72.192 80.6595 70.8927C80.0908 69.5935 79.631 68.078 79.2786 66.3457C78.9276 64.5864 78.684 62.8407 78.548 61.1085C78.4133 59.3492 78.346 57.3733 78.346 55.181C78.346 51.933 78.5078 49.1046 78.833 46.6958C79.184 44.2869 79.8201 42.027 80.7398 39.9159C81.6609 37.7776 82.8786 36.0455 84.3928 34.7192C85.9357 33.3929 87.9112 32.3509 90.3193 31.593C92.7546 30.8352 95.6226 30.4563 98.9247 30.4563C101.197 30.4563 103.24 30.6728 105.053 31.1058C106.867 31.5119 108.423 32.0802 109.72 32.811C111.02 33.5418 112.143 34.4891 113.09 35.653C114.064 36.8168 114.835 38.0618 115.403 39.388C115.999 40.6872 116.472 42.2164 116.824 43.9757C117.175 45.735 117.419 47.4807 117.555 49.213C117.69 50.9452 117.757 52.9074 117.757 55.0998C117.757 58.3477 117.582 61.1761 117.23 63.585C116.877 65.9938 116.243 68.2538 115.322 70.365C114.402 72.449 113.171 74.1542 111.629 75.4805C110.086 76.7795 108.097 77.8081 105.662 78.5659C103.254 79.2967 100.399 79.6621 97.0982 79.6621ZM134.882 78.8095H121.975V35.044L119.986 31.2276H134.922L142.391 46.6552L149.534 62.0422L147.546 43.9757V31.2276H160.493V78.8095H148.114L138.453 60.0123L132.487 48.2386L134.882 63.8285V78.8095Z" fill="#FFA800"/>
<mask id="mask0_142_61" style="mask-type:luminance" maskUnits="userSpaceOnUse" x="13" y="22" width="156" height="66">
<path d="M168.544 22.9264H13.8279V87.4069H168.544V22.9264Z" fill="white"/>
<path d="M35.0125 78.8095H22.7957L26.5705 31.2276H45.6063L49.1791 47.183L50.8022 55.2622L52.345 47.2237L55.511 31.2276H72.4768L75.9679 78.8095H63.3442L61.2742 50.8369L60.7871 40.5249L54.577 74.0595H43.9832L36.5153 40.5249L36.2717 50.8369L35.0125 78.8095ZM93.2818 60.4182C93.2818 64.9113 93.6199 68.0373 94.2975 69.7966C95.0009 71.5559 96.2186 72.4356 97.9505 72.4356C99.2212 72.4356 100.182 72.1242 100.831 71.5017C101.482 70.8522 101.969 69.5395 102.293 67.5637C102.645 65.5608 102.821 62.57 102.821 58.5913V48.807C102.821 44.9366 102.442 42.0541 101.684 40.1595C100.926 38.2647 99.6825 37.3175 97.9505 37.3175C96.2186 37.3175 95.0009 38.2513 94.2975 40.1188C93.6199 41.9593 93.2818 45.3289 93.2818 50.2279V60.4182ZM97.0982 79.6621C94.8519 79.6621 92.822 79.4591 91.0098 79.0531C89.2234 78.6472 87.6805 78.0787 86.3826 77.348C85.0833 76.6172 83.9473 75.6834 82.9731 74.5466C82.0262 73.4099 81.2541 72.192 80.6595 70.8927C80.0908 69.5935 79.631 68.078 79.2786 66.3457C78.9276 64.5864 78.684 62.8407 78.548 61.1085C78.4133 59.3492 78.346 57.3733 78.346 55.181C78.346 51.933 78.5078 49.1046 78.833 46.6958C79.184 44.2869 79.8201 42.027 80.7398 39.9159C81.6609 37.7776 82.8786 36.0455 84.3928 34.7192C85.9357 33.3929 87.9112 32.3509 90.3193 31.593C92.7546 30.8352 95.6226 30.4563 98.9247 30.4563C101.197 30.4563 103.24 30.6728 105.053 31.1058C106.867 31.5119 108.423 32.0802 109.72 32.811C111.02 33.5418 112.143 34.4891 113.09 35.653C114.064 36.8168 114.835 38.0618 115.403 39.388C115.999 40.6872 116.472 42.2164 116.824 43.9757C117.175 45.735 117.419 47.4807 117.555 49.213C117.69 50.9452 117.757 52.9074 117.757 55.0998C117.757 58.3477 117.582 61.1761 117.23 63.585C116.877 65.9938 116.243 68.2538 115.322 70.365C114.402 72.449 113.171 74.1542 111.629 75.4805C110.086 76.7795 108.097 77.8081 105.662 78.5659C103.254 79.2967 100.399 79.6621 97.0982 79.6621ZM134.882 78.8095H121.975V35.044L119.986 31.2276H134.922L142.391 46.6552L149.534 62.0422L147.546 43.9757V31.2276H160.493V78.8095H148.114L138.453 60.0123L132.487 48.2386L134.882 63.8285V78.8095Z" fill="black"/>
</mask>
<g mask="url(#mask0_142_61)">
<path d="M35.0126 78.8095V85.974H41.8602L42.1682 79.1315L35.0126 78.8095ZM22.7957 78.8095L15.6559 78.2428L15.0427 85.974H22.7957V78.8095ZM26.5705 31.2276V24.0631H19.9535L19.4306 30.6609L26.5705 31.2276ZM45.6063 31.2276L52.5972 29.6621L51.3437 24.0631H45.6063V31.2276ZM49.1791 47.1829L56.2015 45.7711L56.1858 45.6941L56.1686 45.6175L49.1791 47.1829ZM50.8022 55.2622L43.7798 56.674L57.8361 56.6126L50.8022 55.2622ZM52.3451 47.2236L45.3184 45.8323L45.3141 45.8528L45.3098 45.8733L52.3451 47.2236ZM55.5111 31.2276V24.0631H49.6275L48.4844 29.8362L55.5111 31.2276ZM72.4768 31.2276L79.621 30.7033L79.1339 24.0631H72.4768V31.2276ZM75.968 78.8095V85.974H83.6751L83.1107 78.2852L75.968 78.8095ZM63.3443 78.8095L56.2015 79.3384L56.6915 85.974H63.3443V78.8095ZM61.2742 50.8368L54.12 51.175L54.1243 51.2704L54.1315 51.3657L61.2742 50.8368ZM60.7872 40.5248L67.9414 40.1866L53.7447 39.2199L60.7872 40.5248ZM54.577 74.0594V81.2239H60.535L61.6195 75.3644L54.577 74.0594ZM43.9833 74.0594L36.9924 75.6173L38.2401 81.2239H43.9833V74.0594ZM36.5153 40.5248L43.5062 38.967L29.354 40.3556L36.5153 40.5248ZM36.2718 50.8368L43.4274 51.1589L43.4303 51.0826L43.4317 51.0061L36.2718 50.8368ZM35.0126 71.645H22.7957V85.974H35.0126V71.645ZM29.9356 79.3762L33.7104 31.7943L19.4306 30.6609L15.6559 78.2428L29.9356 79.3762ZM26.5705 38.3921H45.6063V24.0631H26.5705V38.3921ZM38.6169 32.7932L42.1897 48.7485L56.1686 45.6175L52.5972 29.6621L38.6169 32.7932ZM42.1567 48.5949L43.7798 56.674L57.8246 53.8502L56.2015 45.7711L42.1567 48.5949ZM57.8361 56.6126L59.379 48.574L45.3098 45.8733L43.7684 53.9118L57.8361 56.6126ZM59.3718 48.615L62.5377 32.6189L48.4844 29.8362L45.3184 45.8323L59.3718 48.615ZM55.5111 38.3921H72.4768V24.0631H55.5111V38.3921ZM65.3327 31.7519L68.8238 79.3338L83.1107 78.2852L79.621 30.7033L65.3327 31.7519ZM75.968 71.645H63.3443V85.974H75.968V71.645ZM70.487 78.2806L68.417 50.3079L54.1315 51.3657L56.2015 79.3384L70.487 78.2806ZM68.4284 50.4988L67.9414 40.1866L53.633 40.8628L54.12 51.175L68.4284 50.4988ZM53.7447 39.2199L47.5346 72.7545L61.6195 75.3644L67.8296 41.8296L53.7447 39.2199ZM54.577 66.8949H43.9833V81.2239H54.577V66.8949ZM50.9741 72.5016L43.5062 38.967L29.523 42.0825L36.9924 75.6173L50.9741 72.5016ZM29.354 40.3556L29.1104 50.6677L43.4317 51.0061L43.6753 40.6939L29.354 40.3556ZM29.1162 50.5149L27.8569 78.4875L42.1682 79.1315L43.4274 51.1589L29.1162 50.5149ZM94.2976 69.7965L87.6118 72.3684L87.629 72.413L87.6462 72.4574L94.2976 69.7965ZM100.831 71.5017L105.788 76.6743L105.843 76.6216L105.897 76.5677L100.831 71.5017ZM102.293 67.5636L95.2387 66.3239L95.2316 66.3627L95.2259 66.4014L102.293 67.5636ZM94.2976 40.1187L87.5946 37.5925L87.5846 37.6195L87.5746 37.6465L94.2976 40.1187ZM91.0098 79.0531L89.4226 86.0395L89.4326 86.042L89.4441 86.0445L91.0098 79.0531ZM82.9732 74.5466L77.4707 79.1332L77.5022 79.1714L77.5338 79.2093L82.9732 74.5466ZM80.6596 70.8927L74.0971 73.7644L74.1214 73.8213L74.1472 73.8779L80.6596 70.8927ZM79.2786 66.3457L72.2548 67.7506L72.2577 67.7612L72.2591 67.7718L79.2786 66.3457ZM78.548 61.1084L71.4067 61.6578V61.6664L78.548 61.1084ZM78.8331 46.6957L71.7448 45.6603L71.7391 45.6993L71.7333 45.7384L78.8331 46.6957ZM80.7398 39.9158L87.3067 42.7786L87.3124 42.7633L87.3196 42.7481L80.7398 39.9158ZM84.3928 34.7191L79.7241 29.2861L79.6998 29.3066L79.6769 29.3273L84.3928 34.7191ZM90.3194 31.593L88.192 24.7519L88.1805 24.7553L88.1691 24.7588L90.3194 31.593ZM105.053 31.1058L103.39 38.0744L103.439 38.0862L103.489 38.0973L105.053 31.1058ZM113.09 35.653L107.534 40.1756L107.566 40.214L107.597 40.252L113.09 35.653ZM115.403 39.388L108.819 42.2102L108.855 42.2922L108.892 42.3731L115.403 39.388ZM115.322 70.365L121.874 73.2588L121.881 73.2434L121.889 73.2278L115.322 70.365ZM111.629 75.4804L116.243 80.9605L116.27 80.937L116.297 80.9134L111.629 75.4804ZM105.662 78.5659L107.741 85.4219L107.765 85.4144L107.789 85.407L105.662 78.5659ZM86.1191 60.4182C86.1191 64.9048 86.4099 69.242 87.6118 72.3684L100.982 67.2246C100.989 67.2411 100.937 67.108 100.866 66.7634C100.797 66.4291 100.723 65.969 100.657 65.3616C100.525 64.1371 100.445 62.5064 100.445 60.4182H86.1191ZM87.6462 72.4574C88.3711 74.2706 89.5801 76.1652 91.5442 77.5838C93.5541 79.0356 95.8175 79.6 97.9506 79.6V65.271C98.3517 65.271 99.1396 65.3954 99.9318 65.9677C100.678 66.5066 100.926 67.0818 100.947 67.1356L87.6462 72.4574ZM97.9506 79.6C100.301 79.6 103.338 79.0228 105.788 76.6743L95.8762 66.3291C97.0266 65.2256 98.1425 65.271 97.9506 65.271V79.6ZM105.897 76.5677C107.231 75.2332 107.967 73.6873 108.4 72.5228C108.855 71.2952 109.153 69.9914 109.361 68.7257L95.2259 66.4014C95.17 66.7414 95.1141 67.0055 95.0654 67.2037C95.0153 67.4043 94.9795 67.5086 94.9694 67.5371C94.9565 67.5697 94.9895 67.4747 95.0912 67.2988C95.1915 67.1257 95.4006 66.8021 95.7674 66.4357L105.897 76.5677ZM109.348 68.8032C109.811 66.1679 109.984 62.6714 109.984 58.5913H95.6585C95.6585 62.4684 95.4794 64.9536 95.2387 66.3239L109.348 68.8032ZM109.984 58.5913V48.807H95.6585V58.5913H109.984ZM109.984 48.807C109.984 44.6935 109.613 40.6939 108.335 37.4985L95.0339 42.8202C95.2717 43.4141 95.6585 45.1794 95.6585 48.807H109.984ZM108.335 37.4985C107.617 35.7051 106.443 33.79 104.52 32.3262C102.516 30.8016 100.205 30.1529 97.9506 30.1529V44.4819C97.4263 44.4819 96.604 44.307 95.8447 43.7296C95.1671 43.2131 94.9938 42.719 95.0339 42.8202L108.335 37.4985ZM97.9506 30.1529C95.7215 30.1529 93.3979 30.7841 91.3794 32.3321C89.4355 33.8231 88.2779 35.7763 87.5946 37.5925L100.999 42.6451C101.019 42.5936 100.823 43.1463 100.097 43.7036C99.2958 44.3177 98.4463 44.4819 97.9506 44.4819V30.1529ZM87.5746 37.6465C86.407 40.823 86.1191 45.3806 86.1191 50.2278H100.445C100.445 47.922 100.526 46.1101 100.662 44.7421C100.731 44.0626 100.809 43.5412 100.883 43.1558C100.92 42.9658 100.955 42.8242 100.98 42.7247C101.008 42.624 101.023 42.5832 101.021 42.5911L87.5746 37.6465ZM86.1191 50.2278V60.4182H100.445V50.2278H86.1191ZM97.0982 72.4976C95.2731 72.4976 93.7804 72.3316 92.5742 72.0617L89.4441 86.0445C91.8651 86.5864 94.4308 86.8266 97.0982 86.8266V72.4976ZM92.5971 72.0667C91.3365 71.7802 90.4712 71.4283 89.8939 71.1035L82.8701 83.5924C84.8914 84.7291 87.1104 85.5139 89.4226 86.0395L92.5971 72.0667ZM89.8939 71.1035C89.328 70.7852 88.8424 70.3877 88.4112 69.8839L77.5338 79.2093C79.0508 80.9789 80.8387 82.449 82.8701 83.5924L89.8939 71.1035ZM88.4756 69.96C87.9198 69.2927 87.4929 68.6105 87.1706 67.9075L74.1472 73.8779C75.0168 75.7733 76.1313 77.5269 77.4707 79.1332L88.4756 69.96ZM87.2207 68.021C86.8984 67.2832 86.5732 66.271 86.2982 64.9195L72.2591 67.7718C72.6888 69.8848 73.2834 71.9038 74.0971 73.7644L87.2207 68.021ZM86.3025 64.9406C86.0045 63.4519 85.8025 61.9891 85.6893 60.5503L71.4067 61.6664C71.5657 63.6921 71.8494 65.7208 72.2548 67.7506L86.3025 64.9406ZM85.6908 60.5589C85.5719 59.0198 85.5088 57.2317 85.5088 55.1809H71.1832C71.1832 57.5149 71.2549 59.6783 71.4067 61.6578L85.6908 60.5589ZM85.5088 55.1809C85.5088 52.1541 85.6607 49.6597 85.9314 47.6531L71.7333 45.7384C71.3552 48.5496 71.1832 51.712 71.1832 55.1809H85.5088ZM85.92 47.7313C86.185 45.9161 86.6549 44.2741 87.3067 42.7786L74.1744 37.0529C72.9854 39.7797 72.1832 42.6577 71.7448 45.6603L85.92 47.7313ZM87.3196 42.7481C87.8826 41.4387 88.5143 40.6319 89.1103 40.111L79.6769 29.3273C77.2415 31.4589 75.4379 34.1165 74.1615 37.0836L87.3196 42.7481ZM89.063 40.1521C89.7134 39.592 90.7706 38.9618 92.4682 38.4273L88.1691 24.7588C85.0518 25.7399 82.1566 27.1938 79.7241 29.2861L89.063 40.1521ZM92.4467 38.4341C94.0254 37.943 96.1441 37.6208 98.9247 37.6208V23.2917C95.1012 23.2917 91.484 23.7274 88.192 24.7519L92.4467 38.4341ZM98.9247 37.6208C100.754 37.6208 102.225 37.7963 103.39 38.0744L106.716 24.1373C104.255 23.5494 101.639 23.2917 98.9247 23.2917V37.6208ZM103.489 38.0973C104.78 38.3865 105.648 38.7396 106.209 39.0554L113.233 26.5666C111.196 25.4209 108.953 24.6371 106.618 24.1144L103.489 38.0973ZM106.209 39.0554C106.719 39.3425 107.15 39.704 107.534 40.1756L118.645 31.1301C117.134 29.2741 115.32 27.741 113.233 26.5666L106.209 39.0554ZM107.597 40.252C108.146 40.908 108.54 41.5591 108.819 42.2102L121.987 36.5657C121.129 34.5645 119.982 32.7255 118.582 31.0538L107.597 40.252ZM108.892 42.3731C109.206 43.0582 109.531 44.0346 109.801 45.3808L123.848 42.5706C123.413 40.3983 122.791 38.3161 121.914 36.4029L108.892 42.3731ZM109.801 45.3808C110.097 46.8693 110.301 48.3323 110.414 49.7709L124.695 48.6549C124.537 46.6291 124.254 44.6006 123.848 42.5706L109.801 45.3808ZM110.414 49.7709C110.531 51.277 110.594 53.0479 110.594 55.0997H124.92C124.92 52.7668 124.848 50.6133 124.695 48.6549L110.414 49.7709ZM110.594 55.0997C110.594 58.1078 110.431 60.575 110.142 62.5494L124.317 64.6205C124.732 61.7772 124.92 58.5875 124.92 55.0997H110.594ZM110.142 62.5494C109.877 64.3646 109.408 66.0065 108.756 67.502L121.889 73.2278C123.076 70.5011 123.878 67.623 124.317 64.6205L110.142 62.5494ZM108.769 67.4709C108.229 68.6968 107.6 69.4961 106.96 70.0474L116.297 80.9134C118.741 78.8123 120.576 76.2012 121.874 73.2588L108.769 67.4709ZM107.014 70.0001C106.368 70.5452 105.291 71.1781 103.535 71.7248L107.789 85.407C110.904 84.4379 113.805 83.0139 116.243 80.9605L107.014 70.0001ZM103.582 71.7099C102.02 72.1839 99.9003 72.4976 97.0982 72.4976V86.8266C100.897 86.8266 104.486 86.4094 107.741 85.4219L103.582 71.7099ZM134.882 78.8095V85.974H142.045V78.8095H134.882ZM121.975 78.8095H114.812V85.974H121.975V78.8095ZM121.975 35.044H129.137V33.2887L128.327 31.7321L121.975 35.044ZM119.986 31.2276V24.0631H108.175L113.634 34.5394L119.986 31.2276ZM134.922 31.2276L141.37 28.1053L139.413 24.0631H134.922V31.2276ZM142.391 46.6552L148.888 43.6376L148.864 43.5851L148.838 43.5329L142.391 46.6552ZM149.534 62.0421L143.039 65.0597L156.654 61.258L149.534 62.0421ZM147.546 43.9757H140.383V44.369L140.426 44.7599L147.546 43.9757ZM147.546 31.2276V24.0631H140.383V31.2276H147.546ZM160.493 31.2276H167.656V24.0631H160.493V31.2276ZM160.493 78.8095V85.974H167.656V78.8095H160.493ZM148.114 78.8095L141.744 82.0849L143.742 85.974H148.114V78.8095ZM138.453 60.0123L132.066 63.2515L132.074 63.2695L132.084 63.2876L138.453 60.0123ZM132.487 48.2385L138.876 44.9993L125.407 49.3265L132.487 48.2385ZM134.882 63.8285H142.045V63.2813L141.962 62.7405L134.882 63.8285ZM134.882 71.645H121.975V85.974H134.882V71.645ZM129.137 78.8095V35.044H114.812V78.8095H129.137ZM128.327 31.7321L126.338 27.9159L113.634 34.5394L115.623 38.3557L128.327 31.7321ZM119.986 38.3921H134.922V24.0631H119.986V38.3921ZM128.476 34.35L135.945 49.7775L148.838 43.5329L141.37 28.1053L128.476 34.35ZM135.895 49.6727L143.039 65.0597L156.031 59.0246L148.888 43.6376L135.895 49.6727ZM156.654 61.258L154.666 43.1914L140.426 44.7599L142.414 62.8263L156.654 61.258ZM154.709 43.9757V31.2276H140.383V43.9757H154.709ZM147.546 38.3921H160.493V24.0631H147.546V38.3921ZM153.33 31.2276V78.8095H167.656V31.2276H153.33ZM160.493 71.645H148.114V85.974H160.493V71.645ZM154.485 75.534L144.824 56.7368L132.084 63.2876L141.744 82.0849L154.485 75.534ZM144.843 56.7729L138.876 44.9993L126.099 51.4778L132.066 63.2515L144.843 56.7729ZM125.407 49.3265L127.802 64.9165L141.962 62.7405L139.566 47.1505L125.407 49.3265ZM127.719 63.8285V78.8095H142.045V63.8285H127.719Z" fill="black"/>
</g>
</svg>
