<svg width="127" height="74" viewBox="0 0 127 74" fill="none" xmlns="http://www.w3.org/2000/svg">
<rect width="127" height="74" fill="white"/>
<mask id="path-2-outside-1_109_383" maskUnits="userSpaceOnUse" x="9" y="16" width="108" height="45" fill="black">
<rect fill="white" x="9" y="16" width="108" height="45"/>
<path d="M23.7884 55H15.26L17.895 21.7933H31.1834L33.6767 32.9283L34.81 38.5667L35.8867 32.9567L38.0967 21.7933H49.94L52.3767 55H43.565L42.12 35.4783L41.78 28.2817L37.445 51.685H30.05L24.8367 28.2817L24.6667 35.4783L23.7884 55ZM64.4633 42.165C64.4633 45.3006 64.6994 47.4822 65.1716 48.71C65.6627 49.9378 66.5127 50.5517 67.7216 50.5517C68.6094 50.5517 69.28 50.3344 69.7333 49.9C70.1866 49.4467 70.5266 48.5306 70.7533 47.1517C70.9988 45.7539 71.1216 43.6667 71.1216 40.89V34.0617C71.1216 31.3606 70.8572 29.3489 70.3283 28.0267C69.7994 26.7044 68.9305 26.0433 67.7216 26.0433C66.5127 26.0433 65.6627 26.695 65.1716 27.9983C64.6994 29.2828 64.4633 31.6344 64.4633 35.0533V42.165ZM67.1266 55.595C65.5588 55.595 64.1422 55.4533 62.8766 55.17C61.63 54.8867 60.5533 54.49 59.6466 53.98C58.74 53.47 57.9466 52.8183 57.2666 52.025C56.6055 51.2317 56.0672 50.3817 55.6516 49.475C55.255 48.5683 54.9338 47.5106 54.6883 46.3017C54.4427 45.0739 54.2727 43.8556 54.1783 42.6467C54.0838 41.4189 54.0366 40.04 54.0366 38.51C54.0366 36.2433 54.15 34.2694 54.3766 32.5883C54.6222 30.9072 55.0661 29.33 55.7083 27.8567C56.3505 26.3644 57.2005 25.1556 58.2583 24.23C59.335 23.3044 60.7138 22.5772 62.395 22.0483C64.095 21.5194 66.0972 21.255 68.4016 21.255C69.9883 21.255 71.4144 21.4061 72.68 21.7083C73.9455 21.9917 75.0316 22.3883 75.9383 22.8983C76.845 23.4083 77.6288 24.0694 78.29 24.8817C78.97 25.6939 79.5083 26.5628 79.905 27.4883C80.3205 28.395 80.6511 29.4622 80.8966 30.69C81.1422 31.9178 81.3122 33.1361 81.4066 34.345C81.5011 35.5539 81.5483 36.9233 81.5483 38.4533C81.5483 40.72 81.4255 42.6939 81.18 44.375C80.9344 46.0561 80.4905 47.6333 79.8483 49.1067C79.2061 50.5611 78.3466 51.7511 77.27 52.6767C76.1933 53.5833 74.805 54.3011 73.105 54.83C71.4238 55.34 69.4311 55.595 67.1266 55.595ZM93.5021 55H84.4921V24.4567L83.1038 21.7933H93.5304L98.7437 32.56L103.73 43.2983L102.342 30.69V21.7933H111.38V55H102.739L95.9954 41.8817L91.8304 33.665L93.5021 44.545V55Z"/>
</mask>
<path d="M23.7884 55H15.26L17.895 21.7933H31.1834L33.6767 32.9283L34.81 38.5667L35.8867 32.9567L38.0967 21.7933H49.94L52.3767 55H43.565L42.12 35.4783L41.78 28.2817L37.445 51.685H30.05L24.8367 28.2817L24.6667 35.4783L23.7884 55ZM64.4633 42.165C64.4633 45.3006 64.6994 47.4822 65.1716 48.71C65.6627 49.9378 66.5127 50.5517 67.7216 50.5517C68.6094 50.5517 69.28 50.3344 69.7333 49.9C70.1866 49.4467 70.5266 48.5306 70.7533 47.1517C70.9988 45.7539 71.1216 43.6667 71.1216 40.89V34.0617C71.1216 31.3606 70.8572 29.3489 70.3283 28.0267C69.7994 26.7044 68.9305 26.0433 67.7216 26.0433C66.5127 26.0433 65.6627 26.695 65.1716 27.9983C64.6994 29.2828 64.4633 31.6344 64.4633 35.0533V42.165ZM67.1266 55.595C65.5588 55.595 64.1422 55.4533 62.8766 55.17C61.63 54.8867 60.5533 54.49 59.6466 53.98C58.74 53.47 57.9466 52.8183 57.2666 52.025C56.6055 51.2317 56.0672 50.3817 55.6516 49.475C55.255 48.5683 54.9338 47.5106 54.6883 46.3017C54.4427 45.0739 54.2727 43.8556 54.1783 42.6467C54.0838 41.4189 54.0366 40.04 54.0366 38.51C54.0366 36.2433 54.15 34.2694 54.3766 32.5883C54.6222 30.9072 55.0661 29.33 55.7083 27.8567C56.3505 26.3644 57.2005 25.1556 58.2583 24.23C59.335 23.3044 60.7138 22.5772 62.395 22.0483C64.095 21.5194 66.0972 21.255 68.4016 21.255C69.9883 21.255 71.4144 21.4061 72.68 21.7083C73.9455 21.9917 75.0316 22.3883 75.9383 22.8983C76.845 23.4083 77.6288 24.0694 78.29 24.8817C78.97 25.6939 79.5083 26.5628 79.905 27.4883C80.3205 28.395 80.6511 29.4622 80.8966 30.69C81.1422 31.9178 81.3122 33.1361 81.4066 34.345C81.5011 35.5539 81.5483 36.9233 81.5483 38.4533C81.5483 40.72 81.4255 42.6939 81.18 44.375C80.9344 46.0561 80.4905 47.6333 79.8483 49.1067C79.2061 50.5611 78.3466 51.7511 77.27 52.6767C76.1933 53.5833 74.805 54.3011 73.105 54.83C71.4238 55.34 69.4311 55.595 67.1266 55.595ZM93.5021 55H84.4921V24.4567L83.1038 21.7933H93.5304L98.7437 32.56L103.73 43.2983L102.342 30.69V21.7933H111.38V55H102.739L95.9954 41.8817L91.8304 33.665L93.5021 44.545V55Z" fill="#FFA800"/>
<path d="M23.7884 55V60H28.5685L28.7833 55.2247L23.7884 55ZM15.26 55L10.2757 54.6045L9.84755 60H15.26V55ZM17.895 21.7933V16.7933H13.2761L12.9107 21.3978L17.895 21.7933ZM31.1834 21.7933L36.0625 20.7008L35.1876 16.7933H31.1834V21.7933ZM33.6767 32.9283L38.5786 31.943L38.5678 31.8893L38.5559 31.8358L33.6767 32.9283ZM34.81 38.5667L29.9081 39.552L39.7204 39.5091L34.81 38.5667ZM35.8867 32.9567L30.9819 31.9857L30.9791 32L30.9763 32.0143L35.8867 32.9567ZM38.0967 21.7933V16.7933H33.9895L33.1919 20.8223L38.0967 21.7933ZM49.94 21.7933L54.9266 21.4274L54.5866 16.7933H49.94V21.7933ZM52.3767 55V60H57.757L57.3633 54.6341L52.3767 55ZM43.565 55L38.5787 55.3691L38.9214 60H43.565V55ZM42.12 35.4783L37.1256 35.7143L37.1287 35.7809L37.1337 35.8474L42.12 35.4783ZM41.78 28.2817L46.7745 28.0457L36.8637 27.371L41.78 28.2817ZM37.445 51.685V56.685H41.6039L42.3614 52.5957L37.445 51.685ZM30.05 51.685L25.1696 52.7722L26.0413 56.685H30.05V51.685ZM24.8367 28.2817L29.7171 27.1945L19.8381 28.1636L24.8367 28.2817ZM24.6667 35.4783L29.6616 35.7031L29.664 35.6498L29.6653 35.5964L24.6667 35.4783ZM23.7884 50H15.26V60H23.7884V50ZM20.2444 55.3955L22.8794 22.1888L12.9107 21.3978L10.2757 54.6045L20.2444 55.3955ZM17.895 26.7933H31.1834V16.7933H17.895V26.7933ZM26.3042 22.8859L28.7975 34.0209L38.5559 31.8358L36.0625 20.7008L26.3042 22.8859ZM28.7747 33.9137L29.9081 39.552L39.712 37.5813L38.5786 31.943L28.7747 33.9137ZM39.7204 39.5091L40.7971 33.8991L30.9763 32.0143L29.8996 37.6243L39.7204 39.5091ZM40.7915 33.9277L43.0015 22.7643L33.1919 20.8223L30.9819 31.9857L40.7915 33.9277ZM38.0967 26.7933H49.94V16.7933H38.0967V26.7933ZM44.9534 22.1592L47.3901 55.3659L57.3633 54.6341L54.9266 21.4274L44.9534 22.1592ZM52.3767 50H43.565V60H52.3767V50ZM48.5514 54.6309L47.1064 35.1092L37.1337 35.8474L38.5787 55.3691L48.5514 54.6309ZM47.1145 35.2424L46.7745 28.0457L36.7856 28.5176L37.1256 35.7143L47.1145 35.2424ZM36.8637 27.371L32.5287 50.7743L42.3614 52.5957L46.6964 29.1923L36.8637 27.371ZM37.445 46.685H30.05V56.685H37.445V46.685ZM34.9304 50.5978L29.7171 27.1945L19.9563 29.3688L25.1696 52.7722L34.9304 50.5978ZM19.8381 28.1636L19.6681 35.3603L29.6653 35.5964L29.8353 28.3997L19.8381 28.1636ZM19.6717 35.2536L18.7934 54.7753L28.7833 55.2247L29.6616 35.7031L19.6717 35.2536ZM65.1716 48.71L60.5049 50.5049L60.5169 50.536L60.5292 50.567L65.1716 48.71ZM69.7333 49.9L73.1928 53.5099L73.2312 53.4731L73.2688 53.4355L69.7333 49.9ZM70.7533 47.1517L65.8287 46.2865L65.824 46.3136L65.8195 46.3406L70.7533 47.1517ZM70.3283 28.0267L74.9707 26.1697L74.9707 26.1697L70.3283 28.0267ZM65.1716 27.9983L60.4928 26.2353L60.4857 26.2541L60.4787 26.273L65.1716 27.9983ZM62.8766 55.17L61.7685 60.0457L61.7764 60.0475L61.7843 60.0492L62.8766 55.17ZM59.6466 53.98L57.1953 58.3379L57.1953 58.3379L59.6466 53.98ZM57.2666 52.025L53.4255 55.2259L53.4477 55.2526L53.4703 55.279L57.2666 52.025ZM55.6516 49.475L51.0708 51.4791L51.0882 51.5188L51.1063 51.5583L55.6516 49.475ZM54.6883 46.3017L49.7854 47.2822L49.7869 47.2896L49.7884 47.297L54.6883 46.3017ZM54.1783 42.6467L49.193 43.0301L49.1935 43.0361L54.1783 42.6467ZM54.3766 32.5883L49.4291 31.8657L49.4251 31.8929L49.4215 31.9202L54.3766 32.5883ZM55.7083 27.8567L60.2918 29.8546L60.2964 29.8439L60.301 29.8333L55.7083 27.8567ZM58.2583 24.23L54.9989 20.4384L54.9823 20.4527L54.9658 20.4671L58.2583 24.23ZM62.395 22.0483L60.9096 17.274L60.902 17.2764L60.8944 17.2788L62.395 22.0483ZM72.68 21.7083L71.5186 26.5716L71.553 26.5798L71.5876 26.5876L72.68 21.7083ZM75.9383 22.8983L78.3896 18.5405L75.9383 22.8983ZM78.29 24.8817L74.4122 28.038L74.434 28.0648L74.4562 28.0913L78.29 24.8817ZM79.905 27.4883L75.3092 29.4579L75.3337 29.5151L75.3596 29.5716L79.905 27.4883ZM80.8966 30.69L75.9937 31.6706L75.9937 31.6706L80.8966 30.69ZM81.18 44.375L76.2325 43.6523L76.2325 43.6523L81.18 44.375ZM79.8483 49.1067L84.4222 51.1263L84.427 51.1155L84.4318 51.1046L79.8483 49.1067ZM77.27 52.6767L80.4906 56.5012L80.5101 56.4848L80.5294 56.4683L77.27 52.6767ZM73.105 54.83L74.5565 59.6147L74.5734 59.6095L74.5903 59.6043L73.105 54.83ZM59.4633 42.165C59.4633 45.2961 59.6657 48.323 60.5049 50.5049L69.8384 46.9151C69.8428 46.9266 69.8072 46.8337 69.7572 46.5932C69.7087 46.3599 69.6572 46.0388 69.6114 45.6149C69.5189 44.7604 69.4633 43.6223 69.4633 42.165H59.4633ZM60.5292 50.567C61.0354 51.8324 61.8792 53.1546 63.25 54.1446C64.6529 55.1578 66.2328 55.5517 67.7216 55.5517V45.5517C68.0016 45.5517 68.552 45.6385 69.1049 46.0379C69.6258 46.414 69.799 46.8154 69.814 46.853L60.5292 50.567ZM67.7216 55.5517C69.3626 55.5517 71.4827 55.1489 73.1928 53.5099L66.2738 46.2901C67.0773 45.52 67.8562 45.5517 67.7216 45.5517V55.5517ZM73.2688 53.4355C74.2002 52.5042 74.7143 51.4253 75.0159 50.6126C75.3338 49.7559 75.5419 48.846 75.6871 47.9627L65.8195 46.3406C65.7805 46.5779 65.742 46.7622 65.7078 46.9005C65.6733 47.0405 65.6481 47.1133 65.6407 47.1332C65.6323 47.1559 65.6545 47.0896 65.7256 46.9669C65.7955 46.8461 65.942 46.6202 66.1978 46.3645L73.2688 53.4355ZM75.6779 48.0168C76.001 46.1776 76.1216 43.7375 76.1216 40.89H66.1216C66.1216 43.5958 65.9967 45.3302 65.8287 46.2865L75.6779 48.0168ZM76.1216 40.89V34.0617H66.1216V40.89H76.1216ZM76.1216 34.0617C76.1216 31.191 75.8627 28.3997 74.9707 26.1697L65.6859 29.8836C65.8517 30.2981 66.1216 31.5301 66.1216 34.0617H76.1216ZM74.9707 26.1697C74.47 24.9181 73.6502 23.5816 72.3076 22.56C70.9091 21.496 69.296 21.0433 67.7216 21.0433V31.0433C67.3562 31.0433 66.7819 30.9212 66.2524 30.5183C65.7786 30.1578 65.6577 29.813 65.6859 29.8836L74.9707 26.1697ZM67.7216 21.0433C66.1659 21.0433 64.5443 21.4838 63.1353 22.5641C61.778 23.6047 60.9704 24.9678 60.4928 26.2353L69.8505 29.7614C69.864 29.7255 69.7269 30.1112 69.2196 30.5001C68.6606 30.9287 68.0684 31.0433 67.7216 31.0433V21.0433ZM60.4787 26.273C59.6637 28.4898 59.4633 31.6705 59.4633 35.0533H69.4633C69.4633 33.4441 69.5195 32.1796 69.6154 31.2249C69.663 30.7507 69.7171 30.3868 69.7695 30.1178C69.7953 29.9852 69.8187 29.8864 69.8372 29.817C69.8559 29.7467 69.8665 29.7182 69.8645 29.7237L60.4787 26.273ZM59.4633 35.0533V42.165H69.4633V35.0533H59.4633ZM67.1266 50.595C65.8529 50.595 64.8108 50.4792 63.969 50.2908L61.7843 60.0492C63.4736 60.4274 65.2648 60.595 67.1266 60.595V50.595ZM63.9847 50.2943C63.1052 50.0944 62.501 49.8488 62.0979 49.6221L57.1953 58.3379C58.6056 59.1312 60.1547 59.6789 61.7685 60.0457L63.9847 50.2943ZM62.0979 49.6221C61.703 49.4 61.3643 49.1226 61.0629 48.771L53.4703 55.279C54.529 56.514 55.7769 57.54 57.1953 58.3379L62.0979 49.6221ZM61.1077 48.8241C60.7197 48.3584 60.4218 47.8823 60.197 47.3917L51.1063 51.5583C51.7126 52.8811 52.4913 54.1049 53.4255 55.2259L61.1077 48.8241ZM60.2324 47.4709C60.0072 46.956 59.7798 46.2496 59.5882 45.3064L49.7884 47.297C50.0879 48.7716 50.5028 50.1806 51.0708 51.4791L60.2324 47.4709ZM59.5912 45.3211C59.3834 44.2822 59.2415 43.2613 59.1631 42.2572L49.1935 43.0361C49.3039 44.4498 49.5021 45.8656 49.7854 47.2822L59.5912 45.3211ZM59.1636 42.2632C59.0809 41.1891 59.0366 39.9412 59.0366 38.51H49.0366C49.0366 40.1388 49.0868 41.6486 49.193 43.0301L59.1636 42.2632ZM59.0366 38.51C59.0366 36.3976 59.143 34.6568 59.3318 33.2564L49.4215 31.9202C49.1569 33.8821 49.0366 36.0891 49.0366 38.51H59.0366ZM59.3241 33.311C59.5092 32.0442 59.8368 30.8983 60.2918 29.8546L51.1248 25.8587C50.2953 27.7617 49.7352 29.7702 49.4291 31.8657L59.3241 33.311ZM60.301 29.8333C60.6943 28.9195 61.1354 28.3564 61.5508 27.9929L54.9658 20.4671C53.2656 21.9547 52.0067 23.8094 51.1156 25.8801L60.301 29.8333ZM61.5177 28.0216C61.9725 27.6307 62.7096 27.1909 63.8955 26.8179L60.8944 17.2788C58.7181 17.9635 56.6975 18.9782 54.9989 20.4384L61.5177 28.0216ZM63.8803 26.8226C64.9819 26.4799 66.461 26.255 68.4016 26.255V16.255C65.7334 16.255 63.208 16.559 60.9096 17.274L63.8803 26.8226ZM68.4016 26.255C69.6792 26.255 70.7057 26.3775 71.5186 26.5716L73.8413 16.8451C72.1231 16.4348 70.2974 16.255 68.4016 16.255V26.255ZM71.5876 26.5876C72.4892 26.7894 73.0951 27.0358 73.487 27.2562L78.3896 18.5405C76.9682 17.7409 75.4018 17.1939 73.7723 16.8291L71.5876 26.5876ZM73.487 27.2562C73.8432 27.4566 74.1442 27.7089 74.4122 28.038L82.1678 21.7253C81.1135 20.43 79.8467 19.3601 78.3896 18.5405L73.487 27.2562ZM74.4562 28.0913C74.8394 28.5491 75.1145 29.0035 75.3092 29.4579L84.5007 25.5187C83.9021 24.1221 83.1005 22.8387 82.1238 21.672L74.4562 28.0913ZM75.3596 29.5716C75.5788 30.0497 75.8058 30.7311 75.9937 31.6706L85.7995 29.7094C85.4963 28.1934 85.0622 26.7403 84.4503 25.4051L75.3596 29.5716ZM75.9937 31.6706C76.2015 32.7094 76.3434 33.7304 76.4218 34.7344L86.3914 33.9556C86.281 32.5418 86.0829 31.1261 85.7995 29.7094L75.9937 31.6706ZM76.4218 34.7344C76.5039 35.7855 76.5483 37.0214 76.5483 38.4533H86.5483C86.5483 36.8252 86.4982 35.3223 86.3914 33.9556L76.4218 34.7344ZM76.5483 38.4533C76.5483 40.5526 76.4337 42.2744 76.2325 43.6523L86.1275 45.0977C86.4173 43.1134 86.5483 40.8874 86.5483 38.4533H76.5483ZM76.2325 43.6523C76.0474 44.9191 75.7198 46.065 75.2648 47.1087L84.4318 51.1046C85.2613 49.2017 85.8214 47.1931 86.1275 45.0977L76.2325 43.6523ZM75.2743 47.087C74.8966 47.9425 74.4582 48.5003 74.0105 48.8851L80.5294 56.4683C82.2351 55.002 83.5155 53.1797 84.4222 51.1263L75.2743 47.087ZM74.0493 48.8521C73.5976 49.2325 72.8459 49.6742 71.6196 50.0557L74.5903 59.6043C76.764 58.928 78.789 57.9342 80.4906 56.5012L74.0493 48.8521ZM71.6534 50.0453C70.5632 50.3761 69.0832 50.595 67.1266 50.595V60.595C69.779 60.595 72.2845 60.3039 74.5565 59.6147L71.6534 50.0453ZM93.5021 55V60H98.5021V55H93.5021ZM84.4921 55H79.4921V60H84.4921V55ZM84.4921 24.4567H89.4921V23.2317L88.9258 22.1454L84.4921 24.4567ZM83.1038 21.7933V16.7933H74.8588L78.67 24.1046L83.1038 21.7933ZM93.5304 21.7933L98.0306 19.6143L96.6647 16.7933H93.5304V21.7933ZM98.7437 32.56L103.279 30.4541L103.262 30.4174L103.244 30.381L98.7437 32.56ZM103.73 43.2983L99.1955 45.4042L108.7 42.7511L103.73 43.2983ZM102.342 30.69H97.3421V30.9645L97.3721 31.2373L102.342 30.69ZM102.342 21.7933V16.7933H97.3421V21.7933H102.342ZM111.38 21.7933H116.38V16.7933H111.38V21.7933ZM111.38 55V60H116.38V55H111.38ZM102.739 55L98.2919 57.2859L99.687 60H102.739V55ZM95.9954 41.8817L91.5357 44.1423L91.5421 44.1549L91.5485 44.1675L95.9954 41.8817ZM91.8304 33.665L96.2902 31.4044L86.8884 34.4243L91.8304 33.665ZM93.5021 44.545H98.5021V44.1631L98.4441 43.7857L93.5021 44.545ZM93.5021 50H84.4921V60H93.5021V50ZM89.4921 55V24.4567H79.4921V55H89.4921ZM88.9258 22.1454L87.5375 19.4821L78.67 24.1046L80.0583 26.7679L88.9258 22.1454ZM83.1038 26.7933H93.5304V16.7933H83.1038V26.7933ZM89.0302 23.9724L94.2436 34.739L103.244 30.381L98.0306 19.6143L89.0302 23.9724ZM94.2089 34.6659L99.1955 45.4042L108.265 41.1924L103.279 30.4541L94.2089 34.6659ZM108.7 42.7511L107.312 30.1427L97.3721 31.2373L98.7605 43.8456L108.7 42.7511ZM107.342 30.69V21.7933H97.3421V30.69H107.342ZM102.342 26.7933H111.38V16.7933H102.342V26.7933ZM106.38 21.7933V55H116.38V21.7933H106.38ZM111.38 50H102.739V60H111.38V50ZM107.186 52.7141L100.442 39.5958L91.5485 44.1675L98.2919 57.2859L107.186 52.7141ZM100.455 39.621L96.2902 31.4044L87.3707 35.9256L91.5357 44.1423L100.455 39.621ZM86.8884 34.4243L88.5601 45.3043L98.4441 43.7857L96.7724 32.9057L86.8884 34.4243ZM88.5021 44.545V55H98.5021V44.545H88.5021Z" fill="black" mask="url(#path-2-outside-1_109_383)"/>
</svg>
