<svg width="181" height="107" viewBox="0 0 181 107" fill="none" xmlns="http://www.w3.org/2000/svg">
<path d="M180.888 0H0.385986V106.035H180.888V0Z" fill="white"/>
<path d="M48.785 75.9437H35.9593L24.635 28.3619H38.1512L40.3029 44.7638L43.5089 60.6786L47.6089 44.7638L48.6633 40.4197L45.5389 28.3619H58.8115L61.7339 44.7638L65.3054 60.6786L67.5373 44.7638L69.9325 28.3619H82.2711L71.7991 75.9437H57.9592L52.9667 56.8217L48.785 75.9437ZM111.905 75.9437H83.1278V28.3619H111.296L110.484 37.9432L96.5623 37.5373V46.7126H107.521V56.2127L96.5623 55.4007V66.2L111.905 65.7941V75.9437ZM131.624 69.2855C133.68 69.2855 135.25 68.0135 136.332 65.4692C137.442 62.925 137.996 58.7299 137.996 52.8836V48.7831C137.996 44.5068 137.482 41.2047 136.453 38.877C135.425 36.5493 133.964 35.3855 132.07 35.3855H129.026V69.2855H131.624ZM132.882 76.2279C131.908 76.2279 130.392 76.1739 128.336 76.0655C126.306 75.9843 124.209 75.9437 122.045 75.9437H115.591V28.3619H122.045C123.857 28.3348 125.832 28.2671 127.971 28.159C130.108 28.0506 131.786 27.9965 133.004 27.9965C139.904 27.9965 144.842 29.9317 147.819 33.8021C150.822 37.6726 152.325 43.3157 152.325 50.7319C152.325 53.249 152.148 55.6443 151.796 57.9179C151.472 60.1914 150.849 62.4785 149.929 64.779C149.01 67.0526 147.845 69.0148 146.438 70.6659C145.032 72.3169 143.165 73.6567 140.837 74.6852C138.51 75.7136 135.859 76.2279 132.882 76.2279Z" fill="#FFA800"/>
<mask id="mask0_142_58" style="mask-type:luminance" maskUnits="userSpaceOnUse" x="14" y="20" width="147" height="65">
<path d="M160.833 20.0605H14.7117V84.5411H160.833V20.0605Z" fill="white"/>
<path d="M48.785 75.9436H35.9593L24.635 28.3617H38.1512L40.3029 44.7637L43.5089 60.6785L47.6089 44.7637L48.6633 40.4196L45.5389 28.3617H58.8115L61.7339 44.7637L65.3054 60.6785L67.5373 44.7637L69.9325 28.3617H82.2711L71.7991 75.9436H57.9592L52.9667 56.8216L48.785 75.9436ZM111.905 75.9436H83.1278V28.3617H111.296L110.484 37.9431L96.5623 37.5372V46.7125H107.521V56.2126L96.5623 55.4006V66.1999L111.905 65.794V75.9436ZM131.624 69.2854C133.68 69.2854 135.25 68.0134 136.332 65.4691C137.442 62.9249 137.996 58.7298 137.996 52.8835V48.783C137.996 44.5066 137.482 41.2045 136.453 38.8769C135.425 36.5492 133.964 35.3854 132.07 35.3854H129.026V69.2854H131.624ZM132.882 76.2278C131.908 76.2278 130.392 76.1737 128.336 76.0654C126.306 75.9842 124.209 75.9436 122.045 75.9436H115.591V28.3617H122.045C123.857 28.3346 125.832 28.267 127.971 28.1588C130.108 28.0505 131.786 27.9963 133.004 27.9963C139.904 27.9963 144.842 29.9316 147.819 33.802C150.822 37.6724 152.325 43.3156 152.325 50.7317C152.325 53.2489 152.148 55.6441 151.796 57.9177C151.472 60.1913 150.849 62.4784 149.929 64.7789C149.01 67.0525 147.845 69.0147 146.438 70.6658C145.032 72.3168 143.165 73.6566 140.837 74.6851C138.51 75.7135 135.859 76.2278 132.882 76.2278Z" fill="black"/>
</mask>
<g mask="url(#mask0_142_58)">
<path d="M48.785 75.9437V83.1082H54.5511L55.7831 77.4743L48.785 75.9437ZM35.9593 75.9437L28.9914 77.6029L30.3022 83.1082H35.9593V75.9437ZM24.635 28.3618V21.1973H15.5669L17.667 30.021L24.635 28.3618ZM38.1512 28.3618L45.2538 27.43L44.4359 21.1973H38.1512V28.3618ZM40.3029 44.7638L33.2003 45.6957L33.2332 45.9388L33.2805 46.1792L40.3029 44.7638ZM43.5089 60.6786L36.488 62.094L50.4454 62.4661L43.5089 60.6786ZM47.6089 44.7638L54.5454 46.5513L54.5569 46.5035L54.5683 46.4555L47.6089 44.7638ZM48.6633 40.4197L55.6241 42.1113L56.0496 40.3632L55.5969 38.6217L48.6633 40.4197ZM45.5389 28.3618V21.1973H36.2817L38.6053 30.1598L45.5389 28.3618ZM58.8115 28.3618L65.8626 27.1049L64.8111 21.1973H58.8115V28.3618ZM61.7339 44.7638L54.6815 46.0209L54.7102 46.1776L54.7445 46.3331L61.7339 44.7638ZM65.3054 60.6786L58.3174 62.2479L72.3993 61.674L65.3054 60.6786ZM67.5373 44.7638L60.4504 43.7285L60.4476 43.7484L60.4447 43.7683L67.5373 44.7638ZM69.9325 28.3618V21.1973H63.7395L62.8456 27.3265L69.9325 28.3618ZM82.2711 28.3618L89.2677 29.9022L91.183 21.1973H82.2711V28.3618ZM71.7991 75.9437V83.1082H77.558L78.7957 77.4839L71.7991 75.9437ZM57.9592 75.9437L51.0285 77.754L52.4267 83.1082H57.9592V75.9437ZM52.9667 56.8216L59.8974 55.0113L45.9686 55.291L52.9667 56.8216ZM48.785 68.7792H35.9593V83.1082H48.785V68.7792ZM42.9273 74.2845L31.603 26.7026L17.667 30.021L28.9914 77.6029L42.9273 74.2845ZM24.635 35.5263H38.1512V21.1973H24.635V35.5263ZM31.05 29.2938L33.2003 45.6957L47.4041 43.8318L45.2538 27.43L31.05 29.2938ZM33.2805 46.1792L36.488 62.094L50.5314 59.2632L47.3239 43.3484L33.2805 46.1792ZM50.4454 62.4661L54.5454 46.5513L40.6725 42.9762L36.5725 58.8909L50.4454 62.4661ZM54.5683 46.4555L55.6241 42.1113L41.7039 38.728L40.6481 43.0721L54.5683 46.4555ZM55.5969 38.6217L52.4725 26.5638L38.6053 30.1598L41.7312 42.2177L55.5969 38.6217ZM45.5389 35.5263H58.8115V21.1973H45.5389V35.5263ZM51.7591 29.6189L54.6815 46.0209L68.785 43.5067L65.8626 27.1049L51.7591 29.6189ZM54.7445 46.3331L58.3174 62.2479L72.2948 59.1093L68.722 43.1945L54.7445 46.3331ZM72.3993 61.674L74.6313 45.7592L60.4447 43.7683L58.2128 59.683L72.3993 61.674ZM74.6256 45.7991L77.0208 29.3972L62.8456 27.3265L60.4504 43.7285L74.6256 45.7991ZM69.9325 35.5263H82.2711V21.1973H69.9325V35.5263ZM75.2759 26.8216L64.8039 74.4035L78.7957 77.4839L89.2677 29.9022L75.2759 26.8216ZM71.7991 68.7792H57.9592V83.1082H71.7991V68.7792ZM64.8899 74.1334L59.8974 55.0113L46.036 58.632L51.0285 77.754L64.8899 74.1334ZM45.9686 55.291L41.7885 74.4131L55.7831 77.4743L59.9633 58.3523L45.9686 55.291ZM111.905 75.9437V83.1082H119.068V75.9437H111.905ZM83.1278 75.9437H75.965V83.1082H83.1278V75.9437ZM83.1278 28.3618V21.1973H75.965V28.3618H83.1278ZM111.296 28.3618L118.433 28.9668L119.092 21.1973H111.296V28.3618ZM110.484 37.9432L110.276 45.1047L117.049 45.3021L117.622 38.5481L110.484 37.9432ZM96.5623 37.5372L96.7714 30.3757L89.3995 30.1608V37.5372H96.5623ZM96.5623 46.7125H89.3995V53.877H96.5623V46.7125ZM107.521 46.7125H114.684V39.548H107.521V46.7125ZM107.521 56.2127L106.993 63.3575L114.684 63.9275V56.2127H107.521ZM96.5623 55.4006L97.0909 48.2558L89.3995 47.6859V55.4006H96.5623ZM96.5623 66.2H89.3995V73.5565L96.7514 73.3619L96.5623 66.2ZM111.905 65.794H119.068V58.4374L111.716 58.632L111.905 65.794ZM111.905 68.7792H83.1278V83.1082H111.905V68.7792ZM90.2906 75.9437V28.3618H75.965V75.9437H90.2906ZM83.1278 35.5263H111.296V21.1973H83.1278V35.5263ZM104.159 27.7568L103.347 37.3382L117.622 38.5481L118.433 28.9668L104.159 27.7568ZM110.693 30.7817L96.7714 30.3757L96.3531 44.6986L110.276 45.1047L110.693 30.7817ZM89.3995 37.5372V46.7125H103.725V37.5372H89.3995ZM96.5623 53.877H107.521V39.548H96.5623V53.877ZM100.359 46.7125V56.2127H114.684V46.7125H100.359ZM108.05 49.0678L97.0909 48.2558L96.0337 62.5456L106.993 63.3575L108.05 49.0678ZM89.3995 55.4006V66.2H103.725V55.4006H89.3995ZM96.7514 73.3619L112.094 72.956L111.716 58.632L96.3733 59.0379L96.7514 73.3619ZM104.742 65.794V75.9437H119.068V65.794H104.742ZM136.332 65.4692L129.766 62.6048L129.753 62.6343L129.74 62.6639L136.332 65.4692ZM129.026 35.3854V28.2209H121.863V35.3854H129.026ZM129.026 69.2854H121.863V76.4499H129.026V69.2854ZM128.336 76.0655L128.712 68.9109L128.667 68.9086L128.622 68.9067L128.336 76.0655ZM115.591 75.9437H108.428V83.1082H115.591V75.9437ZM115.591 28.3618V21.1973H108.428V28.3618H115.591ZM122.045 28.3618V35.5263H122.098L122.151 35.5256L122.045 28.3618ZM147.819 33.8021L142.141 38.1704L142.151 38.1828L142.161 38.1952L147.819 33.8021ZM151.796 57.9178L144.718 56.8221L144.712 56.8633L144.705 56.9046L151.796 57.9178ZM149.929 64.779L156.569 67.4671L156.574 67.4535L156.579 67.4399L149.929 64.779ZM131.624 76.4499C134.262 76.4499 136.767 75.5879 138.853 73.8978C140.818 72.3043 142.085 70.2458 142.923 68.2745L129.74 62.6639C129.497 63.2369 129.437 63.0866 129.834 62.765C130.047 62.5919 130.342 62.4134 130.704 62.2863C131.064 62.1598 131.388 62.1209 131.624 62.1209V76.4499ZM142.897 68.3336C144.639 64.3411 145.159 58.864 145.159 52.8836H130.833C130.833 58.5956 130.245 61.5089 129.766 62.6048L142.897 68.3336ZM145.159 52.8836V48.7831H130.833V52.8836H145.159ZM145.159 48.7831C145.159 44.0981 144.62 39.6384 143.006 35.9812L129.902 41.7726C130.343 42.7709 130.833 44.9152 130.833 48.7831H145.159ZM143.006 35.9812C141.3 32.1214 137.804 28.2209 132.07 28.2209V42.55C131.798 42.55 131.447 42.506 131.063 42.3727C130.677 42.239 130.361 42.0506 130.124 41.863C129.683 41.5108 129.695 41.3025 129.902 41.7726L143.006 35.9812ZM132.07 28.2209H129.026V42.55H132.07V28.2209ZM121.863 35.3854V69.2854H136.188V35.3854H121.863ZM129.026 76.4499H131.624V62.1209H129.026V76.4499ZM132.882 69.0633C132.107 69.0633 130.749 69.0181 128.712 68.9109L127.96 83.2201C130.035 83.3294 131.709 83.3923 132.882 83.3923V69.0633ZM128.622 68.9067C126.491 68.8215 124.298 68.7792 122.045 68.7792V83.1082C124.12 83.1082 126.122 83.1472 128.05 83.2243L128.622 68.9067ZM122.045 68.7792H115.591V83.1082H122.045V68.7792ZM122.754 75.9437V28.3618H108.428V75.9437H122.754ZM115.591 35.5263H122.045V21.1973H115.591V35.5263ZM122.151 35.5256C124.063 35.4971 126.125 35.426 128.332 35.3142L127.609 21.0036C125.542 21.1082 123.652 21.1725 121.937 21.1982L122.151 35.5256ZM128.332 35.3142C130.425 35.2082 131.964 35.1609 133.004 35.1609V20.8319C131.608 20.8319 129.79 20.893 127.609 21.0036L128.332 35.3142ZM133.004 35.1609C138.651 35.1609 141.019 36.7117 142.141 38.1704L153.497 29.4338C148.664 23.1516 141.156 20.8319 133.004 20.8319V35.1609ZM142.161 38.1952C143.801 40.3088 145.162 44.1296 145.162 50.7318H159.487C159.487 42.5019 157.844 35.0363 153.476 29.409L142.161 38.1952ZM145.162 50.7318C145.162 52.916 145.009 54.9431 144.718 56.8221L158.874 59.0135C159.288 56.3455 159.487 53.582 159.487 50.7318H145.162ZM144.705 56.9046C144.467 58.5708 144.003 60.3059 143.278 62.1182L156.579 67.4399C157.695 64.651 158.476 61.8119 158.887 58.931L144.705 56.9046ZM143.29 62.091C142.621 63.7434 141.835 65.0231 140.987 66.018L151.889 75.3136C153.856 73.0065 155.397 70.3617 156.569 67.4671L143.29 62.091ZM140.987 66.018C140.39 66.7198 139.455 67.4635 137.942 68.1318L143.732 81.2384C146.874 79.8496 149.673 77.9139 151.889 75.3136L140.987 66.018ZM137.942 68.1318C136.668 68.6947 135.029 69.0633 132.882 69.0633V83.3923C136.688 83.3923 140.351 82.7326 143.732 81.2384L137.942 68.1318Z" fill="black"/>
</g>
</svg>
