<svg width="126" height="74" viewBox="0 0 126 74" fill="none" xmlns="http://www.w3.org/2000/svg">
<rect width="126" height="74" fill="white"/>
<mask id="path-2-outside-1_109_379" maskUnits="userSpaceOnUse" x="10" y="14" width="102" height="45" fill="black">
<rect fill="white" x="10" y="14" width="102" height="45"/>
<path d="M33.7855 53H24.8322L16.9272 19.7933H26.3622L27.8638 31.24L30.1022 42.3467L32.9638 31.24L33.7005 28.2083L31.5188 19.7933H40.7838L42.8238 31.24L45.3172 42.3467L46.8755 31.24L48.5472 19.7933H57.1605L49.8505 53H40.1888L36.7038 39.655L33.7855 53ZM77.846 53H57.7577V19.7933H77.421L76.8544 26.48L67.136 26.1967V32.6H74.786V39.23L67.136 38.6633V46.2L77.846 45.9167V53ZM91.6105 48.3533C93.0461 48.3533 94.1416 47.4656 94.8972 45.69C95.6716 43.9144 96.0588 40.9867 96.0588 36.9067V34.045C96.0588 31.0606 95.7 28.7561 94.9822 27.1317C94.2644 25.5072 93.2444 24.695 91.9222 24.695H89.7972V48.3533H91.6105ZM92.4888 53.1983C91.8088 53.1983 90.7511 53.1606 89.3155 53.085C87.8988 53.0283 86.435 53 84.9238 53H80.4188V19.7933H84.9238C86.1894 19.7744 87.5683 19.7272 89.0605 19.6517C90.5527 19.5761 91.7238 19.5383 92.5738 19.5383C97.3905 19.5383 100.838 20.8889 102.916 23.59C105.012 26.2911 106.061 30.2294 106.061 35.405C106.061 37.1617 105.938 38.8333 105.692 40.42C105.466 42.0067 105.031 43.6028 104.389 45.2083C103.747 46.795 102.934 48.1644 101.952 49.3167C100.97 50.4689 99.6666 51.4039 98.0422 52.1217C96.4177 52.8394 94.5666 53.1983 92.4888 53.1983Z"/>
</mask>
<path d="M33.7855 53H24.8322L16.9272 19.7933H26.3622L27.8638 31.24L30.1022 42.3467L32.9638 31.24L33.7005 28.2083L31.5188 19.7933H40.7838L42.8238 31.24L45.3172 42.3467L46.8755 31.24L48.5472 19.7933H57.1605L49.8505 53H40.1888L36.7038 39.655L33.7855 53ZM77.846 53H57.7577V19.7933H77.421L76.8544 26.48L67.136 26.1967V32.6H74.786V39.23L67.136 38.6633V46.2L77.846 45.9167V53ZM91.6105 48.3533C93.0461 48.3533 94.1416 47.4656 94.8972 45.69C95.6716 43.9144 96.0588 40.9867 96.0588 36.9067V34.045C96.0588 31.0606 95.7 28.7561 94.9822 27.1317C94.2644 25.5072 93.2444 24.695 91.9222 24.695H89.7972V48.3533H91.6105ZM92.4888 53.1983C91.8088 53.1983 90.7511 53.1606 89.3155 53.085C87.8988 53.0283 86.435 53 84.9238 53H80.4188V19.7933H84.9238C86.1894 19.7744 87.5683 19.7272 89.0605 19.6517C90.5527 19.5761 91.7238 19.5383 92.5738 19.5383C97.3905 19.5383 100.838 20.8889 102.916 23.59C105.012 26.2911 106.061 30.2294 106.061 35.405C106.061 37.1617 105.938 38.8333 105.692 40.42C105.466 42.0067 105.031 43.6028 104.389 45.2083C103.747 46.795 102.934 48.1644 101.952 49.3167C100.97 50.4689 99.6666 51.4039 98.0422 52.1217C96.4177 52.8394 94.5666 53.1983 92.4888 53.1983Z" fill="#FFA800"/>
<path d="M33.7855 53V58H37.8102L38.6701 54.0682L33.7855 53ZM24.8322 53L19.9681 54.1579L20.8827 58H24.8322V53ZM16.9272 19.7933V14.7933H10.5972L12.0631 20.9512L16.9272 19.7933ZM26.3622 19.7933L31.3197 19.143L30.7491 14.7933H26.3622V19.7933ZM27.8638 31.24L22.9063 31.8904L22.9286 32.06L22.9624 32.2278L27.8638 31.24ZM30.1022 42.3467L25.2007 43.3345L34.944 43.5942L30.1022 42.3467ZM32.9638 31.24L37.8057 32.4875L37.8143 32.4541L37.8224 32.4206L32.9638 31.24ZM33.7005 28.2083L38.5591 29.3889L38.8556 28.1689L38.5405 26.9535L33.7005 28.2083ZM31.5188 19.7933V14.7933H25.0572L26.6788 21.0481L31.5188 19.7933ZM40.7838 19.7933L45.7063 18.9161L44.9715 14.7933H40.7838V19.7933ZM42.8238 31.24L37.9014 32.1173L37.9209 32.2267L37.9452 32.3352L42.8238 31.24ZM45.3172 42.3467L40.4386 43.4419L50.2687 43.0414L45.3172 42.3467ZM46.8755 31.24L41.928 30.5175L41.9259 30.5314L41.924 30.5453L46.8755 31.24ZM48.5472 19.7933V14.7933H44.2243L43.5996 19.0708L48.5472 19.7933ZM57.1605 19.7933L62.0436 20.8683L63.3809 14.7933H57.1605V19.7933ZM49.8505 53V58H53.8695L54.7336 54.0749L49.8505 53ZM40.1888 53L35.3511 54.2634L36.3269 58H40.1888V53ZM36.7038 39.655L41.5416 38.3916L31.8193 38.5868L36.7038 39.655ZM33.7855 48H24.8322V58H33.7855V48ZM29.6962 51.8421L21.7912 18.6354L12.0631 20.9512L19.9681 54.1579L29.6962 51.8421ZM16.9272 24.7933H26.3622V14.7933H16.9272V24.7933ZM21.4046 20.4437L22.9063 31.8904L32.8213 30.5896L31.3197 19.143L21.4046 20.4437ZM22.9624 32.2278L25.2007 43.3345L35.0036 41.3589L32.7653 30.2522L22.9624 32.2278ZM34.944 43.5942L37.8057 32.4875L28.122 29.9925L25.2603 41.0991L34.944 43.5942ZM37.8224 32.4206L38.5591 29.3889L28.8419 27.0277L28.1052 30.0594L37.8224 32.4206ZM38.5405 26.9535L36.3588 18.5385L26.6788 21.0481L28.8605 29.4631L38.5405 26.9535ZM31.5188 24.7933H40.7838V14.7933H31.5188V24.7933ZM35.8614 20.6706L37.9014 32.1173L47.7463 30.3627L45.7063 18.9161L35.8614 20.6706ZM37.9452 32.3352L40.4386 43.4419L50.1957 41.2515L47.7024 30.1448L37.9452 32.3352ZM50.2687 43.0414L51.827 31.9347L41.924 30.5453L40.3657 41.6519L50.2687 43.0414ZM51.823 31.9625L53.4947 20.5159L43.5996 19.0708L41.928 30.5175L51.823 31.9625ZM48.5472 24.7933H57.1605V14.7933H48.5472V24.7933ZM52.2774 18.7184L44.9674 51.9251L54.7336 54.0749L62.0436 20.8683L52.2774 18.7184ZM49.8505 48H40.1888V58H49.8505V48ZM45.0266 51.7366L41.5416 38.3916L31.8661 40.9184L35.3511 54.2634L45.0266 51.7366ZM31.8193 38.5868L28.9009 51.9318L38.6701 54.0682L41.5884 40.7232L31.8193 38.5868ZM77.846 53V58H82.846V53H77.846ZM57.7577 53H52.7577V58H57.7577V53ZM57.7577 19.7933V14.7933H52.7577V19.7933H57.7577ZM77.421 19.7933L82.4032 20.2155L82.8627 14.7933H77.421V19.7933ZM76.8544 26.48L76.7087 31.4779L81.4371 31.6157L81.8365 26.9022L76.8544 26.48ZM67.136 26.1967L67.2818 21.1988L62.136 21.0488V26.1967H67.136ZM67.136 32.6H62.136V37.6H67.136V32.6ZM74.786 32.6H79.786V27.6H74.786V32.6ZM74.786 39.23L74.4167 44.2163L79.786 44.6141V39.23H74.786ZM67.136 38.6633L67.5054 33.677L62.136 33.2793V38.6633H67.136ZM67.136 46.2H62.136V51.334L67.2683 51.1983L67.136 46.2ZM77.846 45.9167H82.846V40.7826L77.7138 40.9184L77.846 45.9167ZM77.846 48H57.7577V58H77.846V48ZM62.7577 53V19.7933H52.7577V53H62.7577ZM57.7577 24.7933H77.421V14.7933H57.7577V24.7933ZM72.4389 19.3711L71.8722 26.0578L81.8365 26.9022L82.4032 20.2155L72.4389 19.3711ZM77.0001 21.4821L67.2818 21.1988L66.9903 31.1945L76.7087 31.4779L77.0001 21.4821ZM62.136 26.1967V32.6H72.136V26.1967H62.136ZM67.136 37.6H74.786V27.6H67.136V37.6ZM69.786 32.6V39.23H79.786V32.6H69.786ZM75.1554 34.2437L67.5054 33.677L66.7667 43.6497L74.4167 44.2163L75.1554 34.2437ZM62.136 38.6633V46.2H72.136V38.6633H62.136ZM67.2683 51.1983L77.9783 50.9149L77.7138 40.9184L67.0038 41.2017L67.2683 51.1983ZM72.846 45.9167V53H82.846V45.9167H72.846ZM94.8972 45.69L90.3142 43.691L90.3052 43.7116L90.2964 43.7322L94.8972 45.69ZM94.9822 27.1317L99.5556 25.1108L99.5556 25.1108L94.9822 27.1317ZM89.7972 24.695V19.695H84.7972V24.695H89.7972ZM89.7972 48.3533H84.7972V53.3533H89.7972V48.3533ZM89.3155 53.085L89.5783 48.0919L89.5468 48.0903L89.5153 48.089L89.3155 53.085ZM80.4188 53H75.4188V58H80.4188V53ZM80.4188 19.7933V14.7933H75.4188V19.7933H80.4188ZM84.9238 19.7933V24.7933H84.9612L84.9985 24.7928L84.9238 19.7933ZM89.0605 19.6517L88.8077 14.6581L89.0605 19.6517ZM102.916 23.59L98.9524 26.6386L98.9591 26.6472L98.9658 26.6559L102.916 23.59ZM105.692 40.42L100.751 39.6553L100.747 39.6841L100.742 39.7129L105.692 40.42ZM104.389 45.2083L109.024 47.0843L109.027 47.0748L109.031 47.0653L104.389 45.2083ZM101.952 49.3167L98.1471 46.073L98.1471 46.073L101.952 49.3167ZM98.0422 52.1217L100.063 56.6951L98.0422 52.1217ZM91.6105 53.3533C93.4519 53.3533 95.2012 52.7517 96.6568 51.5722C98.0292 50.4601 98.9125 49.0235 99.4979 47.6478L90.2964 43.7322C90.1263 44.1321 90.0841 44.0272 90.3609 43.8028C90.51 43.682 90.7157 43.5574 90.9685 43.4687C91.2203 43.3804 91.4456 43.3533 91.6105 43.3533V53.3533ZM99.4802 47.689C100.696 44.9027 101.059 41.0803 101.059 36.9067H91.0588C91.0588 40.893 90.6477 42.9262 90.3142 43.691L99.4802 47.689ZM101.059 36.9067V34.045H91.0588V36.9067H101.059ZM101.059 34.045C101.059 30.7754 100.683 27.6631 99.5556 25.1108L90.4087 29.1525C90.7166 29.8492 91.0588 31.3457 91.0588 34.045H101.059ZM99.5556 25.1108C98.3653 22.4171 95.9247 19.695 91.9222 19.695V29.695C91.7325 29.695 91.4872 29.6643 91.219 29.5713C90.9499 29.478 90.7287 29.3465 90.5642 29.2156C90.2556 28.9698 90.2638 28.8244 90.4087 29.1525L99.5556 25.1108ZM91.9222 19.695H89.7972V29.695H91.9222V19.695ZM84.7972 24.695V48.3533H94.7972V24.695H84.7972ZM89.7972 53.3533H91.6105V43.3533H89.7972V53.3533ZM92.4888 48.1983C91.948 48.1983 91.0002 48.1667 89.5783 48.0919L89.0527 58.0781C90.5019 58.1544 91.6697 58.1983 92.4888 58.1983V48.1983ZM89.5153 48.089C88.0279 48.0295 86.4973 48 84.9238 48V58C86.3726 58 87.7698 58.0272 89.1157 58.081L89.5153 48.089ZM84.9238 48H80.4188V58H84.9238V48ZM85.4188 53V19.7933H75.4188V53H85.4188ZM80.4188 24.7933H84.9238V14.7933H80.4188V24.7933ZM84.9985 24.7928C86.3329 24.7729 87.772 24.7233 89.3133 24.6453L88.8077 14.6581C87.3646 14.7311 86.0459 14.776 84.8492 14.7939L84.9985 24.7928ZM89.3133 24.6453C90.774 24.5713 91.8482 24.5383 92.5738 24.5383V14.5383C91.5995 14.5383 90.3314 14.5809 88.8077 14.6581L89.3133 24.6453ZM92.5738 24.5383C96.5161 24.5383 98.1693 25.6206 98.9524 26.6386L106.879 20.5414C103.506 16.1572 98.2649 14.5383 92.5738 14.5383V24.5383ZM98.9658 26.6559C100.111 28.1309 101.061 30.7974 101.061 35.405H111.061C111.061 29.6615 109.914 24.4513 106.865 20.5241L98.9658 26.6559ZM101.061 35.405C101.061 36.9293 100.954 38.344 100.751 39.6553L110.633 41.1847C110.922 39.3227 111.061 37.3941 111.061 35.405H101.061ZM100.742 39.7129C100.576 40.8757 100.252 42.0866 99.7465 43.3514L109.031 47.0653C109.81 45.119 110.355 43.1376 110.642 41.1271L100.742 39.7129ZM99.7541 43.3324C99.2873 44.4856 98.739 45.3787 98.1471 46.073L105.757 52.5603C107.13 50.9502 108.206 49.1044 109.024 47.0843L99.7541 43.3324ZM98.1471 46.073C97.7296 46.5628 97.0769 47.0818 96.0214 47.5482L100.063 56.6951C102.256 55.7259 104.21 54.375 105.757 52.5603L98.1471 46.073ZM96.0214 47.5482C95.1325 47.941 93.9877 48.1983 92.4888 48.1983V58.1983C95.1455 58.1983 97.703 57.7379 100.063 56.6951L96.0214 47.5482Z" fill="black" mask="url(#path-2-outside-1_109_379)"/>
</svg>
