<svg width="106" height="106" viewBox="0 0 106 106" fill="none" xmlns="http://www.w3.org/2000/svg">
<g filter="url(#filter0_d_106_268)">
<path d="M53 95C78.4051 95 99 74.4051 99 49C99 23.5949 78.4051 3 53 3C27.5949 3 7 23.5949 7 49C7 74.4051 27.5949 95 53 95Z" fill="#EF2B1F" stroke="black" stroke-width="5"/>
<path d="M32.9075 37.6139C30.7891 40.1621 31.1374 43.9452 33.6856 46.0637C36.2338 48.1821 40.0169 47.8338 42.1354 45.2856C44.2538 42.7374 43.9055 38.9543 41.3573 36.8358C38.8091 34.7174 35.026 35.0657 32.9075 37.6139Z" fill="black"/>
<path d="M68.9084 47.4499C72.2222 47.4499 74.9085 44.7635 74.9085 41.4497C74.9085 38.1359 72.2222 35.4496 68.9084 35.4496C65.5946 35.4496 62.9082 38.1359 62.9082 41.4497C62.9082 44.7635 65.5946 47.4499 68.9084 47.4499Z" fill="black"/>
<path d="M68.2619 48.2946C68.2904 49.8501 71.5198 51.0554 75.475 50.9867C79.4302 50.9181 82.6134 49.6015 82.5849 48.046C82.5563 46.4906 79.3269 45.2853 75.3717 45.3539C71.4165 45.4226 68.2333 46.7392 68.2619 48.2946Z" fill="#8BCEDD"/>
<path d="M68.2619 48.2946C68.2904 49.8501 71.5198 51.0554 75.475 50.9867C79.4302 50.9181 82.6134 49.6015 82.5849 48.046C82.5563 46.4906 79.3269 45.2853 75.3717 45.3539C71.4165 45.4226 68.2333 46.7392 68.2619 48.2946Z" fill="#8BCEDD"/>
<path d="M68.2619 48.2946C68.2904 49.8501 71.5198 51.0554 75.475 50.9867C79.4302 50.9181 82.6134 49.6015 82.5849 48.046C82.5563 46.4906 79.3269 45.2853 75.3717 45.3539C71.4165 45.4226 68.2333 46.7392 68.2619 48.2946Z" fill="#8BCEDD"/>
<path d="M68.2619 48.2946C68.2904 49.8501 71.5198 51.0554 75.475 50.9867C79.4302 50.9181 82.6134 49.6015 82.5849 48.046C82.5563 46.4906 79.3269 45.2853 75.3717 45.3539C71.4165 45.4226 68.2333 46.7392 68.2619 48.2946Z" fill="#8BCEDD"/>
<path d="M68.2619 48.2946C68.2904 49.8501 71.5198 51.0554 75.475 50.9867C79.4302 50.9181 82.6134 49.6015 82.5849 48.046C82.5563 46.4906 79.3269 45.2853 75.3717 45.3539C71.4165 45.4226 68.2333 46.7392 68.2619 48.2946Z" fill="#8BCEDD"/>
<path d="M68.2619 48.2946C68.2904 49.8501 71.5198 51.0554 75.475 50.9867C79.4302 50.9181 82.6134 49.6015 82.5849 48.046C82.5563 46.4906 79.3269 45.2853 75.3717 45.3539C71.4165 45.4226 68.2333 46.7392 68.2619 48.2946Z" fill="#8BCEDD"/>
<path d="M24.0519 48.2946C24.0804 49.8501 27.3099 51.0554 31.265 50.9867C35.2202 50.9181 38.4034 49.6015 38.3749 48.046C38.3464 46.4906 35.1169 45.2853 31.1617 45.3539C27.2066 45.4226 24.0234 46.7392 24.0519 48.2946Z" fill="#8BCEDD"/>
<path d="M24.0519 48.2946C24.0804 49.8501 27.3099 51.0554 31.265 50.9867C35.2202 50.9181 38.4034 49.6015 38.3749 48.046C38.3464 46.4906 35.1169 45.2853 31.1617 45.3539C27.2066 45.4226 24.0234 46.7392 24.0519 48.2946Z" fill="#8BCEDD"/>
<path d="M24.0519 48.2946C24.0804 49.8501 27.3099 51.0554 31.265 50.9867C35.2202 50.9181 38.4034 49.6015 38.3749 48.046C38.3464 46.4906 35.1169 45.2853 31.1617 45.3539C27.2066 45.4226 24.0234 46.7392 24.0519 48.2946Z" fill="#8BCEDD"/>
<path d="M24.0519 48.2946C24.0804 49.8501 27.3099 51.0554 31.265 50.9867C35.2202 50.9181 38.4034 49.6015 38.3749 48.046C38.3464 46.4906 35.1169 45.2853 31.1617 45.3539C27.2066 45.4226 24.0234 46.7392 24.0519 48.2946Z" fill="#8BCEDD"/>
<path d="M24.0519 48.2946C24.0804 49.8501 27.3099 51.0554 31.265 50.9867C35.2202 50.9181 38.4034 49.6015 38.3749 48.046C38.3464 46.4906 35.1169 45.2853 31.1617 45.3539C27.2066 45.4226 24.0234 46.7392 24.0519 48.2946Z" fill="#8BCEDD"/>
<path d="M24.0519 48.2946C24.0804 49.8501 27.3099 51.0554 31.265 50.9867C35.2202 50.9181 38.4034 49.6015 38.3749 48.046C38.3464 46.4906 35.1169 45.2853 31.1617 45.3539C27.2066 45.4226 24.0234 46.7392 24.0519 48.2946Z" fill="#8BCEDD"/>
<path d="M34.1562 38.5525C33.2957 39.5885 33.4372 41.1266 34.4723 41.9879C35.5073 42.8492 37.0439 42.7075 37.9044 41.6715C38.7648 40.6355 38.6234 39.0974 37.5883 38.2361C36.5533 37.3748 35.0167 37.5164 34.1562 38.5525Z" fill="white"/>
<path d="M65.2053 39.0091C64.3443 40.0457 64.4858 41.5848 65.5215 42.4466C66.5571 43.3084 68.0947 43.1667 68.9557 42.1301C69.8167 41.0934 69.6751 39.5544 68.6394 38.6926C67.6038 37.8307 66.0663 37.9724 65.2053 39.0091Z" fill="white"/>
<path d="M38.8254 41.1543C38.2961 41.7916 38.3831 42.7377 39.0198 43.2676C39.6565 43.7974 40.6017 43.7103 41.131 43.073C41.6603 42.4357 41.5732 41.4896 40.9366 40.9598C40.2999 40.4299 39.3547 40.5171 38.8254 41.1543Z" fill="white"/>
<path d="M69.8254 41.1543C69.2961 41.7916 69.3831 42.7377 70.0198 43.2676C70.6565 43.7974 71.6017 43.7103 72.131 43.073C72.6603 42.4357 72.5732 41.4896 71.9366 40.9598C71.2999 40.4299 70.3547 40.5171 69.8254 41.1543Z" fill="white"/>
<path d="M40.2998 70.5001C40.2998 64.2612 46.4371 59 54.2998 59C62.1625 59 68.2998 64.2612 68.2998 70.5001C68.2998 76.7389 62.1625 82 54.2998 82C46.4371 82 40.2998 76.7389 40.2998 70.5001Z" fill="#EF2B1F" stroke="black" stroke-width="5"/>
<path d="M33 85L74 85L74 69L33 69L33 85Z" fill="#EF2B1F"/>
</g>
<defs>
<filter id="filter0_d_106_268" x="0.5" y="0.5" width="105" height="105" filterUnits="userSpaceOnUse" color-interpolation-filters="sRGB">
<feFlood flood-opacity="0" result="BackgroundImageFix"/>
<feColorMatrix in="SourceAlpha" type="matrix" values="0 0 0 0 0 0 0 0 0 0 0 0 0 0 0 0 0 0 127 0" result="hardAlpha"/>
<feOffset dy="4"/>
<feGaussianBlur stdDeviation="2"/>
<feComposite in2="hardAlpha" operator="out"/>
<feColorMatrix type="matrix" values="0 0 0 0 0 0 0 0 0 0 0 0 0 0 0 0 0 0 0.25 0"/>
<feBlend mode="normal" in2="BackgroundImageFix" result="effect1_dropShadow_106_268"/>
<feBlend mode="normal" in="SourceGraphic" in2="effect1_dropShadow_106_268" result="shape"/>
</filter>
</defs>
</svg>
