<svg width="106" height="106" viewBox="0 0 106 106" fill="none" xmlns="http://www.w3.org/2000/svg">
<g filter="url(#filter0_d_106_269)">
<g filter="url(#filter1_d_106_269)">
<path d="M34.9587 37.1539C34.4294 37.7912 34.5164 38.7373 35.1531 39.2671C35.7898 39.7969 36.735 39.7098 37.2643 39.0725C37.7936 38.4353 37.7065 37.4891 37.0699 36.9593C36.4332 36.4295 35.488 36.5166 34.9587 37.1539Z" fill="white"/>
<path d="M53 95C78.4051 95 99 74.4051 99 49C99 23.5949 78.4051 3 53 3C27.5949 3 7 23.5949 7 49C7 74.4051 27.5949 95 53 95Z" fill="#F3D538" stroke="black" stroke-width="5"/>
<path d="M32.8634 35.7466C30.7309 38.2804 31.0815 42.0421 33.6466 44.1486C36.2117 46.2551 40.0199 45.9087 42.1524 43.3749C44.2849 40.8411 43.9343 37.0795 41.3692 34.973C38.8041 32.8665 34.9959 33.2129 32.8634 35.7466Z" fill="black"/>
<path d="M69.5601 45.3684C72.9474 45.3684 75.6934 42.6585 75.6934 39.3158C75.6934 35.973 72.9474 33.2631 69.5601 33.2631C66.1727 33.2631 63.4268 35.973 63.4268 39.3158C63.4268 42.6585 66.1727 45.3684 69.5601 45.3684Z" fill="black"/>
<path d="M72 61.4999C72 67.7388 64.1092 73 54 73C43.8908 73 36 67.7388 36 61.4999C36 55.2611 43.8908 50 54 50C64.1092 50 72 55.2611 72 61.4999Z" fill="#F3D538" stroke="black" stroke-width="5"/>
<path d="M76 47H29V63H76V47Z" fill="#F3D538"/>
<path d="M32.9587 35.1539C32.4294 35.7912 32.5164 36.7373 33.1531 37.2671C33.7898 37.7969 34.735 37.7098 35.2643 37.0725C35.7936 36.4353 35.7065 35.4891 35.0699 34.9593C34.4332 34.4295 33.488 34.5166 32.9587 35.1539Z" fill="white"/>
<path d="M64.9587 35.1539C64.4294 35.7912 64.5164 36.7373 65.1531 37.2671C65.7898 37.7969 66.735 37.7098 67.2643 37.0725C67.7936 36.4353 67.7065 35.4891 67.0699 34.9593C66.4332 34.4295 65.488 34.5166 64.9587 35.1539Z" fill="white"/>
</g>
</g>
<defs>
<filter id="filter0_d_106_269" x="0.5" y="0.5" width="105" height="105" filterUnits="userSpaceOnUse" color-interpolation-filters="sRGB">
<feFlood flood-opacity="0" result="BackgroundImageFix"/>
<feColorMatrix in="SourceAlpha" type="matrix" values="0 0 0 0 0 0 0 0 0 0 0 0 0 0 0 0 0 0 127 0" result="hardAlpha"/>
<feOffset dy="4"/>
<feGaussianBlur stdDeviation="2"/>
<feComposite in2="hardAlpha" operator="out"/>
<feColorMatrix type="matrix" values="0 0 0 0 0 0 0 0 0 0 0 0 0 0 0 0 0 0 0.25 0"/>
<feBlend mode="normal" in2="BackgroundImageFix" result="effect1_dropShadow_106_269"/>
<feBlend mode="normal" in="SourceGraphic" in2="effect1_dropShadow_106_269" result="shape"/>
</filter>
<filter id="filter1_d_106_269" x="0.5" y="0.5" width="105" height="105" filterUnits="userSpaceOnUse" color-interpolation-filters="sRGB">
<feFlood flood-opacity="0" result="BackgroundImageFix"/>
<feColorMatrix in="SourceAlpha" type="matrix" values="0 0 0 0 0 0 0 0 0 0 0 0 0 0 0 0 0 0 127 0" result="hardAlpha"/>
<feOffset dy="4"/>
<feGaussianBlur stdDeviation="2"/>
<feComposite in2="hardAlpha" operator="out"/>
<feColorMatrix type="matrix" values="0 0 0 0 0 0 0 0 0 0 0 0 0 0 0 0 0 0 0.25 0"/>
<feBlend mode="normal" in2="BackgroundImageFix" result="effect1_dropShadow_106_269"/>
<feBlend mode="normal" in="SourceGraphic" in2="effect1_dropShadow_106_269" result="shape"/>
</filter>
</defs>
</svg>
