<svg width="181" height="106" viewBox="0 0 181 106" fill="none" xmlns="http://www.w3.org/2000/svg">
<path d="M180.921 0.502197H0.418701V105.104H180.921V0.502197Z" fill="white"/>
<path d="M53.5092 75.8655C51.4248 75.8655 49.4766 75.6764 47.6644 75.2967C45.878 74.9456 44.3766 74.4713 43.1589 73.8767C41.9413 73.2806 40.9399 72.7117 40.1549 72.1715C39.3971 71.6299 38.761 71.0882 38.2467 70.5466L39.2624 60.6811C40.3712 62.1699 41.8596 63.4695 43.7262 64.5786C45.5943 65.6618 47.6099 66.2035 49.7745 66.2035C51.9391 66.2035 53.4949 65.9728 54.4418 65.5128C55.4159 65.0528 55.903 64.2132 55.903 62.9952C55.903 61.697 55.3486 60.5865 54.2398 59.6666C53.1568 58.7467 51.2759 57.6362 48.597 56.3379C47.6228 55.8508 46.7977 55.4166 46.1215 55.0383C45.4453 54.6328 44.5385 53.9823 43.4025 53.0896C42.2923 52.1696 41.3854 51.2225 40.6821 50.2481C39.9787 49.2465 39.357 47.9741 38.8155 46.4309C38.274 44.8618 38.0032 43.1839 38.0032 41.3971C38.0032 31.735 43.4555 26.9033 54.3616 26.9033C56.0935 26.9033 57.7166 27.0925 59.2323 27.4722C60.7737 27.8232 61.9785 28.2159 62.8437 28.6486C63.7104 29.0828 64.4955 29.5957 65.1989 30.1918C65.9295 30.7607 66.3893 31.1662 66.5784 31.4098C66.7675 31.6262 66.9036 31.8024 66.9838 31.9371L64.9553 39.7736C63.8995 38.5284 62.573 37.6085 60.9771 37.0124C59.407 36.3905 57.9057 36.0782 56.4717 36.0782C53.0078 36.0782 51.2758 37.1615 51.2758 39.3266C51.2758 39.8954 51.3847 40.4098 51.601 40.8698C51.8173 41.3298 52.1697 41.7496 52.6568 42.1279C53.1439 42.5062 53.5894 42.8314 53.9963 43.1022C54.4289 43.3731 55.0105 43.7112 55.7411 44.1168C56.499 44.4965 57.0677 44.8074 57.4459 45.051C61.3969 46.7289 64.2921 48.7178 66.1315 51.019C67.9995 53.3203 68.9321 56.1216 68.9321 59.423C68.9321 64.782 67.607 68.8687 64.9553 71.6843C62.3294 74.4713 58.5145 75.8655 53.5092 75.8655ZM96.5719 75.0129L94.7454 67.4214H83.219L81.6761 75.0129H69.7429L82.1231 30.7191L81.149 27.4306H97.9113L111.469 75.0129H96.5719ZM88.455 41.3971L84.8822 59.1393H92.757L88.455 41.3971ZM120.619 75.0129V38.1903H111.121V27.4306H143.836V38.1903H134.338V75.0129H120.619Z" fill="#FFA800"/>
<mask id="mask0_142_59" style="mask-type:luminance" maskUnits="userSpaceOnUse" x="30" y="19" width="123" height="65">
<path d="M152.27 19.1299H30.5024V83.6104H152.27V19.1299Z" fill="white"/>
<path d="M53.5094 75.8655C51.4251 75.8655 49.4768 75.6764 47.6646 75.2967C45.8782 74.9456 44.3769 74.4713 43.1592 73.8767C41.9415 73.2806 40.9402 72.7117 40.1551 72.1715C39.3973 71.6299 38.7613 71.0882 38.247 70.5466L39.2626 60.6811C40.3714 62.1699 41.8599 63.4695 43.7265 64.5786C45.5945 65.6618 47.6102 66.2035 49.7748 66.2035C51.9394 66.2035 53.4951 65.9728 54.442 65.5128C55.4162 65.0528 55.9032 64.2132 55.9032 62.9952C55.9032 61.697 55.3489 60.5865 54.2401 59.6666C53.157 58.7467 51.2761 57.6362 48.5972 56.3379C47.6231 55.8508 46.7979 55.4166 46.1218 55.0383C45.4456 54.6328 44.5388 53.9823 43.4027 53.0896C42.2925 52.1696 41.3857 51.2225 40.6823 50.2481C39.9789 49.2465 39.3572 47.9741 38.8157 46.4309C38.2742 44.8618 38.0034 43.1839 38.0034 41.3971C38.0034 31.735 43.4557 26.9033 54.3618 26.9033C56.0938 26.9033 57.7168 27.0925 59.2325 27.4722C60.7739 27.8232 61.9787 28.2159 62.844 28.6486C63.7107 29.0828 64.4957 29.5957 65.1991 30.1918C65.9297 30.7607 66.3896 31.1662 66.5787 31.4098C66.7678 31.6262 66.9039 31.8024 66.9841 31.9371L64.9556 39.7736C63.8998 38.5284 62.5732 37.6085 60.9774 37.0124C59.4073 36.3905 57.9059 36.0782 56.472 36.0782C53.008 36.0782 51.2761 37.1615 51.2761 39.3266C51.2761 39.8954 51.3849 40.4098 51.6013 40.8698C51.8176 41.3298 52.17 41.7496 52.6571 42.1279C53.1441 42.5062 53.5897 42.8314 53.9965 43.1022C54.4291 43.3731 55.0108 43.7112 55.7414 44.1168C56.4992 44.4965 57.0679 44.8074 57.4461 45.051C61.3971 46.7289 64.2923 48.7178 66.1317 51.019C67.9998 53.3203 68.9323 56.1216 68.9323 59.423C68.9323 64.782 67.6072 68.8687 64.9556 71.6843C62.3297 74.4713 58.5148 75.8655 53.5094 75.8655ZM96.5721 75.0129L94.7456 67.4214H83.2193L81.6764 75.0129H69.7432L82.1233 30.7191L81.1492 27.4306H97.9116L111.469 75.0129H96.5721ZM88.4553 41.3971L84.8824 59.1393H92.7572L88.4553 41.3971ZM120.619 75.0129V38.1903H111.121V27.4306H143.837V38.1903H134.339V75.0129H120.619Z" fill="black"/>
</mask>
<g mask="url(#mask0_142_59)">
<path d="M47.6645 75.2967L49.1286 68.2841L49.0885 68.2755L49.0484 68.2684L47.6645 75.2967ZM40.1551 72.1716L35.992 78.0006L36.0393 78.035L36.088 78.0694L40.1551 72.1716ZM38.2469 70.5467L31.1228 69.8144L30.7847 73.0929L33.0539 75.4816L38.2469 70.5467ZM39.2625 60.6812L45.0042 56.3996L34.018 41.658L32.137 59.9489L39.2625 60.6812ZM43.7264 64.5786L40.0677 70.7387L40.1006 70.7587L40.135 70.7774L43.7264 64.5786ZM54.4419 65.5129L51.3834 59.0347L51.3476 59.0505L51.3132 59.0677L54.4419 65.5129ZM54.24 59.6666L49.5999 65.126L49.6343 65.1532L49.6672 65.1819L54.24 59.6666ZM48.5971 56.338L45.3939 62.746L45.4326 62.7646L45.4727 62.7847L48.5971 56.338ZM46.1217 55.0384L42.4357 61.1812L42.5288 61.2371L42.6219 61.2901L46.1217 55.0384ZM43.4027 53.0896L38.8299 58.6049L38.903 58.6651L38.9775 58.7238L43.4027 53.0896ZM40.6822 50.2482L34.8217 54.3664L34.8488 54.405L34.8761 54.4423L40.6822 50.2482ZM38.8156 46.4309L32.0439 48.7666L32.0496 48.7852L32.0568 48.8038L38.8156 46.4309ZM59.2324 27.4723L57.4947 34.4218L57.5664 34.4404L57.6394 34.4562L59.2324 27.4723ZM65.199 30.1919L60.5718 35.6613L60.685 35.7558L60.8011 35.8476L65.199 30.1919ZM66.5786 31.4099L60.9243 35.8089L61.0518 35.9722L61.1879 36.1284L66.5786 31.4099ZM66.984 31.9372L73.9176 33.734L74.6711 30.8267L73.1268 28.2517L66.984 31.9372ZM64.9555 39.7737L59.4917 44.4063L68.4251 54.9452L71.8891 41.5706L64.9555 39.7737ZM60.9773 37.0125L58.3371 43.6726L58.4058 43.6999L58.4746 43.7256L60.9773 37.0125ZM53.9964 43.1023L50.0225 49.0632L50.1099 49.1219L50.2001 49.1778L53.9964 43.1023ZM55.7413 44.1168L52.263 50.38L52.3991 50.456L52.5381 50.5248L55.7413 44.1168ZM57.446 45.0511L53.5724 51.0779L54.0852 51.4074L54.6468 51.6453L57.446 45.0511ZM66.1316 51.0191L60.5389 55.4941L60.5547 55.5141L60.5704 55.5342L66.1316 51.0191ZM64.9555 71.6844L59.7424 66.771L59.741 66.7724L64.9555 71.6844ZM53.5093 68.7011C51.8576 68.7011 50.405 68.5506 49.1286 68.2841L46.199 82.3108C48.5498 82.8008 50.9923 83.0301 53.5093 83.0301V68.7011ZM49.0484 68.2684C47.6789 67.9975 46.8093 67.6866 46.305 67.4401L40.0132 80.3133C41.9429 81.2562 44.0774 81.8924 46.2792 82.3266L49.0484 68.2684ZM46.305 67.4401C45.285 66.9415 44.6189 66.5474 44.2221 66.2738L36.088 78.0694C37.2598 78.8775 38.5964 79.6198 40.0132 80.3133L46.305 67.4401ZM44.3181 66.3411C43.8453 66.0029 43.5746 65.7536 43.4399 65.6132L33.0539 75.4816C33.9478 76.423 34.9491 77.257 35.992 78.0006L44.3181 66.3411ZM45.3724 71.2803L46.3867 61.4148L32.137 59.9489L31.1228 69.8144L45.3724 71.2803ZM33.5194 64.9641C35.28 67.3269 37.5249 69.227 40.0677 70.7387L47.3852 58.42C46.1947 57.7122 45.4627 57.0144 45.0042 56.3996L33.5194 64.9641ZM40.135 70.7774C43.0961 72.4954 46.3523 73.3681 49.7747 73.3681V59.0391C48.8679 59.0391 48.0914 58.8284 47.3193 58.3814L40.135 70.7774ZM49.7747 73.3681C52.1126 73.3681 55.0723 73.1717 57.5721 71.9581L51.3132 59.0677C51.5482 58.9545 51.6986 58.913 51.7144 58.9087C51.7344 58.9029 51.6757 58.9201 51.5181 58.943C51.1886 58.9918 50.627 59.0391 49.7747 59.0391V73.3681ZM57.5005 71.991C59.1493 71.213 60.6807 69.9492 61.7322 68.1365C62.7536 66.3784 63.0659 64.55 63.0659 62.9953H48.7403C48.7403 62.66 48.8106 61.8604 49.3435 60.9405C49.9093 59.9676 50.7087 59.3529 51.3834 59.0347L57.5005 71.991ZM63.0659 62.9953C63.0659 59.3127 61.3583 56.2649 58.8112 54.1514L49.6672 65.1819C49.5798 65.1088 49.3148 64.8595 49.0813 64.3938C48.8378 63.9066 48.7403 63.4051 48.7403 62.9953H63.0659ZM58.8786 54.2073C57.0635 52.6641 54.4878 51.2312 51.7229 49.8914L45.4727 62.7847C48.0656 64.0413 49.2503 64.828 49.5999 65.126L58.8786 54.2073ZM51.8003 49.9301C50.8906 49.4744 50.1701 49.0947 49.6214 48.7867L42.6219 61.2901C43.4256 61.7401 44.3567 62.2272 45.3939 62.746L51.8003 49.9301ZM49.8062 48.8955C49.5168 48.7207 48.8879 48.2894 47.8278 47.4555L38.9775 58.7238C40.1894 59.6767 41.3741 60.5436 42.4357 61.1812L49.8062 48.8955ZM47.974 47.5744C47.2405 46.9669 46.7763 46.451 46.4898 46.0527L34.8761 54.4423C35.9949 55.9927 37.3443 57.3726 38.8299 58.6049L47.974 47.5744ZM46.5428 46.1286C46.3208 45.8105 45.9655 45.1757 45.5744 44.0595L32.0568 48.8038C32.7473 50.7726 33.6384 52.6813 34.8217 54.3664L46.5428 46.1286ZM45.5873 44.0953C45.3237 43.333 45.1661 42.4489 45.1661 41.3972H30.8405C30.8405 43.9176 31.2245 46.3908 32.0439 48.7666L45.5873 44.0953ZM45.1661 41.3972C45.1661 37.9109 46.1102 36.5382 46.8422 35.8891C47.7404 35.0938 49.8133 34.0679 54.3617 34.0679V19.7389C48.004 19.7389 41.8985 21.1288 37.3429 25.1638C32.6241 29.3465 30.8405 35.2214 30.8405 41.3972H45.1661ZM54.3617 34.0679C55.5694 34.0679 56.6051 34.1997 57.4947 34.4218L60.9687 20.5212C58.8284 19.9853 56.6166 19.7389 54.3617 19.7389V34.0679ZM57.6394 34.4562C58.9273 34.7514 59.506 34.9893 59.6407 35.0566L66.0471 22.2407C64.4512 21.4426 62.6204 20.8967 60.824 20.4869L57.6394 34.4562ZM59.6407 35.0566C60.0218 35.2486 60.3254 35.4521 60.5718 35.6613L69.8248 24.7225C68.6644 23.741 67.398 22.9171 66.0471 22.2407L59.6407 35.0566ZM60.8011 35.8476C60.9457 35.9608 61.0647 36.0553 61.1606 36.1327C61.2566 36.2115 61.3182 36.2645 61.3526 36.2946C61.3684 36.309 61.3741 36.3147 61.3698 36.3104C61.3669 36.3075 61.3497 36.2918 61.3211 36.2631C61.2924 36.2344 61.2452 36.1857 61.1836 36.1184C61.152 36.0826 61.1148 36.0396 61.0718 35.9908C61.0303 35.9407 60.9801 35.8791 60.9243 35.8089L72.2329 27.0109C71.402 25.9419 70.2044 25.0091 69.5955 24.5362L60.8011 35.8476ZM61.1879 36.1284C61.2108 36.1542 61.1907 36.1327 61.1449 36.0725C61.1062 36.0224 60.9873 35.8648 60.8426 35.624L73.1268 28.2517C72.7157 27.5668 72.2501 27.0137 71.9693 26.6913L61.1879 36.1284ZM60.0504 30.1403L58.0205 37.9768L71.8891 41.5706L73.9176 33.734L60.0504 30.1403ZM70.4178 35.1397C68.5355 32.9173 66.1717 31.3038 63.4799 30.2994L58.4746 43.7256C58.9746 43.9119 59.2639 44.1383 59.4917 44.4063L70.4178 35.1397ZM63.6175 30.3524C61.354 29.4554 58.9545 28.9138 56.4719 28.9138V43.2428C56.8572 43.2428 57.4618 43.3259 58.3371 43.6726L63.6175 30.3524ZM56.4719 28.9138C54.2256 28.9138 51.3247 29.2233 48.779 30.8152C45.6718 32.7582 44.1132 35.9522 44.1132 39.3266H58.4388C58.4388 39.7536 58.3486 40.4772 57.9216 41.2768C57.4847 42.0964 56.8816 42.6467 56.3716 42.9662C55.9089 43.2556 55.6038 43.3072 55.6596 43.2958C55.7083 43.2857 55.9576 43.2428 56.4719 43.2428V28.9138ZM44.1132 39.3266C44.1132 40.824 44.404 42.3988 45.1203 43.9205L58.0821 37.8192C58.3643 38.4196 58.4388 38.9655 58.4388 39.3266H44.1132ZM45.1203 43.9205C45.9082 45.5956 47.07 46.858 48.259 47.7836L57.0535 36.4723C57.2684 36.6399 57.7268 37.0627 58.0821 37.8192L45.1203 43.9205ZM48.259 47.7836C48.8492 48.2421 49.4395 48.6749 50.0225 49.0632L57.9689 37.1415C57.7397 36.9882 57.4374 36.7703 57.0535 36.4723L48.259 47.7836ZM50.2001 49.1778C50.7818 49.5418 51.4823 49.9473 52.263 50.38L59.2195 37.855C58.539 37.4753 58.0763 37.2045 57.7927 37.0268L50.2001 49.1778ZM52.5381 50.5248C52.859 50.6867 53.1082 50.8171 53.2959 50.9188C53.3876 50.9689 53.4564 51.0091 53.5065 51.0377C53.5566 51.0678 53.5767 51.0807 53.5724 51.0779L61.3196 39.0243C60.612 38.5701 59.7696 38.1216 58.9445 37.7089L52.5381 50.5248ZM54.6468 51.6453C57.9689 53.0567 59.7023 54.448 60.5389 55.4941L71.7258 46.5442C68.8821 42.9891 64.8237 40.4013 60.2452 38.4569L54.6468 51.6453ZM60.5704 55.5342C61.2824 56.4111 61.7695 57.566 61.7695 59.4231H76.095C76.095 54.6759 74.7155 50.2281 71.6928 46.504L60.5704 55.5342ZM61.7695 59.4231C61.7695 63.6673 60.7266 65.725 59.7424 66.771L70.1686 76.5978C74.4863 72.0125 76.095 65.8969 76.095 59.4231H61.7695ZM59.741 66.7724C58.8514 67.7152 57.1781 68.7011 53.5093 68.7011V83.0301C59.8513 83.0301 65.8079 81.2275 70.17 76.5964L59.741 66.7724ZM96.572 75.013L89.6084 76.6895L90.9292 82.1775H96.572V75.013ZM94.7455 67.4215L101.709 65.745L100.39 60.257H94.7455V67.4215ZM83.2192 67.4215V60.257H77.3643L76.1996 65.9943L83.2192 67.4215ZM81.6763 75.013V82.1775H87.5298L88.6959 76.4402L81.6763 75.013ZM69.7431 75.013L62.8439 73.0843L60.3025 82.1775H69.7431V75.013ZM82.1233 30.7192L89.021 32.6493L89.5754 30.6619L88.9895 28.6845L82.1233 30.7192ZM81.1491 27.4307V20.2662H71.5553L74.2814 29.4669L81.1491 27.4307ZM97.9115 27.4307L104.801 25.4676L103.318 20.2662H97.9115V27.4307ZM111.469 75.013V82.1775H120.957L118.357 73.05L111.469 75.013ZM88.4552 41.3972L95.416 39.7078L81.4328 39.9829L88.4552 41.3972ZM84.8824 59.1393L77.8614 57.7251L76.1337 66.3038H84.8824V59.1393ZM92.7571 59.1393V66.3038H101.865L99.718 57.45L92.7571 59.1393ZM103.536 73.3365L101.709 65.745L87.7819 69.0966L89.6084 76.6895L103.536 73.3365ZM94.7455 60.257H83.2192V74.586H94.7455V60.257ZM76.1996 65.9943L74.6568 73.5858L88.6959 76.4402L90.2373 68.8473L76.1996 65.9943ZM81.6763 67.8485H69.7431V82.1775H81.6763V67.8485ZM76.6409 76.9417L89.021 32.6493L75.224 28.7905L62.8439 73.0843L76.6409 76.9417ZM88.9895 28.6845L88.0154 25.396L74.2814 29.4669L75.2556 32.7554L88.9895 28.6845ZM81.1491 34.5952H97.9115V20.2662H81.1491V34.5952ZM91.0238 29.3952L104.58 76.9761L118.357 73.05L104.801 25.4676L91.0238 29.3952ZM111.469 67.8485H96.572V82.1775H111.469V67.8485ZM81.4328 39.9829L77.8614 57.7251L91.9048 60.5536L95.4762 42.8114L81.4328 39.9829ZM84.8824 66.3038H92.7571V51.9748H84.8824V66.3038ZM99.718 57.45L95.416 39.7078L81.4929 43.0866L85.7963 60.8273L99.718 57.45ZM120.619 75.013H113.456V82.1775H120.619V75.013ZM120.619 38.1903H127.782V31.0258H120.619V38.1903ZM111.121 38.1903H103.958V45.3549H111.121V38.1903ZM111.121 27.4307V20.2662H103.958V27.4307H111.121ZM143.836 27.4307H150.999V20.2662H143.836V27.4307ZM143.836 38.1903V45.3549H150.999V38.1903H143.836ZM134.339 38.1903V31.0258H127.176V38.1903H134.339ZM134.339 75.013V82.1775H141.501V75.013H134.339ZM127.782 75.013V38.1903H113.456V75.013H127.782ZM120.619 31.0258H111.121V45.3549H120.619V31.0258ZM118.284 38.1903V27.4307H103.958V38.1903H118.284ZM111.121 34.5952H143.836V20.2662H111.121V34.5952ZM136.674 27.4307V38.1903H150.999V27.4307H136.674ZM143.836 31.0258H134.339V45.3549H143.836V31.0258ZM127.176 38.1903V75.013H141.501V38.1903H127.176ZM134.339 67.8485H120.619V82.1775H134.339V67.8485Z" fill="black"/>
</g>
</svg>
