<svg width="126" height="73" viewBox="0 0 126 73" fill="none" xmlns="http://www.w3.org/2000/svg">
<rect width="126" height="73" fill="white"/>
<mask id="path-2-outside-1_109_381" maskUnits="userSpaceOnUse" x="21" y="13" width="85" height="45" fill="black">
<rect fill="white" x="21" y="13" width="85" height="45"/>
<path d="M37.0596 52.595C35.6052 52.595 34.2452 52.4628 32.9796 52.1983C31.7329 51.9528 30.6846 51.6222 29.8346 51.2067C28.9846 50.7911 28.2857 50.3944 27.7379 50.0167C27.2091 49.6389 26.7652 49.2611 26.4063 48.8833L27.1146 41.9983C27.8891 43.0372 28.9279 43.9439 30.2313 44.7183C31.5346 45.4739 32.9418 45.8517 34.4529 45.8517C35.9641 45.8517 37.0502 45.6911 37.7113 45.37C38.3913 45.0489 38.7313 44.4633 38.7313 43.6133C38.7313 42.7067 38.3441 41.9322 37.5696 41.29C36.8141 40.6478 35.5013 39.8733 33.6313 38.9667C32.9513 38.6267 32.3752 38.3244 31.9029 38.06C31.4307 37.7767 30.7979 37.3233 30.0046 36.7C29.2302 36.0578 28.5974 35.3967 28.1063 34.7167C27.6152 34.0178 27.1807 33.13 26.8029 32.0533C26.4252 30.9578 26.2363 29.7867 26.2363 28.54C26.2363 21.7967 30.0424 18.425 37.6546 18.425C38.8635 18.425 39.9968 18.5572 41.0546 18.8217C42.1313 19.0672 42.9718 19.3411 43.5763 19.6433C44.1807 19.9456 44.7285 20.3044 45.2196 20.72C45.7296 21.1167 46.0507 21.4 46.1829 21.57C46.3152 21.7211 46.4096 21.8439 46.4663 21.9383L45.0496 27.4067C44.3129 26.5378 43.3874 25.8956 42.2729 25.48C41.1774 25.0456 40.1291 24.8283 39.1279 24.8283C36.7102 24.8283 35.5013 25.5839 35.5013 27.095C35.5013 27.4917 35.5768 27.8506 35.7279 28.1717C35.8791 28.4928 36.1246 28.7856 36.4646 29.05C36.8046 29.3144 37.1163 29.5411 37.3996 29.73C37.7018 29.9189 38.1079 30.155 38.6179 30.4383C39.1468 30.7028 39.5435 30.92 39.8079 31.09C42.5657 32.2611 44.5868 33.6494 45.8713 35.255C47.1746 36.8606 47.8263 38.8156 47.8263 41.12C47.8263 44.86 46.9007 47.7122 45.0496 49.6767C43.2174 51.6222 40.5541 52.595 37.0596 52.595ZM67.1202 52L65.8452 46.7017H57.7985L56.7218 52H48.3918L57.0335 21.0883L56.3535 18.7933H68.0552L77.5185 52H67.1202ZM61.4535 28.54L58.9602 40.9217H64.4568L61.4535 28.54ZM83.9061 52V26.3017H77.2761V18.7933H100.113V26.3017H93.4828V52H83.9061Z"/>
</mask>
<path d="M37.0596 52.595C35.6052 52.595 34.2452 52.4628 32.9796 52.1983C31.7329 51.9528 30.6846 51.6222 29.8346 51.2067C28.9846 50.7911 28.2857 50.3944 27.7379 50.0167C27.2091 49.6389 26.7652 49.2611 26.4063 48.8833L27.1146 41.9983C27.8891 43.0372 28.9279 43.9439 30.2313 44.7183C31.5346 45.4739 32.9418 45.8517 34.4529 45.8517C35.9641 45.8517 37.0502 45.6911 37.7113 45.37C38.3913 45.0489 38.7313 44.4633 38.7313 43.6133C38.7313 42.7067 38.3441 41.9322 37.5696 41.29C36.8141 40.6478 35.5013 39.8733 33.6313 38.9667C32.9513 38.6267 32.3752 38.3244 31.9029 38.06C31.4307 37.7767 30.7979 37.3233 30.0046 36.7C29.2302 36.0578 28.5974 35.3967 28.1063 34.7167C27.6152 34.0178 27.1807 33.13 26.8029 32.0533C26.4252 30.9578 26.2363 29.7867 26.2363 28.54C26.2363 21.7967 30.0424 18.425 37.6546 18.425C38.8635 18.425 39.9968 18.5572 41.0546 18.8217C42.1313 19.0672 42.9718 19.3411 43.5763 19.6433C44.1807 19.9456 44.7285 20.3044 45.2196 20.72C45.7296 21.1167 46.0507 21.4 46.1829 21.57C46.3152 21.7211 46.4096 21.8439 46.4663 21.9383L45.0496 27.4067C44.3129 26.5378 43.3874 25.8956 42.2729 25.48C41.1774 25.0456 40.1291 24.8283 39.1279 24.8283C36.7102 24.8283 35.5013 25.5839 35.5013 27.095C35.5013 27.4917 35.5768 27.8506 35.7279 28.1717C35.8791 28.4928 36.1246 28.7856 36.4646 29.05C36.8046 29.3144 37.1163 29.5411 37.3996 29.73C37.7018 29.9189 38.1079 30.155 38.6179 30.4383C39.1468 30.7028 39.5435 30.92 39.8079 31.09C42.5657 32.2611 44.5868 33.6494 45.8713 35.255C47.1746 36.8606 47.8263 38.8156 47.8263 41.12C47.8263 44.86 46.9007 47.7122 45.0496 49.6767C43.2174 51.6222 40.5541 52.595 37.0596 52.595ZM67.1202 52L65.8452 46.7017H57.7985L56.7218 52H48.3918L57.0335 21.0883L56.3535 18.7933H68.0552L77.5185 52H67.1202ZM61.4535 28.54L58.9602 40.9217H64.4568L61.4535 28.54ZM83.9061 52V26.3017H77.2761V18.7933H100.113V26.3017H93.4828V52H83.9061Z" fill="#FFA800"/>
<path d="M32.9796 52.1983L34.0023 47.304L33.9741 47.2982L33.9459 47.2926L32.9796 52.1983ZM29.8346 51.2067L32.0307 46.7147L32.0307 46.7147L29.8346 51.2067ZM27.7379 50.0167L24.8318 54.0853L24.8653 54.1093L24.8993 54.1327L27.7379 50.0167ZM26.4063 48.8833L21.4325 48.3716L21.1972 50.6596L22.7813 52.3271L26.4063 48.8833ZM27.1146 41.9983L31.1233 39.01L23.4541 28.722L22.1409 41.4866L27.1146 41.9983ZM30.2313 44.7183L27.6771 49.0168L27.7003 49.0305L27.7236 49.044L30.2313 44.7183ZM37.7113 45.37L35.5763 40.8488L35.5514 40.8605L35.5268 40.8725L37.7113 45.37ZM37.5696 41.29L34.3314 45.0997L34.3545 45.1194L34.3779 45.1388L37.5696 41.29ZM33.6313 38.9667L31.3952 43.4388L31.4225 43.4524L31.4499 43.4657L33.6313 38.9667ZM31.9029 38.06L29.3305 42.3475L29.3946 42.386L29.4599 42.4225L31.9029 38.06ZM30.0046 36.7L26.8129 40.5488L26.8637 40.5909L26.9155 40.6316L30.0046 36.7ZM28.1063 34.7167L24.0153 37.5914L24.0339 37.6179L24.0529 37.6441L28.1063 34.7167ZM26.8029 32.0533L22.0761 33.6833L22.0805 33.696L22.0849 33.7088L26.8029 32.0533ZM41.0546 18.8217L39.8419 23.6724L39.8923 23.685L39.9428 23.6965L41.0546 18.8217ZM45.2196 20.72L41.9899 24.5369L42.0686 24.6035L42.1499 24.6668L45.2196 20.72ZM46.1829 21.57L42.2362 24.6397L42.3249 24.7538L42.4201 24.8625L46.1829 21.57ZM46.4663 21.9383L51.3065 23.1923L51.8322 21.1632L50.7537 19.3658L46.4663 21.9383ZM45.0496 27.4067L41.2358 30.6401L47.4716 37.9951L49.8898 28.6606L45.0496 27.4067ZM42.2729 25.48L40.4298 30.1279L40.4777 30.1469L40.526 30.1649L42.2729 25.48ZM35.7279 28.1717L40.252 26.0427L40.252 26.0427L35.7279 28.1717ZM36.4646 29.05L39.5343 25.1032L39.5343 25.1032L36.4646 29.05ZM37.3996 29.73L34.6261 33.8903L34.6873 33.931L34.7496 33.97L37.3996 29.73ZM38.6179 30.4383L36.1897 34.8091L36.2847 34.8619L36.3819 34.9105L38.6179 30.4383ZM39.8079 31.09L37.1042 35.2959L37.462 35.5259L37.8536 35.6922L39.8079 31.09ZM45.8713 35.255L41.9669 38.3785L41.9781 38.3924L41.9893 38.4062L45.8713 35.255ZM45.0496 49.6767L41.4107 46.2477L41.4097 46.2487L45.0496 49.6767ZM37.0596 47.595C35.9069 47.595 34.8928 47.4901 34.0023 47.304L31.9569 57.0926C33.5975 57.4354 35.3035 57.595 37.0596 57.595V47.595ZM33.9459 47.2926C32.9898 47.1043 32.3832 46.8871 32.0307 46.7147L27.6386 55.6986C28.986 56.3573 30.4761 56.8013 32.0133 57.1041L33.9459 47.2926ZM32.0307 46.7147C31.319 46.3668 30.8545 46.0922 30.5766 45.9006L24.8993 54.1327C25.717 54.6966 26.6502 55.2154 27.6386 55.6986L32.0307 46.7147ZM30.6441 45.948C30.3137 45.7119 30.1251 45.5383 30.0313 45.4396L22.7813 52.3271C23.4052 52.9839 24.1045 53.5658 24.8318 54.0853L30.6441 45.948ZM31.38 49.395L32.0884 42.51L22.1409 41.4866L21.4325 48.3716L31.38 49.395ZM23.1059 44.9867C24.3352 46.6357 25.9023 47.9621 27.6771 49.0168L32.7854 40.4199C31.9536 39.9256 31.4429 39.4387 31.1233 39.01L23.1059 44.9867ZM27.7236 49.044C29.7913 50.2427 32.064 50.8517 34.4529 50.8517V40.8517C33.8197 40.8517 33.2779 40.7051 32.7389 40.3926L27.7236 49.044ZM34.4529 50.8517C36.0854 50.8517 38.1505 50.7153 39.8958 49.8675L35.5268 40.8725C35.691 40.7927 35.7959 40.7636 35.807 40.7605C35.8209 40.7567 35.7801 40.7687 35.6697 40.785C35.4396 40.819 35.0478 40.8517 34.4529 40.8517V50.8517ZM39.8463 49.8912C40.9972 49.3478 42.0656 48.4659 42.8002 47.2007C43.5127 45.9736 43.7313 44.6979 43.7313 43.6133H33.7313C33.7313 43.3788 33.7799 42.8208 34.1523 42.1793C34.547 41.4996 35.1054 41.0711 35.5763 40.8488L39.8463 49.8912ZM43.7313 43.6133C43.7313 41.0434 42.5392 38.9156 40.7613 37.4412L34.3779 45.1388C34.3168 45.0881 34.1316 44.9144 33.9687 44.5886C33.7987 44.2486 33.7313 43.8986 33.7313 43.6133H43.7313ZM40.8079 37.4803C39.541 36.4034 37.7425 35.4033 35.8126 34.4676L31.4499 43.4657C33.26 44.3434 34.0872 44.8921 34.3314 45.0997L40.8079 37.4803ZM35.8674 34.4945C35.2317 34.1767 34.7291 33.912 34.346 33.6975L29.4599 42.4225C30.0213 42.7369 30.6709 43.0766 31.3952 43.4388L35.8674 34.4945ZM34.4754 33.7725C34.2729 33.651 33.8337 33.3498 33.0937 32.7684L26.9155 40.6316C27.7622 41.2969 28.5885 41.9023 29.3305 42.3475L34.4754 33.7725ZM33.1963 32.8512C32.6845 32.4268 32.3603 32.067 32.1597 31.7892L24.0529 37.6441C24.8345 38.7263 25.7759 39.6888 26.8129 40.5488L33.1963 32.8512ZM32.1972 31.8419C32.0416 31.6204 31.7942 31.1767 31.5209 30.3979L22.0849 33.7088C22.5672 35.0833 23.1888 36.4151 24.0153 37.5914L32.1972 31.8419ZM31.5298 30.4234C31.3461 29.8906 31.2363 29.2741 31.2363 28.54H21.2363C21.2363 30.2993 21.5042 32.025 22.0761 33.6833L31.5298 30.4234ZM31.2363 28.54C31.2363 26.1067 31.8951 25.1493 32.4063 24.6964C33.0331 24.1412 34.4801 23.425 37.6546 23.425V13.425C33.2169 13.425 28.9547 14.3947 25.7754 17.2111C22.4805 20.1299 21.2363 24.2299 21.2363 28.54H31.2363ZM37.6546 23.425C38.4984 23.425 39.2211 23.5172 39.8419 23.6724L42.2673 13.971C40.7726 13.5973 39.2286 13.425 37.6546 13.425V23.425ZM39.9428 23.6965C40.8423 23.9016 41.246 24.0684 41.3402 24.1155L45.8124 15.1712C44.6977 14.6139 43.4203 14.2328 42.1664 13.9468L39.9428 23.6965ZM41.3402 24.1155C41.6065 24.2486 41.8177 24.3912 41.9899 24.5369L48.4493 16.9031C47.6393 16.2177 46.755 15.6425 45.8124 15.1712L41.3402 24.1155ZM42.1499 24.6668C42.2512 24.7455 42.3341 24.8117 42.4005 24.866C42.4678 24.9211 42.511 24.9582 42.5348 24.9792C42.5462 24.9892 42.55 24.9928 42.5474 24.9904C42.5451 24.9882 42.5328 24.9768 42.5128 24.9568C42.4934 24.9374 42.4599 24.9031 42.4168 24.8555C42.3949 24.8312 42.3686 24.8015 42.339 24.7665C42.3096 24.7317 42.2747 24.6893 42.2362 24.6397L50.1297 18.5003C49.5496 17.7545 48.7135 17.1032 48.2893 16.7732L42.1499 24.6668ZM42.4201 24.8625C42.4359 24.8807 42.4223 24.8661 42.3898 24.824C42.3629 24.789 42.28 24.6795 42.1788 24.5108L50.7537 19.3658C50.4673 18.8885 50.1424 18.5021 49.9458 18.2775L42.4201 24.8625ZM41.6261 20.6844L40.2094 26.1527L49.8898 28.6606L51.3065 23.1923L41.6261 20.6844ZM48.8634 24.1732C47.5485 22.6223 45.8994 21.4959 44.0199 20.7951L40.526 30.1649C40.8754 30.2952 41.0774 30.4532 41.2358 30.6401L48.8634 24.1732ZM44.1161 20.8321C42.536 20.2055 40.8614 19.8283 39.1279 19.8283V29.8283C39.3967 29.8283 39.8188 29.8856 40.4298 30.1279L44.1161 20.8321ZM39.1279 19.8283C37.5601 19.8283 35.5353 20.0441 33.758 21.155C31.5888 22.5107 30.5013 24.7403 30.5013 27.095H40.5013C40.5013 27.393 40.4377 27.8976 40.1397 28.4563C39.8349 29.0279 39.4145 29.4121 39.0579 29.635C38.735 29.8368 38.5215 29.8731 38.5611 29.8649C38.5953 29.8578 38.7686 29.8283 39.1279 29.8283V19.8283ZM30.5013 27.095C30.5013 28.1405 30.7042 29.2389 31.2039 30.3007L40.252 26.0427C40.4495 26.4622 40.5013 26.8429 40.5013 27.095H30.5013ZM31.2039 30.3006C31.7542 31.4701 32.5649 32.3512 33.3949 32.9968L39.5343 25.1032C39.6843 25.2199 40.004 25.5155 40.252 26.0427L31.2039 30.3006ZM33.3949 32.9968C33.8072 33.3174 34.2191 33.6189 34.6261 33.8903L40.1731 25.5697C40.0134 25.4633 39.802 25.3115 39.5343 25.1032L33.3949 32.9968ZM34.7496 33.97C35.1556 34.2237 35.6454 34.5067 36.1897 34.8091L41.0462 26.0675C40.5705 25.8033 40.2481 25.6141 40.0496 25.49L34.7496 33.97ZM36.3819 34.9105C36.6065 35.0228 36.7804 35.1138 36.9105 35.1851C36.9748 35.2203 37.0232 35.2478 37.0578 35.2681C37.0931 35.2887 37.1071 35.2978 37.1042 35.2959L42.5117 26.8841C42.0179 26.5666 41.43 26.2542 40.854 25.9662L36.3819 34.9105ZM37.8536 35.6922C40.1734 36.6773 41.3827 37.6482 41.9669 38.3785L49.7756 32.1315C47.791 29.6507 44.9581 27.8449 41.7623 26.4878L37.8536 35.6922ZM41.9893 38.4062C42.4862 39.0183 42.8263 39.8238 42.8263 41.12H52.8263C52.8263 37.8073 51.8631 34.7028 49.7533 32.1038L41.9893 38.4062ZM42.8263 41.12C42.8263 44.0816 42.0981 45.5182 41.4107 46.2477L48.6886 53.1057C51.7034 49.9063 52.8263 45.6384 52.8263 41.12H42.8263ZM41.4097 46.2487C40.7893 46.9074 39.6211 47.595 37.0596 47.595V57.595C41.4871 57.595 45.6455 56.337 48.6896 53.1046L41.4097 46.2487ZM67.1202 52L62.2589 53.1698L63.1807 57H67.1202V52ZM65.8452 46.7017L70.7064 45.5319L69.7847 41.7017H65.8452V46.7017ZM57.7985 46.7017V41.7017H53.7124L52.8987 45.706L57.7985 46.7017ZM56.7218 52V57H60.808L61.6217 52.9957L56.7218 52ZM48.3918 52L43.5765 50.6538L41.8023 57H48.3918V52ZM57.0335 21.0883L61.8489 22.4345L62.2365 21.0481L61.8275 19.6679L57.0335 21.0883ZM56.3535 18.7933V13.7933H49.6572L51.5595 20.2138L56.3535 18.7933ZM68.0552 18.7933L72.8637 17.423L71.8293 13.7933H68.0552V18.7933ZM77.5185 52V57H84.1425L82.3271 50.6296L77.5185 52ZM61.4535 28.54L66.3126 27.3614L56.5519 27.5529L61.4535 28.54ZM58.9602 40.9217L54.0586 39.9346L52.8529 45.9217H58.9602V40.9217ZM64.4568 40.9217V45.9217H70.8146L69.3159 39.743L64.4568 40.9217ZM71.9814 50.8302L70.7064 45.5319L60.9839 47.8715L62.2589 53.1698L71.9814 50.8302ZM65.8452 41.7017H57.7985V51.7017H65.8452V41.7017ZM52.8987 45.706L51.822 51.0043L61.6217 52.9957L62.6984 47.6974L52.8987 45.706ZM56.7218 47H48.3918V57H56.7218V47ZM53.2072 53.3462L61.8489 22.4345L52.2181 19.7421L43.5765 50.6538L53.2072 53.3462ZM61.8275 19.6679L61.1475 17.3729L51.5595 20.2138L52.2395 22.5088L61.8275 19.6679ZM56.3535 23.7933H68.0552V13.7933H56.3535V23.7933ZM63.2466 20.1637L72.71 53.3704L82.3271 50.6296L72.8637 17.423L63.2466 20.1637ZM77.5185 47H67.1202V57H77.5185V47ZM56.5519 27.5529L54.0586 39.9346L63.8618 41.9087L66.3551 29.5271L56.5519 27.5529ZM58.9602 45.9217H64.4568V35.9217H58.9602V45.9217ZM69.3159 39.743L66.3126 27.3614L56.5944 29.7186L59.5977 42.1003L69.3159 39.743ZM83.9061 52H78.9061V57H83.9061V52ZM83.9061 26.3017H88.9061V21.3017H83.9061V26.3017ZM77.2761 26.3017H72.2761V31.3017H77.2761V26.3017ZM77.2761 18.7933V13.7933H72.2761V18.7933H77.2761ZM100.113 18.7933H105.113V13.7933H100.113V18.7933ZM100.113 26.3017V31.3017H105.113V26.3017H100.113ZM93.4828 26.3017V21.3017H88.4828V26.3017H93.4828ZM93.4828 52V57H98.4828V52H93.4828ZM88.9061 52V26.3017H78.9061V52H88.9061ZM83.9061 21.3017H77.2761V31.3017H83.9061V21.3017ZM82.2761 26.3017V18.7933H72.2761V26.3017H82.2761ZM77.2761 23.7933H100.113V13.7933H77.2761V23.7933ZM95.1128 18.7933V26.3017H105.113V18.7933H95.1128ZM100.113 21.3017H93.4828V31.3017H100.113V21.3017ZM88.4828 26.3017V52H98.4828V26.3017H88.4828ZM93.4828 47H83.9061V57H93.4828V47Z" fill="black" mask="url(#path-2-outside-1_109_381)"/>
</svg>
